<svg width="1172" height="429" viewBox="0 0 1172 429" fill="none" xmlns="http://www.w3.org/2000/svg">
<path d="M70.1172 64.3945L29.5898 185H1.17188L54.2969 42.8125H72.4609L70.1172 64.3945ZM104.004 185L63.2812 64.3945L60.8398 42.8125H79.1016L132.52 185H104.004ZM102.148 132.168V153.359H25.8789V132.168H102.148ZM261.426 42.8125V185H234.473L174.023 86.3672V185H147.168V42.8125H174.023L234.668 141.543V42.8125H261.426ZM315.625 42.8125V185H288.77V42.8125H315.625ZM400.977 42.8125L343.945 112.148L311.328 147.012L306.543 120.938L329.199 91.543L368.066 42.8125H400.977ZM371.094 185L326.855 118.398L346.094 101.016L403.027 185H371.094ZM494.629 42.8125H521.484V137.246C521.484 148.118 519.141 157.266 514.453 164.688C509.766 172.044 503.385 177.611 495.312 181.387C487.24 185.098 478.06 186.953 467.773 186.953C457.357 186.953 448.079 185.098 439.941 181.387C431.803 177.611 425.423 172.044 420.801 164.688C416.178 157.266 413.867 148.118 413.867 137.246V42.8125H440.723V137.246C440.723 143.887 441.829 149.323 444.043 153.555C446.257 157.721 449.382 160.814 453.418 162.832C457.454 164.85 462.24 165.859 467.773 165.859C473.372 165.859 478.158 164.85 482.129 162.832C486.165 160.814 489.258 157.721 491.406 153.555C493.555 149.323 494.629 143.887 494.629 137.246V42.8125ZM621.387 148.086C621.387 145.352 620.964 142.91 620.117 140.762C619.336 138.548 617.871 136.562 615.723 134.805C613.639 132.982 610.677 131.224 606.836 129.531C603.06 127.773 598.177 125.951 592.188 124.062C585.547 121.979 579.362 119.635 573.633 117.031C567.904 114.427 562.858 111.4 558.496 107.949C554.199 104.499 550.846 100.527 548.438 96.0352C546.029 91.4779 544.824 86.2044 544.824 80.2148C544.824 74.3555 546.061 69.0169 548.535 64.1992C551.074 59.3815 554.655 55.2474 559.277 51.7969C563.9 48.2812 569.336 45.5794 575.586 43.6914C581.901 41.8034 588.867 40.8594 596.484 40.8594C607.031 40.8594 616.146 42.7799 623.828 46.6211C631.576 50.4622 637.565 55.6706 641.797 62.2461C646.029 68.8216 648.145 76.2109 648.145 84.4141H621.387C621.387 79.987 620.443 76.0807 618.555 72.6953C616.732 69.3099 613.932 66.6406 610.156 64.6875C606.445 62.7344 601.758 61.7578 596.094 61.7578C590.625 61.7578 586.068 62.5716 582.422 64.1992C578.841 65.8268 576.139 68.0404 574.316 70.8398C572.559 73.6393 571.68 76.7643 571.68 80.2148C571.68 82.819 572.298 85.1628 573.535 87.2461C574.772 89.2643 576.628 91.1849 579.102 93.0078C581.576 94.7656 584.635 96.4258 588.281 97.9883C591.992 99.4857 596.289 100.983 601.172 102.48C608.984 104.824 615.82 107.428 621.68 110.293C627.604 113.158 632.52 116.413 636.426 120.059C640.397 123.704 643.359 127.806 645.312 132.363C647.331 136.921 648.34 142.096 648.34 147.891C648.34 154.01 647.135 159.479 644.727 164.297C642.318 169.115 638.867 173.216 634.375 176.602C629.883 179.987 624.479 182.559 618.164 184.316C611.914 186.074 604.915 186.953 597.168 186.953C590.267 186.953 583.431 186.042 576.66 184.219C569.954 182.331 563.867 179.531 558.398 175.82C552.93 172.044 548.568 167.292 545.312 161.562C542.057 155.768 540.43 148.997 540.43 141.25H567.383C567.383 145.742 568.099 149.583 569.531 152.773C571.029 155.898 573.112 158.47 575.781 160.488C578.516 162.441 581.706 163.874 585.352 164.785C588.997 165.697 592.936 166.152 597.168 166.152C602.637 166.152 607.129 165.404 610.645 163.906C614.225 162.344 616.895 160.195 618.652 157.461C620.475 154.727 621.387 151.602 621.387 148.086ZM763.379 101.504V122.598H688.574V101.504H763.379ZM695.898 42.8125V185H669.043V42.8125H695.898ZM783.301 42.8125V185H756.445V42.8125H783.301Z" fill="black"/>
<mask id="path-2-outside-1_1141_6" maskUnits="userSpaceOnUse" x="2" y="228" width="1177" height="161" fill="black">
<rect fill="white" x="2" y="228" width="1177" height="161"/>
<path d="M124.512 306.465V361.836C122.428 364.505 119.141 367.402 114.648 370.527C110.221 373.652 104.427 376.354 97.2656 378.633C90.1042 380.846 81.3151 381.953 70.8984 381.953C61.849 381.953 53.5807 380.456 46.0938 377.461C38.6068 374.401 32.1615 369.941 26.7578 364.082C21.3542 358.223 17.1875 351.061 14.2578 342.598C11.3281 334.134 9.86328 324.466 9.86328 313.594V304.219C9.86328 293.346 11.2305 283.678 13.9648 275.215C16.7643 266.751 20.7357 259.59 25.8789 253.73C31.0872 247.871 37.3047 243.411 44.5312 240.352C51.8229 237.292 59.9609 235.762 68.9453 235.762C80.9896 235.762 90.8854 237.747 98.6328 241.719C106.445 245.69 112.435 251.159 116.602 258.125C120.768 265.026 123.372 272.969 124.414 281.953H98.2422C97.526 277.005 96.0938 272.676 93.9453 268.965C91.7969 265.189 88.737 262.259 84.7656 260.176C80.8594 258.027 75.7812 256.953 69.5312 256.953C64.2578 256.953 59.6029 257.995 55.5664 260.078C51.5299 262.161 48.1445 265.189 45.4102 269.16C42.6758 273.132 40.5924 278.047 39.1602 283.906C37.793 289.766 37.1094 296.471 37.1094 304.023V313.594C37.1094 321.211 37.8906 327.982 39.4531 333.906C41.0156 339.766 43.2617 344.714 46.1914 348.75C49.1862 352.721 52.8646 355.749 57.2266 357.832C61.6536 359.85 66.6667 360.859 72.2656 360.859C77.3438 360.859 81.543 360.436 84.8633 359.59C88.2487 358.678 90.9505 357.604 92.9688 356.367C94.987 355.13 96.5495 353.926 97.6562 352.754V326.094H69.4336V306.465H124.512ZM216.445 259.395L175.918 380H147.5L200.625 237.812H218.789L216.445 259.395ZM250.332 380L209.609 259.395L207.168 237.812H225.43L278.848 380H250.332ZM248.477 327.168V348.359H172.207V327.168H248.477ZM397.832 296.504V317.598H323.027V296.504H397.832ZM330.352 237.812V380H303.496V237.812H330.352ZM417.754 237.812V380H390.898V237.812H417.754ZM513.398 259.395L472.871 380H444.453L497.578 237.812H515.742L513.398 259.395ZM547.285 380L506.562 259.395L504.121 237.812H522.383L575.801 380H547.285ZM545.43 327.168V348.359H469.16V327.168H545.43ZM600.449 237.812H652.109C662.917 237.812 672.194 239.44 679.941 242.695C687.689 245.951 693.646 250.768 697.812 257.148C701.979 263.529 704.062 271.374 704.062 280.684C704.062 288.04 702.76 294.421 700.156 299.824C697.552 305.228 693.874 309.753 689.121 313.398C684.434 317.044 678.9 319.909 672.52 321.992L664.121 326.289H618.516L618.32 305.098H652.402C657.936 305.098 662.526 304.121 666.172 302.168C669.818 300.215 672.552 297.513 674.375 294.062C676.263 290.612 677.207 286.673 677.207 282.246C677.207 277.493 676.296 273.392 674.473 269.941C672.65 266.426 669.883 263.724 666.172 261.836C662.461 259.948 657.773 259.004 652.109 259.004H627.305V380H600.449V237.812ZM680.723 380L647.812 316.328L676.23 316.23L709.531 378.633V380H680.723ZM772.559 352.754L800.879 237.812H816.211L817.188 262.031L786.914 380H770.703L772.559 352.754ZM754.688 237.812L777.93 352.363V380H760.254L728.027 237.812H754.688ZM846.582 351.875L869.434 237.812H896.191L863.965 380H846.289L846.582 351.875ZM823.535 237.812L851.855 353.145L853.516 380H837.305L807.129 261.934L808.301 237.812H823.535ZM975.43 259.395L934.902 380H906.484L959.609 237.812H977.773L975.43 259.395ZM1009.32 380L968.594 259.395L966.152 237.812H984.414L1037.83 380H1009.32ZM1007.46 327.168V348.359H931.191V327.168H1007.46ZM1062.48 237.812H1114.14C1124.95 237.812 1134.23 239.44 1141.97 242.695C1149.72 245.951 1155.68 250.768 1159.84 257.148C1164.01 263.529 1166.09 271.374 1166.09 280.684C1166.09 288.04 1164.79 294.421 1162.19 299.824C1159.58 305.228 1155.9 309.753 1151.15 313.398C1146.46 317.044 1140.93 319.909 1134.55 321.992L1126.15 326.289H1080.55L1080.35 305.098H1114.43C1119.97 305.098 1124.56 304.121 1128.2 302.168C1131.85 300.215 1134.58 297.513 1136.41 294.062C1138.29 290.612 1139.24 286.673 1139.24 282.246C1139.24 277.493 1138.33 273.392 1136.5 269.941C1134.68 266.426 1131.91 263.724 1128.2 261.836C1124.49 259.948 1119.8 259.004 1114.14 259.004H1089.34V380H1062.48V237.812ZM1142.75 380L1109.84 316.328L1138.26 316.23L1171.56 378.633V380H1142.75Z"/>
</mask>
<path d="M124.512 306.465H131.512V299.465H124.512V306.465ZM124.512 361.836L130.03 366.143L131.512 364.244V361.836H124.512ZM114.648 370.527L110.651 364.781L110.631 364.795L110.612 364.809L114.648 370.527ZM97.2656 378.633L99.3328 385.321L99.3604 385.312L99.3881 385.303L97.2656 378.633ZM46.0938 377.461L43.4455 383.941L43.4697 383.951L43.494 383.96L46.0938 377.461ZM26.7578 364.082L31.9036 359.336L26.7578 364.082ZM13.9648 275.215L7.31897 273.017L7.31133 273.04L7.30385 273.063L13.9648 275.215ZM25.8789 253.73L20.647 249.08L20.6325 249.096L20.6181 249.113L25.8789 253.73ZM44.5312 240.352L41.8226 233.897L41.8122 233.901L41.8019 233.906L44.5312 240.352ZM98.6328 241.719L95.4397 247.948L95.4502 247.953L95.4608 247.959L98.6328 241.719ZM116.602 258.125L110.594 261.718L110.602 261.731L110.609 261.743L116.602 258.125ZM124.414 281.953V288.953H132.273L131.367 281.147L124.414 281.953ZM98.2422 281.953L91.3144 282.956L92.1824 288.953H98.2422V281.953ZM93.9453 268.965L87.8612 272.427L87.8742 272.449L87.8873 272.472L93.9453 268.965ZM84.7656 260.176L81.3922 266.309L81.4527 266.343L81.5138 266.375L84.7656 260.176ZM39.1602 283.906L32.3604 282.244L32.3516 282.28L32.3433 282.316L39.1602 283.906ZM39.4531 333.906L32.6846 335.691L32.687 335.701L32.6895 335.71L39.4531 333.906ZM46.1914 348.75L40.5263 352.862L40.5639 352.914L40.6024 352.965L46.1914 348.75ZM57.2266 357.832L54.2097 364.149L54.2661 364.175L54.3229 364.201L57.2266 357.832ZM84.8633 359.59L86.5923 366.373L86.6378 366.361L86.6831 366.349L84.8633 359.59ZM97.6562 352.754L102.745 357.56L104.656 355.537V352.754H97.6562ZM97.6562 326.094H104.656V319.094H97.6562V326.094ZM69.4336 326.094H62.4336V333.094H69.4336V326.094ZM69.4336 306.465V299.465H62.4336V306.465H69.4336ZM117.512 306.465V361.836H131.512V306.465H117.512ZM118.994 357.529C117.524 359.411 114.875 361.842 110.651 364.781L118.646 376.274C123.406 372.962 127.332 369.599 130.03 366.143L118.994 357.529ZM110.612 364.809C106.948 367.395 101.865 369.824 95.1432 371.962L99.3881 385.303C106.989 382.885 113.495 379.91 118.685 376.246L110.612 364.809ZM95.1985 371.945C88.9105 373.889 80.8656 374.953 70.8984 374.953V388.953C81.7646 388.953 91.2979 387.804 99.3328 385.321L95.1985 371.945ZM70.8984 374.953C62.631 374.953 55.2586 373.588 48.6935 370.962L43.494 383.96C51.9029 387.324 61.0669 388.953 70.8984 388.953V374.953ZM48.742 370.981C42.1901 368.303 36.6014 364.43 31.9036 359.336L21.612 368.828C27.7216 375.452 35.0235 380.499 43.4455 383.941L48.742 370.981ZM31.9036 359.336C27.2299 354.269 23.5261 347.973 20.8727 340.308L7.64291 344.887C10.8489 354.149 15.4785 362.177 21.612 368.828L31.9036 359.336ZM20.8727 340.308C18.2458 332.719 16.8633 323.848 16.8633 313.594H2.86328C2.86328 325.084 4.4104 335.549 7.64291 344.887L20.8727 340.308ZM16.8633 313.594V304.219H2.86328V313.594H16.8633ZM16.8633 304.219C16.8633 293.921 18.1596 285.001 20.6258 277.367L7.30385 273.063C4.30136 282.356 2.86328 292.772 2.86328 304.219H16.8633ZM20.6107 277.413C23.1574 269.714 26.6983 263.408 31.1397 258.348L20.6181 249.113C14.7731 255.772 10.3712 263.789 7.31897 273.017L20.6107 277.413ZM31.1108 258.381C35.6278 253.299 40.9901 249.453 47.2606 246.798L41.8019 233.906C33.6192 237.37 26.5466 242.443 20.647 249.08L31.1108 258.381ZM47.2399 246.806C53.5648 244.152 60.765 242.762 68.9453 242.762V228.762C59.1568 228.762 50.081 230.431 41.8226 233.897L47.2399 246.806ZM68.9453 242.762C80.2816 242.762 88.9853 244.639 95.4397 247.948L101.826 235.489C92.7855 230.855 81.6975 228.762 68.9453 228.762V242.762ZM95.4608 247.959C102.195 251.382 107.158 255.974 110.594 261.718L122.609 254.532C117.711 246.344 110.695 239.998 101.805 235.479L95.4608 247.959ZM110.609 261.743C114.198 267.687 116.52 274.648 117.461 282.759L131.367 281.147C130.225 271.289 127.338 262.365 122.594 254.507L110.609 261.743ZM124.414 274.953H98.2422V288.953H124.414V274.953ZM105.17 280.95C104.347 275.264 102.666 270.057 100.003 265.458L87.8873 272.472C89.5213 275.294 90.7051 278.746 91.3144 282.956L105.17 280.95ZM100.029 265.503C97.1962 260.523 93.135 256.662 88.0175 253.977L81.5138 266.375C84.3389 267.857 86.3976 269.854 87.8612 272.427L100.029 265.503ZM88.1391 254.042C82.867 251.143 76.5123 249.953 69.5312 249.953V263.953C75.0502 263.953 78.8517 264.912 81.3922 266.309L88.1391 254.042ZM69.5312 249.953C63.3209 249.953 57.5336 251.185 52.3559 253.858L58.7769 266.298C61.6721 264.804 65.1947 263.953 69.5312 263.953V249.953ZM52.3559 253.858C47.2325 256.502 42.991 260.33 39.6446 265.19L51.1757 273.13C53.298 270.047 55.8274 267.821 58.7769 266.298L52.3559 253.858ZM39.6446 265.19C36.3242 270.013 33.9458 275.758 32.3604 282.244L45.9599 285.568C47.2391 280.335 49.0273 276.25 51.1757 273.13L39.6446 265.19ZM32.3433 282.316C30.8282 288.809 30.1094 296.065 30.1094 304.023H44.1094C44.1094 296.878 44.7578 290.722 45.977 285.497L32.3433 282.316ZM30.1094 304.023V313.594H44.1094V304.023H30.1094ZM30.1094 313.594C30.1094 321.674 30.9365 329.063 32.6846 335.691L46.2217 332.121C44.8447 326.9 44.1094 320.748 44.1094 313.594H30.1094ZM32.6895 335.71C34.427 342.226 36.9959 347.998 40.5263 352.862L51.8565 344.638C49.5275 341.429 47.6043 337.306 46.2168 332.103L32.6895 335.71ZM40.6024 352.965C44.2532 357.806 48.8041 361.567 54.2097 364.149L60.2434 351.515C56.9251 349.931 54.1192 347.637 51.7804 344.535L40.6024 352.965ZM54.3229 364.201C59.7892 366.693 65.8153 367.859 72.2656 367.859V353.859C67.518 353.859 63.5181 353.007 60.1302 351.463L54.3229 364.201ZM72.2656 367.859C77.6755 367.859 82.5065 367.414 86.5923 366.373L83.1343 352.807C80.5794 353.458 77.012 353.859 72.2656 353.859V367.859ZM86.6831 366.349C90.4363 365.339 93.8335 364.047 96.6267 362.335L89.3108 350.399C88.0675 351.161 86.0611 352.018 83.0435 352.831L86.6831 366.349ZM96.6267 362.335C98.9496 360.912 101.067 359.337 102.745 357.56L92.5672 347.948C92.0316 348.515 91.0244 349.349 89.3108 350.399L96.6267 362.335ZM104.656 352.754V326.094H90.6562V352.754H104.656ZM97.6562 319.094H69.4336V333.094H97.6562V319.094ZM76.4336 326.094V306.465H62.4336V326.094H76.4336ZM69.4336 313.465H124.512V299.465H69.4336V313.465ZM216.445 259.395L223.081 261.624L223.322 260.905L223.404 260.15L216.445 259.395ZM175.918 380V387H180.95L182.553 382.23L175.918 380ZM147.5 380L140.943 377.55L137.412 387H147.5V380ZM200.625 237.812V230.812H195.768L194.068 235.363L200.625 237.812ZM218.789 237.812L225.748 238.568L226.59 230.812H218.789V237.812ZM250.332 380L243.7 382.239L245.307 387H250.332V380ZM209.609 259.395L202.654 260.181L202.738 260.925L202.977 261.634L209.609 259.395ZM207.168 237.812V230.812H199.331L200.212 238.599L207.168 237.812ZM225.43 237.812L231.983 235.351L230.278 230.812H225.43V237.812ZM278.848 380V387H288.955L285.4 377.538L278.848 380ZM248.477 327.168H255.477V320.168H248.477V327.168ZM248.477 348.359V355.359H255.477V348.359H248.477ZM172.207 348.359H165.207V355.359H172.207V348.359ZM172.207 327.168V320.168H165.207V327.168H172.207ZM209.81 257.165L169.283 377.77L182.553 382.23L223.081 261.624L209.81 257.165ZM175.918 373H147.5V387H175.918V373ZM154.057 382.45L207.182 240.262L194.068 235.363L140.943 377.55L154.057 382.45ZM200.625 244.812H218.789V230.812H200.625V244.812ZM211.83 237.057L209.486 258.639L223.404 260.15L225.748 238.568L211.83 237.057ZM256.964 377.761L216.242 257.155L202.977 261.634L243.7 382.239L256.964 377.761ZM216.565 258.608L214.124 237.026L200.212 238.599L202.654 260.181L216.565 258.608ZM207.168 244.812H225.43V230.812H207.168V244.812ZM218.877 240.274L272.295 382.462L285.4 377.538L231.983 235.351L218.877 240.274ZM278.848 373H250.332V387H278.848V373ZM241.477 327.168V348.359H255.477V327.168H241.477ZM248.477 341.359H172.207V355.359H248.477V341.359ZM179.207 348.359V327.168H165.207V348.359H179.207ZM172.207 334.168H248.477V320.168H172.207V334.168ZM397.832 296.504H404.832V289.504H397.832V296.504ZM397.832 317.598V324.598H404.832V317.598H397.832ZM323.027 317.598H316.027V324.598H323.027V317.598ZM323.027 296.504V289.504H316.027V296.504H323.027ZM330.352 237.812H337.352V230.812H330.352V237.812ZM330.352 380V387H337.352V380H330.352ZM303.496 380H296.496V387H303.496V380ZM303.496 237.812V230.812H296.496V237.812H303.496ZM417.754 237.812H424.754V230.812H417.754V237.812ZM417.754 380V387H424.754V380H417.754ZM390.898 380H383.898V387H390.898V380ZM390.898 237.812V230.812H383.898V237.812H390.898ZM390.832 296.504V317.598H404.832V296.504H390.832ZM397.832 310.598H323.027V324.598H397.832V310.598ZM330.027 317.598V296.504H316.027V317.598H330.027ZM323.027 303.504H397.832V289.504H323.027V303.504ZM323.352 237.812V380H337.352V237.812H323.352ZM330.352 373H303.496V387H330.352V373ZM310.496 380V237.812H296.496V380H310.496ZM303.496 244.812H330.352V230.812H303.496V244.812ZM410.754 237.812V380H424.754V237.812H410.754ZM417.754 373H390.898V387H417.754V373ZM397.898 380V237.812H383.898V380H397.898ZM390.898 244.812H417.754V230.812H390.898V244.812ZM513.398 259.395L520.034 261.624L520.276 260.905L520.358 260.15L513.398 259.395ZM472.871 380V387H477.904L479.506 382.23L472.871 380ZM444.453 380L437.896 377.55L434.365 387H444.453V380ZM497.578 237.812V230.812H492.721L491.021 235.363L497.578 237.812ZM515.742 237.812L522.701 238.568L523.544 230.812H515.742V237.812ZM547.285 380L540.653 382.239L542.26 387H547.285V380ZM506.562 259.395L499.607 260.181L499.691 260.925L499.93 261.634L506.562 259.395ZM504.121 237.812V230.812H496.285L497.165 238.599L504.121 237.812ZM522.383 237.812L528.936 235.351L527.231 230.812H522.383V237.812ZM575.801 380V387H585.908L582.354 377.538L575.801 380ZM545.43 327.168H552.43V320.168H545.43V327.168ZM545.43 348.359V355.359H552.43V348.359H545.43ZM469.16 348.359H462.16V355.359H469.16V348.359ZM469.16 327.168V320.168H462.16V327.168H469.16ZM506.763 257.165L466.236 377.77L479.506 382.23L520.034 261.624L506.763 257.165ZM472.871 373H444.453V387H472.871V373ZM451.01 382.45L504.135 240.262L491.021 235.363L437.896 377.55L451.01 382.45ZM497.578 244.812H515.742V230.812H497.578V244.812ZM508.783 237.057L506.439 258.639L520.358 260.15L522.701 238.568L508.783 237.057ZM553.917 377.761L513.195 257.155L499.93 261.634L540.653 382.239L553.917 377.761ZM513.518 258.608L511.077 237.026L497.165 238.599L499.607 260.181L513.518 258.608ZM504.121 244.812H522.383V230.812H504.121V244.812ZM515.83 240.274L569.248 382.462L582.354 377.538L528.936 235.351L515.83 240.274ZM575.801 373H547.285V387H575.801V373ZM538.43 327.168V348.359H552.43V327.168H538.43ZM545.43 341.359H469.16V355.359H545.43V341.359ZM476.16 348.359V327.168H462.16V348.359H476.16ZM469.16 334.168H545.43V320.168H469.16V334.168ZM600.449 237.812V230.812H593.449V237.812H600.449ZM679.941 242.695L682.653 236.242L679.941 242.695ZM697.812 257.148L703.673 253.321L697.812 257.148ZM689.121 313.398L684.86 307.844L684.842 307.859L684.824 307.873L689.121 313.398ZM672.52 321.992L670.347 315.338L669.822 315.509L669.331 315.76L672.52 321.992ZM664.121 326.289V333.289H665.808L667.309 332.521L664.121 326.289ZM618.516 326.289L611.516 326.354L611.58 333.289H618.516V326.289ZM618.32 305.098V298.098H611.255L611.321 305.162L618.32 305.098ZM674.375 294.062L668.234 290.702L668.21 290.747L668.186 290.793L674.375 294.062ZM674.473 269.941L668.258 273.164L668.271 273.187L668.283 273.211L674.473 269.941ZM627.305 259.004V252.004H620.305V259.004H627.305ZM627.305 380V387H634.305V380H627.305ZM600.449 380H593.449V387H600.449V380ZM680.723 380L674.504 383.214L676.461 387H680.723V380ZM647.812 316.328L647.788 309.328L636.335 309.368L641.594 319.542L647.812 316.328ZM676.23 316.23L682.406 312.935L680.422 309.216L676.206 309.231L676.23 316.23ZM709.531 378.633H716.531V376.882L715.707 375.337L709.531 378.633ZM709.531 380V387H716.531V380H709.531ZM600.449 244.812H652.109V230.812H600.449V244.812ZM652.109 244.812C662.241 244.812 670.548 246.341 677.23 249.149L682.653 236.242C673.84 232.539 663.593 230.812 652.109 230.812V244.812ZM677.23 249.149C683.827 251.921 688.627 255.885 691.952 260.976L703.673 253.321C698.665 245.651 691.551 239.98 682.653 236.242L677.23 249.149ZM691.952 260.976C695.225 265.988 697.062 272.43 697.062 280.684H711.062C711.062 270.318 708.734 261.069 703.673 253.321L691.952 260.976ZM697.062 280.684C697.062 287.222 695.906 292.52 693.85 296.785L706.462 302.863C709.615 296.322 711.062 288.859 711.062 280.684H697.062ZM693.85 296.785C691.721 301.203 688.743 304.866 684.86 307.844L693.382 318.952C699.005 314.639 703.383 309.252 706.462 302.863L693.85 296.785ZM684.824 307.873C680.851 310.963 676.058 313.473 670.347 315.338L674.692 328.646C681.742 326.345 688.016 323.126 693.419 318.924L684.824 307.873ZM669.331 315.76L660.933 320.057L667.309 332.521L675.708 328.224L669.331 315.76ZM664.121 319.289H618.516V333.289H664.121V319.289ZM625.515 326.225L625.32 305.033L611.321 305.162L611.516 326.354L625.515 326.225ZM618.32 312.098H652.402V298.098H618.32V312.098ZM652.402 312.098C658.715 312.098 664.53 310.989 669.477 308.338L662.866 295.998C660.522 297.253 657.157 298.098 652.402 298.098V312.098ZM669.477 308.338C674.274 305.769 678.05 302.091 680.564 297.332L668.186 290.793C667.054 292.935 665.361 294.661 662.866 295.998L669.477 308.338ZM680.516 297.423C683.035 292.818 684.207 287.698 684.207 282.246H670.207C670.207 285.649 669.491 288.406 668.234 290.702L680.516 297.423ZM684.207 282.246C684.207 276.599 683.121 271.327 680.662 266.672L668.283 273.211C669.47 275.457 670.207 278.388 670.207 282.246H684.207ZM680.687 266.719C678.155 261.836 674.289 258.112 669.346 255.597L662.998 268.075C665.476 269.336 667.145 271.016 668.258 273.164L680.687 266.719ZM669.346 255.597C664.363 253.062 658.499 252.004 652.109 252.004V266.004C657.048 266.004 660.559 266.834 662.998 268.075L669.346 255.597ZM652.109 252.004H627.305V266.004H652.109V252.004ZM620.305 259.004V380H634.305V259.004H620.305ZM627.305 373H600.449V387H627.305V373ZM607.449 380V237.812H593.449V380H607.449ZM686.941 376.786L654.031 313.114L641.594 319.542L674.504 383.214L686.941 376.786ZM647.837 323.328L676.255 323.23L676.206 309.231L647.788 309.328L647.837 323.328ZM670.055 319.526L703.356 381.928L715.707 375.337L682.406 312.935L670.055 319.526ZM702.531 378.633V380H716.531V378.633H702.531ZM709.531 373H680.723V387H709.531V373ZM772.559 352.754L765.762 351.079L765.616 351.671L765.575 352.278L772.559 352.754ZM800.879 237.812V230.812H795.394L794.082 236.138L800.879 237.812ZM816.211 237.812L823.205 237.53L822.934 230.812H816.211V237.812ZM817.188 262.031L823.968 263.771L824.223 262.776L824.182 261.749L817.188 262.031ZM786.914 380V387H792.345L793.694 381.74L786.914 380ZM770.703 380L763.719 379.524L763.21 387H770.703V380ZM754.688 237.812L761.548 236.421L760.41 230.812H754.688V237.812ZM777.93 352.363H784.93V351.66L784.79 350.971L777.93 352.363ZM777.93 380V387H784.93V380H777.93ZM760.254 380L753.427 381.547L754.663 387H760.254V380ZM728.027 237.812V230.812H719.263L721.2 239.36L728.027 237.812ZM846.582 351.875L839.718 350.5L839.589 351.145L839.582 351.802L846.582 351.875ZM869.434 237.812V230.812H863.697L862.57 236.437L869.434 237.812ZM896.191 237.812L903.018 239.36L904.955 230.812H896.191V237.812ZM863.965 380V387H869.556L870.792 381.547L863.965 380ZM846.289 380L839.289 379.927L839.216 387H846.289V380ZM823.535 237.812L830.333 236.143L829.024 230.812H823.535V237.812ZM851.855 353.145L858.842 352.713L858.803 352.085L858.654 351.475L851.855 353.145ZM853.516 380V387H860.962L860.502 379.568L853.516 380ZM837.305 380L830.523 381.733L831.869 387H837.305V380ZM807.129 261.934L800.137 261.594L800.086 262.646L800.347 263.667L807.129 261.934ZM808.301 237.812V230.812H801.633L801.309 237.473L808.301 237.812ZM779.355 354.429L807.676 239.487L794.082 236.138L765.762 351.079L779.355 354.429ZM800.879 244.812H816.211V230.812H800.879V244.812ZM809.217 238.095L810.193 262.313L824.182 261.749L823.205 237.53L809.217 238.095ZM810.407 260.291L780.134 378.26L793.694 381.74L823.968 263.771L810.407 260.291ZM786.914 373H770.703V387H786.914V373ZM777.687 380.476L779.542 353.23L765.575 352.278L763.719 379.524L777.687 380.476ZM747.827 239.204L771.069 353.755L784.79 350.971L761.548 236.421L747.827 239.204ZM770.93 352.363V380H784.93V352.363H770.93ZM777.93 373H760.254V387H777.93V373ZM767.081 378.453L734.854 236.265L721.2 239.36L753.427 381.547L767.081 378.453ZM728.027 244.812H754.688V230.812H728.027V244.812ZM853.446 353.25L876.297 239.188L862.57 236.437L839.718 350.5L853.446 353.25ZM869.434 244.812H896.191V230.812H869.434V244.812ZM889.365 236.265L857.138 378.453L870.792 381.547L903.018 239.36L889.365 236.265ZM863.965 373H846.289V387H863.965V373ZM853.289 380.073L853.582 351.948L839.582 351.802L839.289 379.927L853.289 380.073ZM816.737 239.482L845.057 354.814L858.654 351.475L830.333 236.143L816.737 239.482ZM844.869 353.576L846.529 380.432L860.502 379.568L858.842 352.713L844.869 353.576ZM853.516 373H837.305V387H853.516V373ZM844.087 378.267L813.911 260.2L800.347 263.667L830.523 381.733L844.087 378.267ZM814.121 262.273L815.293 238.152L801.309 237.473L800.137 261.594L814.121 262.273ZM808.301 244.812H823.535V230.812H808.301V244.812ZM975.43 259.395L982.065 261.624L982.307 260.905L982.389 260.15L975.43 259.395ZM934.902 380V387H939.935L941.538 382.23L934.902 380ZM906.484 380L899.927 377.55L896.396 387H906.484V380ZM959.609 237.812V230.812H954.752L953.052 235.363L959.609 237.812ZM977.773 237.812L984.733 238.568L985.575 230.812H977.773V237.812ZM1009.32 380L1002.68 382.239L1004.29 387H1009.32V380ZM968.594 259.395L961.638 260.181L961.722 260.925L961.962 261.634L968.594 259.395ZM966.152 237.812V230.812H958.316L959.197 238.599L966.152 237.812ZM984.414 237.812L990.967 235.351L989.262 230.812H984.414V237.812ZM1037.83 380V387H1047.94L1044.38 377.538L1037.83 380ZM1007.46 327.168H1014.46V320.168H1007.46V327.168ZM1007.46 348.359V355.359H1014.46V348.359H1007.46ZM931.191 348.359H924.191V355.359H931.191V348.359ZM931.191 327.168V320.168H924.191V327.168H931.191ZM968.794 257.165L928.267 377.77L941.538 382.23L982.065 261.624L968.794 257.165ZM934.902 373H906.484V387H934.902V373ZM913.042 382.45L966.167 240.262L953.052 235.363L899.927 377.55L913.042 382.45ZM959.609 244.812H977.773V230.812H959.609V244.812ZM970.814 237.057L968.471 258.639L982.389 260.15L984.733 238.568L970.814 237.057ZM1015.95 377.761L975.226 257.155L961.962 261.634L1002.68 382.239L1015.95 377.761ZM975.549 258.608L973.108 237.026L959.197 238.599L961.638 260.181L975.549 258.608ZM966.152 244.812H984.414V230.812H966.152V244.812ZM977.861 240.274L1031.28 382.462L1044.38 377.538L990.967 235.351L977.861 240.274ZM1037.83 373H1009.32V387H1037.83V373ZM1000.46 327.168V348.359H1014.46V327.168H1000.46ZM1007.46 341.359H931.191V355.359H1007.46V341.359ZM938.191 348.359V327.168H924.191V348.359H938.191ZM931.191 334.168H1007.46V320.168H931.191V334.168ZM1062.48 237.812V230.812H1055.48V237.812H1062.48ZM1141.97 242.695L1144.68 236.242L1141.97 242.695ZM1159.84 257.148L1165.7 253.321L1159.84 257.148ZM1151.15 313.398L1146.89 307.844L1146.87 307.859L1146.85 307.873L1151.15 313.398ZM1134.55 321.992L1132.38 315.338L1131.85 315.509L1131.36 315.76L1134.55 321.992ZM1126.15 326.289V333.289H1127.84L1129.34 332.521L1126.15 326.289ZM1080.55 326.289L1073.55 326.354L1073.61 333.289H1080.55V326.289ZM1080.35 305.098V298.098H1073.29L1073.35 305.162L1080.35 305.098ZM1136.41 294.062L1130.27 290.702L1130.24 290.747L1130.22 290.793L1136.41 294.062ZM1136.5 269.941L1130.29 273.164L1130.3 273.187L1130.31 273.211L1136.5 269.941ZM1089.34 259.004V252.004H1082.34V259.004H1089.34ZM1089.34 380V387H1096.34V380H1089.34ZM1062.48 380H1055.48V387H1062.48V380ZM1142.75 380L1136.54 383.214L1138.49 387H1142.75V380ZM1109.84 316.328L1109.82 309.328L1098.37 309.368L1103.63 319.542L1109.84 316.328ZM1138.26 316.23L1144.44 312.935L1142.45 309.216L1138.24 309.231L1138.26 316.23ZM1171.56 378.633H1178.56V376.882L1177.74 375.337L1171.56 378.633ZM1171.56 380V387H1178.56V380H1171.56ZM1062.48 244.812H1114.14V230.812H1062.48V244.812ZM1114.14 244.812C1124.27 244.812 1132.58 246.341 1139.26 249.149L1144.68 236.242C1135.87 232.539 1125.62 230.812 1114.14 230.812V244.812ZM1139.26 249.149C1145.86 251.921 1150.66 255.885 1153.98 260.976L1165.7 253.321C1160.7 245.651 1153.58 239.98 1144.68 236.242L1139.26 249.149ZM1153.98 260.976C1157.26 265.988 1159.09 272.43 1159.09 280.684H1173.09C1173.09 270.318 1170.76 261.069 1165.7 253.321L1153.98 260.976ZM1159.09 280.684C1159.09 287.222 1157.94 292.52 1155.88 296.785L1168.49 302.863C1171.65 296.322 1173.09 288.859 1173.09 280.684H1159.09ZM1155.88 296.785C1153.75 301.203 1150.77 304.866 1146.89 307.844L1155.41 318.952C1161.04 314.639 1165.41 309.252 1168.49 302.863L1155.88 296.785ZM1146.85 307.873C1142.88 310.963 1138.09 313.473 1132.38 315.338L1136.72 328.646C1143.77 326.345 1150.05 323.126 1155.45 318.924L1146.85 307.873ZM1131.36 315.76L1122.96 320.057L1129.34 332.521L1137.74 328.224L1131.36 315.76ZM1126.15 319.289H1080.55V333.289H1126.15V319.289ZM1087.55 326.225L1087.35 305.033L1073.35 305.162L1073.55 326.354L1087.55 326.225ZM1080.35 312.098H1114.43V298.098H1080.35V312.098ZM1114.43 312.098C1120.75 312.098 1126.56 310.989 1131.51 308.338L1124.9 295.998C1122.55 297.253 1119.19 298.098 1114.43 298.098V312.098ZM1131.51 308.338C1136.31 305.769 1140.08 302.091 1142.6 297.332L1130.22 290.793C1129.08 292.935 1127.39 294.661 1124.9 295.998L1131.51 308.338ZM1142.55 297.423C1145.07 292.818 1146.24 287.698 1146.24 282.246H1132.24C1132.24 285.649 1131.52 288.406 1130.27 290.702L1142.55 297.423ZM1146.24 282.246C1146.24 276.599 1145.15 271.327 1142.69 266.672L1130.31 273.211C1131.5 275.457 1132.24 278.388 1132.24 282.246H1146.24ZM1142.72 266.719C1140.19 261.836 1136.32 258.112 1131.38 255.597L1125.03 268.075C1127.51 269.336 1129.18 271.016 1130.29 273.164L1142.72 266.719ZM1131.38 255.597C1126.39 253.062 1120.53 252.004 1114.14 252.004V266.004C1119.08 266.004 1122.59 266.834 1125.03 268.075L1131.38 255.597ZM1114.14 252.004H1089.34V266.004H1114.14V252.004ZM1082.34 259.004V380H1096.34V259.004H1082.34ZM1089.34 373H1062.48V387H1089.34V373ZM1069.48 380V237.812H1055.48V380H1069.48ZM1148.97 376.786L1116.06 313.114L1103.63 319.542L1136.54 383.214L1148.97 376.786ZM1109.87 323.328L1138.29 323.23L1138.24 309.231L1109.82 309.328L1109.87 323.328ZM1132.09 319.526L1165.39 381.928L1177.74 375.337L1144.44 312.935L1132.09 319.526ZM1164.56 378.633V380H1178.56V378.633H1164.56ZM1171.56 373H1142.75V387H1171.56V373Z" fill="black" mask="url(#path-2-outside-1_1141_6)"/>
<rect x="810" y="150" width="101" height="35" fill="black"/>
</svg>
