<svg width="883" height="315" viewBox="0 0 883 315" fill="none" xmlns="http://www.w3.org/2000/svg">
<path d="M52.5879 48.5459L22.1924 139H0.878906L40.7227 32.3594H54.3457L52.5879 48.5459ZM78.0029 139L47.4609 48.5459L45.6299 32.3594H59.3262L99.3896 139H78.0029ZM76.6113 99.376V115.27H19.4092V99.376H76.6113ZM196.069 32.3594V139H175.854L130.518 65.0254V139H110.376V32.3594H130.518L176.001 106.407V32.3594H196.069ZM236.719 32.3594V139H216.577V32.3594H236.719ZM300.732 32.3594L257.959 84.3613L233.496 110.509L229.907 90.9531L246.899 68.9072L276.05 32.3594H300.732ZM278.32 139L245.142 89.0488L259.57 76.0117L302.271 139H278.32ZM370.972 32.3594H391.113V103.185C391.113 111.339 389.355 118.199 385.84 123.766C382.324 129.283 377.539 133.458 371.484 136.29C365.43 139.073 358.545 140.465 350.83 140.465C343.018 140.465 336.06 139.073 329.956 136.29C323.853 133.458 319.067 129.283 315.601 123.766C312.134 118.199 310.4 111.339 310.4 103.185V32.3594H330.542V103.185C330.542 108.165 331.372 112.242 333.032 115.416C334.692 118.541 337.036 120.86 340.063 122.374C343.091 123.888 346.68 124.645 350.83 124.645C355.029 124.645 358.618 123.888 361.597 122.374C364.624 120.86 366.943 118.541 368.555 115.416C370.166 112.242 370.972 108.165 370.972 103.185V32.3594ZM466.04 111.314C466.04 109.264 465.723 107.433 465.088 105.821C464.502 104.161 463.403 102.672 461.792 101.354C460.229 99.9863 458.008 98.668 455.127 97.3984C452.295 96.0801 448.633 94.7129 444.141 93.2969C439.16 91.7344 434.521 89.9766 430.225 88.0234C425.928 86.0703 422.144 83.7998 418.872 81.2119C415.649 78.624 413.135 75.6455 411.328 72.2764C409.521 68.8584 408.618 64.9033 408.618 60.4111C408.618 56.0166 409.546 52.0127 411.401 48.3994C413.306 44.7861 415.991 41.6855 419.458 39.0977C422.925 36.4609 427.002 34.4346 431.689 33.0186C436.426 31.6025 441.65 30.8945 447.363 30.8945C455.273 30.8945 462.109 32.335 467.871 35.2158C473.682 38.0967 478.174 42.0029 481.348 46.9346C484.521 51.8662 486.108 57.4082 486.108 63.5605H466.04C466.04 60.2402 465.332 57.3105 463.916 54.7715C462.549 52.2324 460.449 50.2305 457.617 48.7656C454.834 47.3008 451.318 46.5684 447.07 46.5684C442.969 46.5684 439.551 47.1787 436.816 48.3994C434.131 49.6201 432.104 51.2803 430.737 53.3799C429.419 55.4795 428.76 57.8232 428.76 60.4111C428.76 62.3643 429.224 64.1221 430.151 65.6846C431.079 67.1982 432.471 68.6387 434.326 70.0059C436.182 71.3242 438.477 72.5693 441.211 73.7412C443.994 74.8643 447.217 75.9873 450.879 77.1104C456.738 78.8682 461.865 80.8213 466.26 82.9697C470.703 85.1182 474.39 87.5596 477.319 90.2939C480.298 93.0283 482.52 96.1045 483.984 99.5225C485.498 102.94 486.255 106.822 486.255 111.168C486.255 115.758 485.352 119.859 483.545 123.473C481.738 127.086 479.15 130.162 475.781 132.701C472.412 135.24 468.359 137.169 463.623 138.487C458.936 139.806 453.687 140.465 447.876 140.465C442.7 140.465 437.573 139.781 432.495 138.414C427.466 136.998 422.9 134.898 418.799 132.115C414.697 129.283 411.426 125.719 408.984 121.422C406.543 117.076 405.322 111.998 405.322 106.188H425.537C425.537 109.557 426.074 112.438 427.148 114.83C428.271 117.174 429.834 119.103 431.836 120.616C433.887 122.081 436.279 123.155 439.014 123.839C441.748 124.522 444.702 124.864 447.876 124.864C451.978 124.864 455.347 124.303 457.983 123.18C460.669 122.008 462.671 120.396 463.989 118.346C465.356 116.295 466.04 113.951 466.04 111.314ZM572.534 76.3779V92.1982H516.431V76.3779H572.534ZM521.924 32.3594V139H501.782V32.3594H521.924ZM587.476 32.3594V139H567.334V32.3594H587.476Z" fill="white"/>
<path d="M93.3838 222.849V264.377C91.8213 266.379 89.3555 268.552 85.9863 270.896C82.666 273.239 78.3203 275.266 72.9492 276.975C67.5781 278.635 60.9863 279.465 53.1738 279.465C46.3867 279.465 40.1855 278.342 34.5703 276.096C28.9551 273.801 24.1211 270.456 20.0684 266.062C16.0156 261.667 12.8906 256.296 10.6934 249.948C8.49609 243.601 7.39746 236.35 7.39746 228.195V221.164C7.39746 213.01 8.42285 205.759 10.4736 199.411C12.5732 193.063 15.5518 187.692 19.4092 183.298C23.3154 178.903 27.9785 175.559 33.3984 173.264C38.8672 170.969 44.9707 169.821 51.709 169.821C60.7422 169.821 68.1641 171.311 73.9746 174.289C79.834 177.268 84.3262 181.369 87.4512 186.594C90.5762 191.77 92.5293 197.727 93.3105 204.465H73.6816C73.1445 200.754 72.0703 197.507 70.459 194.724C68.8477 191.892 66.5527 189.694 63.5742 188.132C60.6445 186.521 56.8359 185.715 52.1484 185.715C48.1934 185.715 44.7021 186.496 41.6748 188.059C38.6475 189.621 36.1084 191.892 34.0576 194.87C32.0068 197.849 30.4443 201.535 29.3701 205.93C28.3447 210.324 27.832 215.354 27.832 221.018V228.195C27.832 233.908 28.418 238.986 29.5898 243.43C30.7617 247.824 32.4463 251.535 34.6436 254.562C36.8896 257.541 39.6484 259.812 42.9199 261.374C46.2402 262.888 50 263.645 54.1992 263.645C58.0078 263.645 61.1572 263.327 63.6475 262.692C66.1865 262.009 68.2129 261.203 69.7266 260.275C71.2402 259.348 72.4121 258.444 73.2422 257.565V237.57H52.0752V222.849H93.3838ZM162.334 187.546L131.938 278H110.625L150.469 171.359H164.092L162.334 187.546ZM187.749 278L157.207 187.546L155.376 171.359H169.072L209.136 278H187.749ZM186.357 238.376V254.27H129.155V238.376H186.357ZM298.374 215.378V231.198H242.271V215.378H298.374ZM247.764 171.359V278H227.622V171.359H247.764ZM313.315 171.359V278H293.174V171.359H313.315ZM385.049 187.546L354.653 278H333.34L373.184 171.359H386.807L385.049 187.546ZM410.464 278L379.922 187.546L378.091 171.359H391.787L431.851 278H410.464ZM409.072 238.376V254.27H351.87V238.376H409.072ZM450.337 171.359H489.082C497.188 171.359 504.146 172.58 509.956 175.021C515.767 177.463 520.234 181.076 523.359 185.861C526.484 190.646 528.047 196.53 528.047 203.513C528.047 209.03 527.07 213.815 525.117 217.868C523.164 221.921 520.405 225.314 516.841 228.049C513.325 230.783 509.175 232.932 504.39 234.494L498.091 237.717H463.887L463.74 221.823H489.302C493.452 221.823 496.895 221.091 499.629 219.626C502.363 218.161 504.414 216.135 505.781 213.547C507.197 210.959 507.905 208.005 507.905 204.685C507.905 201.12 507.222 198.044 505.854 195.456C504.487 192.819 502.412 190.793 499.629 189.377C496.846 187.961 493.33 187.253 489.082 187.253H470.479V278H450.337V171.359ZM510.542 278L485.859 230.246L507.173 230.173L532.148 276.975V278H510.542ZM579.419 257.565L600.659 171.359H612.158L612.891 189.523L590.186 278H578.027L579.419 257.565ZM566.016 171.359L583.447 257.272V278H570.19L546.021 171.359H566.016ZM634.937 256.906L652.075 171.359H672.144L647.974 278H634.717L634.937 256.906ZM617.651 171.359L638.892 257.858L640.137 278H627.979L605.347 189.45L606.226 171.359H617.651ZM731.572 187.546L701.177 278H679.863L719.707 171.359H733.33L731.572 187.546ZM756.987 278L726.445 187.546L724.614 171.359H738.311L778.374 278H756.987ZM755.596 238.376V254.27H698.394V238.376H755.596ZM796.86 171.359H835.605C843.711 171.359 850.669 172.58 856.479 175.021C862.29 177.463 866.758 181.076 869.883 185.861C873.008 190.646 874.57 196.53 874.57 203.513C874.57 209.03 873.594 213.815 871.641 217.868C869.688 221.921 866.929 225.314 863.364 228.049C859.849 230.783 855.698 232.932 850.913 234.494L844.614 237.717H810.41L810.264 221.823H835.825C839.976 221.823 843.418 221.091 846.152 219.626C848.887 218.161 850.938 216.135 852.305 213.547C853.721 210.959 854.429 208.005 854.429 204.685C854.429 201.12 853.745 198.044 852.378 195.456C851.011 192.819 848.936 190.793 846.152 189.377C843.369 187.961 839.854 187.253 835.605 187.253H817.002V278H796.86V171.359ZM857.065 278L832.383 230.246L853.696 230.173L878.672 276.975V278H857.065Z" fill="#C73C00"/>
<rect x="792" y="32" width="50" height="50" rx="8" fill="#C73C00"/>
<rect x="722" y="32" width="50" height="50" rx="8" fill="white"/>
<rect x="652" y="32" width="50" height="50" rx="8" fill="white"/>
<rect x="792" y="89" width="50" height="50" rx="8" fill="#C73C00"/>
<rect x="722" y="89" width="50" height="50" rx="8" fill="#C73C00"/>
<rect x="652" y="89" width="50" height="50" rx="8" fill="#C73C00"/>
</svg>
