<svg width="1112" height="244" viewBox="0 0 1112 244" fill="none" xmlns="http://www.w3.org/2000/svg">
<rect width="222" height="244" rx="20" fill="#00DF8D"/>
<path d="M37.901 211.974L39.279 206.904H34.56L35.34 203.953H40.059L40.865 200.898H36.146L36.952 197.96H41.658L42.919 193.28H45.974L44.7 197.96H47.898L49.159 193.28H52.214L50.94 197.96H55.659L54.866 200.898H50.16L49.328 203.953H54.047L53.254 206.904H48.548L47.196 211.974H44.141L45.493 206.904H42.308L40.956 211.974H37.901ZM43.114 203.953H46.286L47.105 200.898H43.92L43.114 203.953ZM65.7767 212.39C64.4507 212.39 63.2807 212.108 62.2667 211.545C61.2527 210.973 60.4597 210.18 59.8877 209.166C59.3243 208.152 59.0427 206.982 59.0427 205.656V199.624C59.0427 198.298 59.3243 197.128 59.8877 196.114C60.4597 195.1 61.2527 194.311 62.2667 193.748C63.2807 193.176 64.4507 192.89 65.7767 192.89C67.1027 192.89 68.2683 193.176 69.2737 193.748C70.2877 194.311 71.0807 195.1 71.6527 196.114C72.2247 197.128 72.5107 198.298 72.5107 199.624V205.656C72.5107 206.982 72.2247 208.152 71.6527 209.166C71.0807 210.18 70.2877 210.973 69.2737 211.545C68.2683 212.108 67.1027 212.39 65.7767 212.39ZM65.7767 209.413C66.4353 209.413 67.0333 209.257 67.5707 208.945C68.108 208.624 68.5327 208.2 68.8447 207.671C69.1567 207.134 69.3127 206.536 69.3127 205.877V199.39C69.3127 198.723 69.1567 198.125 68.8447 197.596C68.5327 197.059 68.108 196.634 67.5707 196.322C67.0333 196.001 66.4353 195.841 65.7767 195.841C65.118 195.841 64.52 196.001 63.9827 196.322C63.4453 196.634 63.0207 197.059 62.7087 197.596C62.3967 198.125 62.2407 198.723 62.2407 199.39V205.877C62.2407 206.536 62.3967 207.134 62.7087 207.671C63.0207 208.2 63.4453 208.624 63.9827 208.945C64.52 209.257 65.118 209.413 65.7767 209.413ZM82.8899 212.39C81.5639 212.39 80.3939 212.108 79.3799 211.545C78.3659 210.973 77.5729 210.18 77.0009 209.166C76.4376 208.152 76.1559 206.982 76.1559 205.656V199.624C76.1559 198.298 76.4376 197.128 77.0009 196.114C77.5729 195.1 78.3659 194.311 79.3799 193.748C80.3939 193.176 81.5639 192.89 82.8899 192.89C84.2159 192.89 85.3816 193.176 86.3869 193.748C87.4009 194.311 88.1939 195.1 88.7659 196.114C89.3379 197.128 89.6239 198.298 89.6239 199.624V205.656C89.6239 206.982 89.3379 208.152 88.7659 209.166C88.1939 210.18 87.4009 210.973 86.3869 211.545C85.3816 212.108 84.2159 212.39 82.8899 212.39ZM82.8899 209.413C83.5486 209.413 84.1466 209.257 84.6839 208.945C85.2213 208.624 85.6459 208.2 85.9579 207.671C86.2699 207.134 86.4259 206.536 86.4259 205.877V199.39C86.4259 198.723 86.2699 198.125 85.9579 197.596C85.6459 197.059 85.2213 196.634 84.6839 196.322C84.1466 196.001 83.5486 195.841 82.8899 195.841C82.2313 195.841 81.6333 196.001 81.0959 196.322C80.5586 196.634 80.1339 197.059 79.8219 197.596C79.5099 198.125 79.3539 198.723 79.3539 199.39V205.877C79.3539 206.536 79.5099 207.134 79.8219 207.671C80.1339 208.2 80.5586 208.624 81.0959 208.945C81.6333 209.257 82.2313 209.413 82.8899 209.413ZM93.2692 212V193.28H99.2362C99.3922 193.28 99.6999 193.284 100.159 193.293C100.627 193.302 101.078 193.332 101.511 193.384C102.993 193.575 104.246 194.103 105.268 194.97C106.3 195.828 107.08 196.924 107.608 198.259C108.137 199.594 108.401 201.054 108.401 202.64C108.401 204.226 108.137 205.686 107.608 207.021C107.08 208.356 106.3 209.456 105.268 210.323C104.246 211.181 102.993 211.705 101.511 211.896C101.087 211.948 100.64 211.978 100.172 211.987C99.7042 211.996 99.3922 212 99.2362 212H93.2692ZM96.4542 209.049H99.2362C99.4962 209.049 99.8256 209.04 100.224 209.023C100.632 209.006 100.991 208.967 101.303 208.906C102.187 208.741 102.907 208.347 103.461 207.723C104.016 207.099 104.423 206.341 104.683 205.448C104.952 204.555 105.086 203.619 105.086 202.64C105.086 201.626 104.952 200.673 104.683 199.78C104.415 198.887 103.999 198.138 103.435 197.531C102.881 196.924 102.17 196.539 101.303 196.374C100.991 196.305 100.632 196.266 100.224 196.257C99.8256 196.24 99.4962 196.231 99.2362 196.231H96.4542V209.049ZM111.474 212V193.28H122.745V196.413H114.607V201.08H121.185V204.2H114.607V212H111.474ZM131.207 212.39C129.967 212.39 128.867 212.139 127.905 211.636C126.943 211.133 126.189 210.436 125.643 209.543C125.097 208.65 124.824 207.628 124.824 206.475C124.824 205.444 125.062 204.486 125.539 203.602C126.015 202.718 126.713 202.012 127.632 201.483L127.567 202.484C126.847 201.938 126.288 201.31 125.89 200.599C125.5 199.88 125.305 199.074 125.305 198.181C125.305 197.106 125.556 196.175 126.059 195.386C126.57 194.597 127.268 193.986 128.152 193.553C129.036 193.111 130.054 192.89 131.207 192.89C132.359 192.89 133.378 193.111 134.262 193.553C135.154 193.986 135.852 194.597 136.355 195.386C136.866 196.175 137.122 197.106 137.122 198.181C137.122 199.074 136.931 199.875 136.55 200.586C136.177 201.297 135.609 201.938 134.847 202.51L134.834 201.496C135.735 202.007 136.424 202.709 136.901 203.602C137.386 204.486 137.629 205.444 137.629 206.475C137.629 207.628 137.351 208.65 136.797 209.543C136.251 210.436 135.492 211.133 134.522 211.636C133.56 212.139 132.455 212.39 131.207 212.39ZM131.207 209.439C132.125 209.439 132.871 209.188 133.443 208.685C134.023 208.182 134.314 207.446 134.314 206.475C134.314 205.504 134.028 204.768 133.456 204.265C132.884 203.754 132.134 203.498 131.207 203.498C130.288 203.498 129.547 203.754 128.984 204.265C128.42 204.768 128.139 205.504 128.139 206.475C128.139 207.446 128.42 208.182 128.984 208.685C129.547 209.188 130.288 209.439 131.207 209.439ZM131.207 200.521C131.978 200.521 132.602 200.33 133.079 199.949C133.564 199.559 133.807 198.97 133.807 198.181C133.807 197.392 133.564 196.807 133.079 196.426C132.602 196.036 131.978 195.841 131.207 195.841C130.444 195.841 129.82 196.036 129.335 196.426C128.858 196.807 128.62 197.392 128.62 198.181C128.62 198.97 128.858 199.559 129.335 199.949C129.82 200.33 130.444 200.521 131.207 200.521ZM141.004 212V193.28H146.971C147.127 193.28 147.434 193.284 147.894 193.293C148.362 193.302 148.812 193.332 149.246 193.384C150.728 193.575 151.98 194.103 153.003 194.97C154.034 195.828 154.814 196.924 155.343 198.259C155.871 199.594 156.136 201.054 156.136 202.64C156.136 204.226 155.871 205.686 155.343 207.021C154.814 208.356 154.034 209.456 153.003 210.323C151.98 211.181 150.728 211.705 149.246 211.896C148.821 211.948 148.375 211.978 147.907 211.987C147.439 211.996 147.127 212 146.971 212H141.004ZM144.189 209.049H146.971C147.231 209.049 147.56 209.04 147.959 209.023C148.366 209.006 148.726 208.967 149.038 208.906C149.922 208.741 150.641 208.347 151.196 207.723C151.75 207.099 152.158 206.341 152.418 205.448C152.686 204.555 152.821 203.619 152.821 202.64C152.821 201.626 152.686 200.673 152.418 199.78C152.149 198.887 151.733 198.138 151.17 197.531C150.615 196.924 149.904 196.539 149.038 196.374C148.726 196.305 148.366 196.266 147.959 196.257C147.56 196.24 147.231 196.231 146.971 196.231H144.189V209.049Z" fill="#2E333D"/>
<path d="M34.12 176V164.48H38.568C38.68 164.48 38.8053 164.485 38.944 164.496C39.088 164.501 39.232 164.517 39.376 164.544C39.9787 164.635 40.488 164.845 40.904 165.176C41.3253 165.501 41.6427 165.912 41.856 166.408C42.0747 166.904 42.184 167.453 42.184 168.056C42.184 168.653 42.0747 169.2 41.856 169.696C41.6373 170.192 41.3173 170.605 40.896 170.936C40.48 171.261 39.9733 171.469 39.376 171.56C39.232 171.581 39.088 171.597 38.944 171.608C38.8053 171.619 38.68 171.624 38.568 171.624H35.296V176H34.12ZM35.296 170.504H38.536C38.632 170.504 38.744 170.499 38.872 170.488C39 170.477 39.1253 170.459 39.248 170.432C39.6427 170.347 39.9653 170.184 40.216 169.944C40.472 169.704 40.6613 169.419 40.784 169.088C40.912 168.757 40.976 168.413 40.976 168.056C40.976 167.699 40.912 167.355 40.784 167.024C40.6613 166.688 40.472 166.4 40.216 166.16C39.9653 165.92 39.6427 165.757 39.248 165.672C39.1253 165.645 39 165.629 38.872 165.624C38.744 165.613 38.632 165.608 38.536 165.608H35.296V170.504ZM43.7763 176V167.36H44.8323V169.44L44.6243 169.168C44.7203 168.912 44.8456 168.677 45.0003 168.464C45.1549 168.245 45.3229 168.067 45.5043 167.928C45.7283 167.731 45.9896 167.581 46.2883 167.48C46.5869 167.373 46.8883 167.312 47.1923 167.296C47.4963 167.275 47.7736 167.296 48.0243 167.36V168.464C47.7096 168.384 47.3656 168.365 46.9923 168.408C46.6189 168.451 46.2749 168.6 45.9603 168.856C45.6723 169.08 45.4563 169.349 45.3123 169.664C45.1683 169.973 45.0723 170.304 45.0243 170.656C44.9763 171.003 44.9523 171.347 44.9523 171.688V176H43.7763ZM49.7019 165.72V164.4H50.8779V165.72H49.7019ZM49.7019 176V167.36H50.8779V176H49.7019ZM63.5803 176L63.5883 170.328C63.5883 169.661 63.4016 169.139 63.0283 168.76C62.6603 168.376 62.1909 168.184 61.6203 168.184C61.2949 168.184 60.9776 168.259 60.6683 168.408C60.3589 168.557 60.1029 168.797 59.9003 169.128C59.7029 169.459 59.6043 169.891 59.6043 170.424L58.9083 170.224C58.8923 169.605 59.0123 169.064 59.2683 168.6C59.5296 168.136 59.8869 167.776 60.3403 167.52C60.7989 167.259 61.3163 167.128 61.8923 167.128C62.7616 167.128 63.4576 167.397 63.9803 167.936C64.5029 168.469 64.7643 169.192 64.7643 170.104L64.7563 176H63.5803ZM53.2683 176V167.36H54.3243V169.488H54.4523V176H53.2683ZM58.4363 176L58.4443 170.408C58.4443 169.72 58.2603 169.179 57.8923 168.784C57.5296 168.384 57.0496 168.184 56.4523 168.184C55.8549 168.184 55.3723 168.389 55.0043 168.8C54.6363 169.205 54.4523 169.747 54.4523 170.424L53.7483 170.04C53.7483 169.485 53.8789 168.989 54.1403 168.552C54.4016 168.109 54.7589 167.763 55.2123 167.512C55.6656 167.256 56.1803 167.128 56.7563 167.128C57.3056 167.128 57.7936 167.245 58.2203 167.48C58.6523 167.715 58.9909 168.056 59.2363 168.504C59.4816 168.952 59.6043 169.496 59.6043 170.136L59.5963 176H58.4363ZM69.3108 176.24C68.6601 176.24 68.1134 176.123 67.6708 175.888C67.2334 175.653 66.9054 175.341 66.6868 174.952C66.4681 174.563 66.3588 174.139 66.3588 173.68C66.3588 173.211 66.4521 172.811 66.6388 172.48C66.8308 172.144 67.0894 171.869 67.4148 171.656C67.7454 171.443 68.1268 171.28 68.5588 171.168C68.9961 171.061 69.4788 170.968 70.0068 170.888C70.5401 170.803 71.0601 170.731 71.5668 170.672C72.0788 170.608 72.5268 170.547 72.9108 170.488L72.4948 170.744C72.5108 169.891 72.3454 169.259 71.9988 168.848C71.6521 168.437 71.0494 168.232 70.1908 168.232C69.5988 168.232 69.0974 168.365 68.6868 168.632C68.2814 168.899 67.9961 169.32 67.8307 169.896L66.6868 169.56C66.8841 168.787 67.2814 168.187 67.8788 167.76C68.4761 167.333 69.2521 167.12 70.2068 167.12C70.9961 167.12 71.6654 167.269 72.2148 167.568C72.7694 167.861 73.1614 168.288 73.3908 168.848C73.4974 169.099 73.5668 169.379 73.5988 169.688C73.6308 169.997 73.6468 170.312 73.6468 170.632V176H72.5988V173.832L72.9028 173.96C72.6094 174.701 72.1534 175.267 71.5348 175.656C70.9161 176.045 70.1748 176.24 69.3108 176.24ZM69.4468 175.224C69.9961 175.224 70.4761 175.125 70.8868 174.928C71.2974 174.731 71.6281 174.461 71.8788 174.12C72.1294 173.773 72.2921 173.384 72.3668 172.952C72.4308 172.675 72.4654 172.371 72.4708 172.04C72.4761 171.704 72.4788 171.453 72.4788 171.288L72.9268 171.52C72.5268 171.573 72.0921 171.627 71.6228 171.68C71.1588 171.733 70.7001 171.795 70.2468 171.864C69.7988 171.933 69.3934 172.016 69.0308 172.112C68.7854 172.181 68.5481 172.28 68.3188 172.408C68.0894 172.531 67.9001 172.696 67.7508 172.904C67.6068 173.112 67.5348 173.371 67.5348 173.68C67.5348 173.931 67.5961 174.173 67.7188 174.408C67.8468 174.643 68.0494 174.837 68.3268 174.992C68.6094 175.147 68.9828 175.224 69.4468 175.224ZM75.7294 176V167.36H76.7854V169.44L76.5774 169.168C76.6734 168.912 76.7987 168.677 76.9534 168.464C77.108 168.245 77.276 168.067 77.4574 167.928C77.6814 167.731 77.9427 167.581 78.2414 167.48C78.54 167.373 78.8414 167.312 79.1454 167.296C79.4494 167.275 79.7267 167.296 79.9774 167.36V168.464C79.6627 168.384 79.3187 168.365 78.9454 168.408C78.572 168.451 78.228 168.6 77.9134 168.856C77.6254 169.08 77.4094 169.349 77.2654 169.664C77.1214 169.973 77.0254 170.304 76.9774 170.656C76.9294 171.003 76.9054 171.347 76.9054 171.688V176H75.7294ZM82.6176 179.84L84.2896 175.304L84.3136 176.648L80.5296 167.36H81.7776L84.8816 175.128H84.3696L87.2336 167.36H88.4336L83.7936 179.84H82.6176ZM97.6903 176.24C96.5436 176.24 95.5756 175.987 94.7863 175.48C93.9969 174.968 93.3996 174.261 92.9943 173.36C92.5889 172.459 92.3863 171.419 92.3863 170.24C92.3863 169.061 92.5889 168.021 92.9943 167.12C93.3996 166.219 93.9969 165.515 94.7863 165.008C95.5756 164.496 96.5436 164.24 97.6903 164.24C99.0289 164.24 100.122 164.584 100.97 165.272C101.818 165.955 102.4 166.872 102.714 168.024L101.514 168.336C101.269 167.424 100.829 166.701 100.194 166.168C99.5596 165.635 98.7249 165.368 97.6903 165.368C96.7889 165.368 96.0396 165.573 95.4423 165.984C94.8449 166.395 94.3943 166.968 94.0903 167.704C93.7916 168.435 93.6369 169.28 93.6263 170.24C93.6209 171.2 93.7676 172.045 94.0663 172.776C94.3703 173.507 94.8236 174.08 95.4263 174.496C96.0343 174.907 96.7889 175.112 97.6903 175.112C98.7249 175.112 99.5596 174.845 100.194 174.312C100.829 173.773 101.269 173.051 101.514 172.144L102.714 172.456C102.4 173.608 101.818 174.528 100.97 175.216C100.122 175.899 99.0289 176.24 97.6903 176.24ZM108.087 176.24C107.229 176.24 106.495 176.045 105.887 175.656C105.279 175.267 104.813 174.728 104.487 174.04C104.162 173.352 103.999 172.563 103.999 171.672C103.999 170.765 104.165 169.971 104.495 169.288C104.826 168.605 105.295 168.075 105.903 167.696C106.517 167.312 107.245 167.12 108.087 167.12C108.951 167.12 109.687 167.315 110.295 167.704C110.909 168.088 111.375 168.624 111.695 169.312C112.021 169.995 112.183 170.781 112.183 171.672C112.183 172.579 112.021 173.376 111.695 174.064C111.37 174.747 110.901 175.28 110.287 175.664C109.674 176.048 108.941 176.24 108.087 176.24ZM108.087 175.112C109.047 175.112 109.762 174.795 110.231 174.16C110.701 173.52 110.935 172.691 110.935 171.672C110.935 170.627 110.698 169.795 110.223 169.176C109.754 168.557 109.042 168.248 108.087 168.248C107.442 168.248 106.909 168.395 106.487 168.688C106.071 168.976 105.759 169.379 105.551 169.896C105.349 170.408 105.247 171 105.247 171.672C105.247 172.712 105.487 173.547 105.967 174.176C106.447 174.8 107.154 175.112 108.087 175.112ZM114.108 176V164.24H115.284V176H114.108ZM121.291 176.24C120.432 176.24 119.699 176.045 119.091 175.656C118.483 175.267 118.016 174.728 117.691 174.04C117.365 173.352 117.203 172.563 117.203 171.672C117.203 170.765 117.368 169.971 117.699 169.288C118.029 168.605 118.499 168.075 119.107 167.696C119.72 167.312 120.448 167.12 121.291 167.12C122.155 167.12 122.891 167.315 123.499 167.704C124.112 168.088 124.579 168.624 124.899 169.312C125.224 169.995 125.387 170.781 125.387 171.672C125.387 172.579 125.224 173.376 124.899 174.064C124.573 174.747 124.104 175.28 123.491 175.664C122.877 176.048 122.144 176.24 121.291 176.24ZM121.291 175.112C122.251 175.112 122.965 174.795 123.435 174.16C123.904 173.52 124.139 172.691 124.139 171.672C124.139 170.627 123.901 169.795 123.427 169.176C122.957 168.557 122.245 168.248 121.291 168.248C120.645 168.248 120.112 168.395 119.691 168.688C119.275 168.976 118.963 169.379 118.755 169.896C118.552 170.408 118.451 171 118.451 171.672C118.451 172.712 118.691 173.547 119.171 174.176C119.651 174.8 120.357 175.112 121.291 175.112ZM127.151 176V167.36H128.207V169.44L127.999 169.168C128.095 168.912 128.221 168.677 128.375 168.464C128.53 168.245 128.698 168.067 128.879 167.928C129.103 167.731 129.365 167.581 129.663 167.48C129.962 167.373 130.263 167.312 130.567 167.296C130.871 167.275 131.149 167.296 131.399 167.36V168.464C131.085 168.384 130.741 168.365 130.367 168.408C129.994 168.451 129.65 168.6 129.335 168.856C129.047 169.08 128.831 169.349 128.687 169.664C128.543 169.973 128.447 170.304 128.399 170.656C128.351 171.003 128.327 171.347 128.327 171.688V176H127.151Z" fill="#2E333D"/>
<rect x="232.4" width="222" height="244" rx="20" fill="#2031AE"/>
<path d="M271.301 211.974L272.679 206.904H267.96L268.74 203.953H273.459L274.265 200.898H269.546L270.352 197.96H275.058L276.319 193.28H279.374L278.1 197.96H281.298L282.559 193.28H285.614L284.34 197.96H289.059L288.266 200.898H283.56L282.728 203.953H287.447L286.654 206.904H281.948L280.596 211.974H277.541L278.893 206.904H275.708L274.356 211.974H271.301ZM276.514 203.953H279.686L280.505 200.898H277.32L276.514 203.953ZM291.923 211.974V209.244L299.931 202.107C300.555 201.552 300.988 201.028 301.231 200.534C301.473 200.04 301.595 199.563 301.595 199.104C301.595 198.48 301.46 197.925 301.192 197.44C300.923 196.946 300.55 196.556 300.074 196.27C299.606 195.984 299.064 195.841 298.449 195.841C297.799 195.841 297.222 195.993 296.72 196.296C296.226 196.591 295.84 196.985 295.563 197.479C295.285 197.973 295.155 198.506 295.173 199.078H291.949C291.949 197.83 292.226 196.742 292.781 195.815C293.344 194.888 294.115 194.168 295.095 193.657C296.083 193.146 297.222 192.89 298.514 192.89C299.71 192.89 300.784 193.159 301.738 193.696C302.691 194.225 303.441 194.961 303.987 195.906C304.533 196.842 304.806 197.921 304.806 199.143C304.806 200.036 304.684 200.785 304.442 201.392C304.199 201.999 303.835 202.558 303.35 203.069C302.873 203.58 302.279 204.148 301.569 204.772L295.888 209.803L295.602 209.023H304.806V211.974H291.923ZM314.665 212.39C313.339 212.39 312.169 212.108 311.155 211.545C310.141 210.973 309.348 210.18 308.776 209.166C308.213 208.152 307.931 206.982 307.931 205.656V199.624C307.931 198.298 308.213 197.128 308.776 196.114C309.348 195.1 310.141 194.311 311.155 193.748C312.169 193.176 313.339 192.89 314.665 192.89C315.991 192.89 317.157 193.176 318.162 193.748C319.176 194.311 319.969 195.1 320.541 196.114C321.113 197.128 321.399 198.298 321.399 199.624V205.656C321.399 206.982 321.113 208.152 320.541 209.166C319.969 210.18 319.176 210.973 318.162 211.545C317.157 212.108 315.991 212.39 314.665 212.39ZM314.665 209.413C315.324 209.413 315.922 209.257 316.459 208.945C316.996 208.624 317.421 208.2 317.733 207.671C318.045 207.134 318.201 206.536 318.201 205.877V199.39C318.201 198.723 318.045 198.125 317.733 197.596C317.421 197.059 316.996 196.634 316.459 196.322C315.922 196.001 315.324 195.841 314.665 195.841C314.006 195.841 313.408 196.001 312.871 196.322C312.334 196.634 311.909 197.059 311.597 197.596C311.285 198.125 311.129 198.723 311.129 199.39V205.877C311.129 206.536 311.285 207.134 311.597 207.671C311.909 208.2 312.334 208.624 312.871 208.945C313.408 209.257 314.006 209.413 314.665 209.413ZM330.4 212.351C329.464 212.351 328.58 212.169 327.748 211.805C326.916 211.441 326.193 210.925 325.577 210.258C324.971 209.591 324.533 208.802 324.264 207.892L327.293 207.073C327.51 207.818 327.904 208.395 328.476 208.802C329.057 209.201 329.694 209.396 330.387 209.387C331.003 209.387 331.553 209.244 332.038 208.958C332.524 208.672 332.905 208.286 333.182 207.801C333.46 207.307 333.598 206.757 333.598 206.15C333.598 205.223 333.299 204.447 332.701 203.823C332.103 203.199 331.332 202.887 330.387 202.887C330.101 202.887 329.82 202.926 329.542 203.004C329.274 203.082 329.014 203.19 328.762 203.329L327.332 200.859L333.624 195.477L333.897 196.231H324.992V193.28H336.471V196.244L331.414 201.106L331.388 200.183C332.524 200.261 333.49 200.577 334.287 201.132C335.093 201.687 335.709 202.402 336.133 203.277C336.567 204.152 336.783 205.11 336.783 206.15C336.783 207.329 336.493 208.386 335.912 209.322C335.34 210.258 334.569 210.999 333.598 211.545C332.636 212.082 331.57 212.351 330.4 212.351ZM343.402 212V196.699L339.892 198.844V195.386L343.402 193.28H346.6V212H343.402ZM350.252 212L356.154 193.28H360.743L366.645 212H363.421L358.065 195.204H358.767L353.476 212H350.252ZM353.541 207.944V205.019H363.369V207.944H353.541ZM368.995 212V193.28H381.085V196.218H372.128V200.833H379.525V203.771H372.128V209.062H381.085V212H368.995Z" fill="white"/>
<path d="M267.52 176V164.48H271.968C272.08 164.48 272.205 164.485 272.344 164.496C272.488 164.501 272.632 164.517 272.776 164.544C273.379 164.635 273.888 164.845 274.304 165.176C274.725 165.501 275.043 165.912 275.256 166.408C275.475 166.904 275.584 167.453 275.584 168.056C275.584 168.653 275.475 169.2 275.256 169.696C275.037 170.192 274.717 170.605 274.296 170.936C273.88 171.261 273.373 171.469 272.776 171.56C272.632 171.581 272.488 171.597 272.344 171.608C272.205 171.619 272.08 171.624 271.968 171.624H268.696V176H267.52ZM268.696 170.504H271.936C272.032 170.504 272.144 170.499 272.272 170.488C272.4 170.477 272.525 170.459 272.648 170.432C273.043 170.347 273.365 170.184 273.616 169.944C273.872 169.704 274.061 169.419 274.184 169.088C274.312 168.757 274.376 168.413 274.376 168.056C274.376 167.699 274.312 167.355 274.184 167.024C274.061 166.688 273.872 166.4 273.616 166.16C273.365 165.92 273.043 165.757 272.648 165.672C272.525 165.645 272.4 165.629 272.272 165.624C272.144 165.613 272.032 165.608 271.936 165.608H268.696V170.504ZM277.176 176V167.36H278.232V169.44L278.024 169.168C278.12 168.912 278.246 168.677 278.4 168.464C278.555 168.245 278.723 168.067 278.904 167.928C279.128 167.731 279.39 167.581 279.688 167.48C279.987 167.373 280.288 167.312 280.592 167.296C280.896 167.275 281.174 167.296 281.424 167.36V168.464C281.11 168.384 280.766 168.365 280.392 168.408C280.019 168.451 279.675 168.6 279.36 168.856C279.072 169.08 278.856 169.349 278.712 169.664C278.568 169.973 278.472 170.304 278.424 170.656C278.376 171.003 278.352 171.347 278.352 171.688V176H277.176ZM283.102 165.72V164.4H284.278V165.72H283.102ZM283.102 176V167.36H284.278V176H283.102ZM296.98 176L296.988 170.328C296.988 169.661 296.802 169.139 296.428 168.76C296.06 168.376 295.591 168.184 295.02 168.184C294.695 168.184 294.378 168.259 294.068 168.408C293.759 168.557 293.503 168.797 293.3 169.128C293.103 169.459 293.004 169.891 293.004 170.424L292.308 170.224C292.292 169.605 292.412 169.064 292.668 168.6C292.93 168.136 293.287 167.776 293.74 167.52C294.199 167.259 294.716 167.128 295.292 167.128C296.162 167.128 296.858 167.397 297.38 167.936C297.903 168.469 298.164 169.192 298.164 170.104L298.156 176H296.98ZM286.668 176V167.36H287.724V169.488H287.852V176H286.668ZM291.836 176L291.844 170.408C291.844 169.72 291.66 169.179 291.292 168.784C290.93 168.384 290.45 168.184 289.852 168.184C289.255 168.184 288.772 168.389 288.404 168.8C288.036 169.205 287.852 169.747 287.852 170.424L287.148 170.04C287.148 169.485 287.279 168.989 287.54 168.552C287.802 168.109 288.159 167.763 288.612 167.512C289.066 167.256 289.58 167.128 290.156 167.128C290.706 167.128 291.194 167.245 291.62 167.48C292.052 167.715 292.391 168.056 292.636 168.504C292.882 168.952 293.004 169.496 293.004 170.136L292.996 176H291.836ZM302.711 176.24C302.06 176.24 301.513 176.123 301.071 175.888C300.633 175.653 300.305 175.341 300.087 174.952C299.868 174.563 299.759 174.139 299.759 173.68C299.759 173.211 299.852 172.811 300.039 172.48C300.231 172.144 300.489 171.869 300.815 171.656C301.145 171.443 301.527 171.28 301.959 171.168C302.396 171.061 302.879 170.968 303.407 170.888C303.94 170.803 304.46 170.731 304.967 170.672C305.479 170.608 305.927 170.547 306.311 170.488L305.895 170.744C305.911 169.891 305.745 169.259 305.399 168.848C305.052 168.437 304.449 168.232 303.591 168.232C302.999 168.232 302.497 168.365 302.087 168.632C301.681 168.899 301.396 169.32 301.231 169.896L300.087 169.56C300.284 168.787 300.681 168.187 301.279 167.76C301.876 167.333 302.652 167.12 303.607 167.12C304.396 167.12 305.065 167.269 305.615 167.568C306.169 167.861 306.561 168.288 306.791 168.848C306.897 169.099 306.967 169.379 306.999 169.688C307.031 169.997 307.047 170.312 307.047 170.632V176H305.999V173.832L306.303 173.96C306.009 174.701 305.553 175.267 304.935 175.656C304.316 176.045 303.575 176.24 302.711 176.24ZM302.847 175.224C303.396 175.224 303.876 175.125 304.287 174.928C304.697 174.731 305.028 174.461 305.279 174.12C305.529 173.773 305.692 173.384 305.767 172.952C305.831 172.675 305.865 172.371 305.871 172.04C305.876 171.704 305.879 171.453 305.879 171.288L306.327 171.52C305.927 171.573 305.492 171.627 305.023 171.68C304.559 171.733 304.1 171.795 303.647 171.864C303.199 171.933 302.793 172.016 302.431 172.112C302.185 172.181 301.948 172.28 301.719 172.408C301.489 172.531 301.3 172.696 301.151 172.904C301.007 173.112 300.935 173.371 300.935 173.68C300.935 173.931 300.996 174.173 301.119 174.408C301.247 174.643 301.449 174.837 301.727 174.992C302.009 175.147 302.383 175.224 302.847 175.224ZM309.129 176V167.36H310.185V169.44L309.977 169.168C310.073 168.912 310.199 168.677 310.353 168.464C310.508 168.245 310.676 168.067 310.857 167.928C311.081 167.731 311.343 167.581 311.641 167.48C311.94 167.373 312.241 167.312 312.545 167.296C312.849 167.275 313.127 167.296 313.377 167.36V168.464C313.063 168.384 312.719 168.365 312.345 168.408C311.972 168.451 311.628 168.6 311.313 168.856C311.025 169.08 310.809 169.349 310.665 169.664C310.521 169.973 310.425 170.304 310.377 170.656C310.329 171.003 310.305 171.347 310.305 171.688V176H309.129ZM316.018 179.84L317.69 175.304L317.714 176.648L313.93 167.36H315.178L318.282 175.128H317.77L320.634 167.36H321.834L317.194 179.84H316.018ZM331.09 176.24C329.944 176.24 328.976 175.987 328.186 175.48C327.397 174.968 326.8 174.261 326.394 173.36C325.989 172.459 325.786 171.419 325.786 170.24C325.786 169.061 325.989 168.021 326.394 167.12C326.8 166.219 327.397 165.515 328.186 165.008C328.976 164.496 329.944 164.24 331.09 164.24C332.429 164.24 333.522 164.584 334.37 165.272C335.218 165.955 335.8 166.872 336.114 168.024L334.914 168.336C334.669 167.424 334.229 166.701 333.594 166.168C332.96 165.635 332.125 165.368 331.09 165.368C330.189 165.368 329.44 165.573 328.842 165.984C328.245 166.395 327.794 166.968 327.49 167.704C327.192 168.435 327.037 169.28 327.026 170.24C327.021 171.2 327.168 172.045 327.466 172.776C327.77 173.507 328.224 174.08 328.826 174.496C329.434 174.907 330.189 175.112 331.09 175.112C332.125 175.112 332.96 174.845 333.594 174.312C334.229 173.773 334.669 173.051 334.914 172.144L336.114 172.456C335.8 173.608 335.218 174.528 334.37 175.216C333.522 175.899 332.429 176.24 331.09 176.24ZM341.487 176.24C340.629 176.24 339.895 176.045 339.287 175.656C338.679 175.267 338.213 174.728 337.887 174.04C337.562 173.352 337.399 172.563 337.399 171.672C337.399 170.765 337.565 169.971 337.895 169.288C338.226 168.605 338.695 168.075 339.303 167.696C339.917 167.312 340.645 167.12 341.487 167.12C342.351 167.12 343.087 167.315 343.695 167.704C344.309 168.088 344.775 168.624 345.095 169.312C345.421 169.995 345.583 170.781 345.583 171.672C345.583 172.579 345.421 173.376 345.095 174.064C344.77 174.747 344.301 175.28 343.687 175.664C343.074 176.048 342.341 176.24 341.487 176.24ZM341.487 175.112C342.447 175.112 343.162 174.795 343.631 174.16C344.101 173.52 344.335 172.691 344.335 171.672C344.335 170.627 344.098 169.795 343.623 169.176C343.154 168.557 342.442 168.248 341.487 168.248C340.842 168.248 340.309 168.395 339.887 168.688C339.471 168.976 339.159 169.379 338.951 169.896C338.749 170.408 338.647 171 338.647 171.672C338.647 172.712 338.887 173.547 339.367 174.176C339.847 174.8 340.554 175.112 341.487 175.112ZM347.508 176V164.24H348.684V176H347.508ZM354.69 176.24C353.832 176.24 353.098 176.045 352.49 175.656C351.882 175.267 351.416 174.728 351.09 174.04C350.765 173.352 350.602 172.563 350.602 171.672C350.602 170.765 350.768 169.971 351.098 169.288C351.429 168.605 351.898 168.075 352.506 167.696C353.12 167.312 353.848 167.12 354.69 167.12C355.554 167.12 356.29 167.315 356.898 167.704C357.512 168.088 357.978 168.624 358.298 169.312C358.624 169.995 358.786 170.781 358.786 171.672C358.786 172.579 358.624 173.376 358.298 174.064C357.973 174.747 357.504 175.28 356.89 175.664C356.277 176.048 355.544 176.24 354.69 176.24ZM354.69 175.112C355.65 175.112 356.365 174.795 356.834 174.16C357.304 173.52 357.538 172.691 357.538 171.672C357.538 170.627 357.301 169.795 356.826 169.176C356.357 168.557 355.645 168.248 354.69 168.248C354.045 168.248 353.512 168.395 353.09 168.688C352.674 168.976 352.362 169.379 352.154 169.896C351.952 170.408 351.85 171 351.85 171.672C351.85 172.712 352.09 173.547 352.57 174.176C353.05 174.8 353.757 175.112 354.69 175.112ZM360.551 176V167.36H361.607V169.44L361.399 169.168C361.495 168.912 361.621 168.677 361.775 168.464C361.93 168.245 362.098 168.067 362.279 167.928C362.503 167.731 362.765 167.581 363.063 167.48C363.362 167.373 363.663 167.312 363.967 167.296C364.271 167.275 364.549 167.296 364.799 167.36V168.464C364.485 168.384 364.141 168.365 363.767 168.408C363.394 168.451 363.05 168.6 362.735 168.856C362.447 169.08 362.231 169.349 362.087 169.664C361.943 169.973 361.847 170.304 361.799 170.656C361.751 171.003 361.727 171.347 361.727 171.688V176H360.551Z" fill="white"/>
<rect x="464.8" width="154" height="244" rx="20" fill="#74D5FF"/>
<path d="M490.57 208.98L491.63 205.08H488L488.6 202.81H492.23L492.85 200.46H489.22L489.84 198.2H493.46L494.43 194.6H496.78L495.8 198.2H498.26L499.23 194.6H501.58L500.6 198.2H504.23L503.62 200.46H500L499.36 202.81H502.99L502.38 205.08H498.76L497.72 208.98H495.37L496.41 205.08H493.96L492.92 208.98H490.57ZM494.58 202.81H497.02L497.65 200.46H495.2L494.58 202.81ZM507.563 209L512.523 196.88H506.233V194.6H515.103V196.88L510.163 209H507.563ZM522.676 209V206.62H516.296V204.37L520.906 194.6H523.656L519.046 204.37H522.676V200.62H525.116V204.37H526.466V206.62H525.116V209H522.676ZM528.864 209V194.6H533.454C533.574 194.6 533.811 194.603 534.164 194.61C534.524 194.617 534.871 194.64 535.204 194.68C536.344 194.827 537.307 195.233 538.094 195.9C538.887 196.56 539.487 197.403 539.894 198.43C540.301 199.457 540.504 200.58 540.504 201.8C540.504 203.02 540.301 204.143 539.894 205.17C539.487 206.197 538.887 207.043 538.094 207.71C537.307 208.37 536.344 208.773 535.204 208.92C534.877 208.96 534.534 208.983 534.174 208.99C533.814 208.997 533.574 209 533.454 209H528.864ZM531.314 206.73H533.454C533.654 206.73 533.907 206.723 534.214 206.71C534.527 206.697 534.804 206.667 535.044 206.62C535.724 206.493 536.277 206.19 536.704 205.71C537.131 205.23 537.444 204.647 537.644 203.96C537.851 203.273 537.954 202.553 537.954 201.8C537.954 201.02 537.851 200.287 537.644 199.6C537.437 198.913 537.117 198.337 536.684 197.87C536.257 197.403 535.711 197.107 535.044 196.98C534.804 196.927 534.527 196.897 534.214 196.89C533.907 196.877 533.654 196.87 533.454 196.87H531.314V206.73ZM547.138 209.3C546.405 209.3 545.721 209.15 545.088 208.85C544.455 208.543 543.908 208.123 543.448 207.59C542.995 207.057 542.668 206.437 542.468 205.73L544.788 205.11C544.881 205.497 545.051 205.83 545.298 206.11C545.551 206.39 545.845 206.607 546.178 206.76C546.518 206.913 546.868 206.99 547.228 206.99C547.695 206.99 548.121 206.877 548.508 206.65C548.895 206.423 549.201 206.12 549.428 205.74C549.655 205.353 549.768 204.927 549.768 204.46C549.768 203.993 549.651 203.57 549.418 203.19C549.191 202.803 548.885 202.5 548.498 202.28C548.111 202.053 547.688 201.94 547.228 201.94C546.675 201.94 546.215 202.04 545.848 202.24C545.488 202.44 545.211 202.653 545.018 202.88L542.958 202.22L543.398 194.6H551.218V196.86H544.688L545.588 196.01L545.268 201.31L544.828 200.77C545.201 200.43 545.635 200.177 546.128 200.01C546.621 199.843 547.098 199.76 547.558 199.76C548.458 199.76 549.255 199.967 549.948 200.38C550.648 200.787 551.195 201.343 551.588 202.05C551.988 202.757 552.188 203.56 552.188 204.46C552.188 205.36 551.955 206.177 551.488 206.91C551.021 207.637 550.405 208.217 549.638 208.65C548.878 209.083 548.045 209.3 547.138 209.3ZM554.587 209V194.6H563.257V197.01H556.997V200.6H562.057V203H556.997V209H554.587ZM565.055 209V194.6H573.725V197.01H567.465V200.6H572.525V203H567.465V209H565.055Z" fill="white"/>
<path d="M491.92 149.24C491.115 149.24 490.389 149.107 489.744 148.84C489.104 148.568 488.573 148.184 488.152 147.688C487.736 147.192 487.464 146.603 487.336 145.92L488.536 145.72C488.728 146.467 489.133 147.053 489.752 147.48C490.371 147.901 491.109 148.112 491.968 148.112C492.533 148.112 493.04 148.024 493.488 147.848C493.936 147.667 494.288 147.411 494.544 147.08C494.8 146.749 494.928 146.357 494.928 145.904C494.928 145.605 494.875 145.352 494.768 145.144C494.661 144.931 494.52 144.755 494.344 144.616C494.168 144.477 493.976 144.363 493.768 144.272C493.56 144.176 493.357 144.099 493.16 144.04L490.24 143.168C489.888 143.067 489.563 142.939 489.264 142.784C488.965 142.624 488.704 142.435 488.48 142.216C488.261 141.992 488.091 141.731 487.968 141.432C487.845 141.133 487.784 140.792 487.784 140.408C487.784 139.757 487.955 139.195 488.296 138.72C488.637 138.245 489.104 137.88 489.696 137.624C490.288 137.368 490.963 137.243 491.72 137.248C492.488 137.248 493.173 137.384 493.776 137.656C494.384 137.928 494.885 138.317 495.28 138.824C495.675 139.325 495.936 139.92 496.064 140.608L494.832 140.832C494.752 140.331 494.568 139.896 494.28 139.528C493.992 139.16 493.624 138.877 493.176 138.68C492.733 138.477 492.245 138.373 491.712 138.368C491.195 138.368 490.733 138.456 490.328 138.632C489.928 138.803 489.611 139.037 489.376 139.336C489.141 139.635 489.024 139.976 489.024 140.36C489.024 140.749 489.131 141.061 489.344 141.296C489.563 141.531 489.829 141.715 490.144 141.848C490.464 141.981 490.773 142.091 491.072 142.176L493.328 142.84C493.563 142.904 493.837 142.997 494.152 143.12C494.472 143.237 494.781 143.408 495.08 143.632C495.384 143.851 495.635 144.139 495.832 144.496C496.029 144.853 496.128 145.307 496.128 145.856C496.128 146.389 496.021 146.867 495.808 147.288C495.6 147.709 495.304 148.064 494.92 148.352C494.541 148.64 494.096 148.859 493.584 149.008C493.077 149.163 492.523 149.24 491.92 149.24ZM501.435 149.24C500.593 149.24 499.862 149.053 499.243 148.68C498.63 148.307 498.153 147.781 497.811 147.104C497.47 146.427 497.299 145.632 497.299 144.72C497.299 143.776 497.467 142.96 497.803 142.272C498.139 141.584 498.611 141.053 499.219 140.68C499.833 140.307 500.555 140.12 501.387 140.12C502.241 140.12 502.969 140.317 503.571 140.712C504.174 141.101 504.63 141.661 504.939 142.392C505.249 143.123 505.39 143.995 505.363 145.008H504.163V144.592C504.142 143.472 503.899 142.627 503.435 142.056C502.977 141.485 502.305 141.2 501.419 141.2C500.491 141.2 499.779 141.501 499.283 142.104C498.793 142.707 498.547 143.565 498.547 144.68C498.547 145.768 498.793 146.613 499.283 147.216C499.779 147.813 500.481 148.112 501.387 148.112C502.006 148.112 502.545 147.971 503.003 147.688C503.467 147.4 503.833 146.987 504.099 146.448L505.195 146.872C504.854 147.624 504.35 148.208 503.683 148.624C503.022 149.035 502.273 149.24 501.435 149.24ZM498.131 145.008V144.024H504.731V145.008H498.131ZM510.723 149.24C509.853 149.24 509.117 149.045 508.515 148.656C507.912 148.267 507.453 147.731 507.139 147.048C506.829 146.36 506.669 145.571 506.659 144.68C506.669 143.773 506.835 142.979 507.155 142.296C507.475 141.608 507.936 141.075 508.539 140.696C509.141 140.312 509.872 140.12 510.731 140.12C511.605 140.12 512.365 140.333 513.011 140.76C513.661 141.187 514.107 141.771 514.347 142.512L513.195 142.88C512.992 142.363 512.669 141.963 512.227 141.68C511.789 141.392 511.288 141.248 510.723 141.248C510.088 141.248 509.563 141.395 509.147 141.688C508.731 141.976 508.421 142.379 508.219 142.896C508.016 143.413 507.912 144.008 507.907 144.68C507.917 145.715 508.157 146.547 508.627 147.176C509.096 147.8 509.795 148.112 510.723 148.112C511.309 148.112 511.808 147.979 512.219 147.712C512.635 147.44 512.949 147.045 513.163 146.528L514.347 146.88C514.027 147.648 513.557 148.235 512.939 148.64C512.32 149.04 511.581 149.24 510.723 149.24ZM519.372 149.24C518.513 149.24 517.78 149.045 517.172 148.656C516.564 148.267 516.097 147.728 515.772 147.04C515.446 146.352 515.284 145.563 515.284 144.672C515.284 143.765 515.449 142.971 515.78 142.288C516.11 141.605 516.58 141.075 517.188 140.696C517.801 140.312 518.529 140.12 519.372 140.12C520.236 140.12 520.972 140.315 521.58 140.704C522.193 141.088 522.66 141.624 522.98 142.312C523.305 142.995 523.468 143.781 523.468 144.672C523.468 145.579 523.305 146.376 522.98 147.064C522.654 147.747 522.185 148.28 521.572 148.664C520.958 149.048 520.225 149.24 519.372 149.24ZM519.372 148.112C520.332 148.112 521.046 147.795 521.516 147.16C521.985 146.52 522.22 145.691 522.22 144.672C522.22 143.627 521.982 142.795 521.508 142.176C521.038 141.557 520.326 141.248 519.372 141.248C518.726 141.248 518.193 141.395 517.772 141.688C517.356 141.976 517.044 142.379 516.836 142.896C516.633 143.408 516.532 144 516.532 144.672C516.532 145.712 516.772 146.547 517.252 147.176C517.732 147.8 518.438 148.112 519.372 148.112ZM531.472 149V144.592C531.472 144.112 531.427 143.672 531.336 143.272C531.246 142.867 531.099 142.515 530.896 142.216C530.699 141.912 530.44 141.677 530.12 141.512C529.806 141.347 529.422 141.264 528.968 141.264C528.552 141.264 528.184 141.336 527.864 141.48C527.55 141.624 527.283 141.832 527.064 142.104C526.851 142.371 526.688 142.696 526.576 143.08C526.464 143.464 526.408 143.901 526.408 144.392L525.576 144.208C525.576 143.323 525.731 142.579 526.04 141.976C526.35 141.373 526.776 140.917 527.32 140.608C527.864 140.299 528.488 140.144 529.192 140.144C529.71 140.144 530.16 140.224 530.544 140.384C530.934 140.544 531.262 140.76 531.528 141.032C531.8 141.304 532.019 141.616 532.184 141.968C532.35 142.315 532.47 142.685 532.544 143.08C532.619 143.469 532.656 143.859 532.656 144.248V149H531.472ZM525.224 149V140.36H526.288V142.488H526.408V149H525.224ZM538.038 149.24C537.232 149.24 536.544 149.04 535.974 148.64C535.403 148.235 534.966 147.688 534.662 147C534.358 146.312 534.206 145.536 534.206 144.672C534.206 143.813 534.355 143.04 534.654 142.352C534.958 141.664 535.392 141.12 535.958 140.72C536.523 140.32 537.2 140.12 537.99 140.12C538.8 140.12 539.483 140.317 540.038 140.712C540.592 141.107 541.011 141.648 541.294 142.336C541.582 143.019 541.726 143.797 541.726 144.672C541.726 145.531 541.584 146.307 541.302 147C541.019 147.688 540.603 148.235 540.054 148.64C539.504 149.04 538.832 149.24 538.038 149.24ZM538.158 148.144C538.771 148.144 539.278 147.995 539.678 147.696C540.078 147.397 540.376 146.987 540.574 146.464C540.771 145.936 540.87 145.339 540.87 144.672C540.87 143.995 540.771 143.397 540.574 142.88C540.376 142.357 540.078 141.949 539.678 141.656C539.283 141.363 538.784 141.216 538.182 141.216C537.563 141.216 537.051 141.368 536.646 141.672C536.24 141.976 535.939 142.389 535.742 142.912C535.55 143.435 535.454 144.021 535.454 144.672C535.454 145.328 535.552 145.92 535.75 146.448C535.952 146.971 536.254 147.384 536.654 147.688C537.054 147.992 537.555 148.144 538.158 148.144ZM540.87 149V142.496H540.742V137.48H541.926V149H540.87ZM546.642 149.24C545.991 149.24 545.445 149.123 545.002 148.888C544.565 148.653 544.237 148.341 544.018 147.952C543.799 147.563 543.69 147.139 543.69 146.68C543.69 146.211 543.783 145.811 543.97 145.48C544.162 145.144 544.421 144.869 544.746 144.656C545.077 144.443 545.458 144.28 545.89 144.168C546.327 144.061 546.81 143.968 547.338 143.888C547.871 143.803 548.391 143.731 548.898 143.672C549.41 143.608 549.858 143.547 550.242 143.488L549.826 143.744C549.842 142.891 549.677 142.259 549.33 141.848C548.983 141.437 548.381 141.232 547.522 141.232C546.93 141.232 546.429 141.365 546.018 141.632C545.613 141.899 545.327 142.32 545.162 142.896L544.018 142.56C544.215 141.787 544.613 141.187 545.21 140.76C545.807 140.333 546.583 140.12 547.538 140.12C548.327 140.12 548.997 140.269 549.546 140.568C550.101 140.861 550.493 141.288 550.722 141.848C550.829 142.099 550.898 142.379 550.93 142.688C550.962 142.997 550.978 143.312 550.978 143.632V149H549.93V146.832L550.234 146.96C549.941 147.701 549.485 148.267 548.866 148.656C548.247 149.045 547.506 149.24 546.642 149.24ZM546.778 148.224C547.327 148.224 547.807 148.125 548.218 147.928C548.629 147.731 548.959 147.461 549.21 147.12C549.461 146.773 549.623 146.384 549.698 145.952C549.762 145.675 549.797 145.371 549.802 145.04C549.807 144.704 549.81 144.453 549.81 144.288L550.258 144.52C549.858 144.573 549.423 144.627 548.954 144.68C548.49 144.733 548.031 144.795 547.578 144.864C547.13 144.933 546.725 145.016 546.362 145.112C546.117 145.181 545.879 145.28 545.65 145.408C545.421 145.531 545.231 145.696 545.082 145.904C544.938 146.112 544.866 146.371 544.866 146.68C544.866 146.931 544.927 147.173 545.05 147.408C545.178 147.643 545.381 147.837 545.658 147.992C545.941 148.147 546.314 148.224 546.778 148.224ZM553.061 149V140.36H554.117V142.44L553.909 142.168C554.005 141.912 554.13 141.677 554.285 141.464C554.439 141.245 554.607 141.067 554.789 140.928C555.013 140.731 555.274 140.581 555.573 140.48C555.871 140.373 556.173 140.312 556.477 140.296C556.781 140.275 557.058 140.296 557.309 140.36V141.464C556.994 141.384 556.65 141.365 556.277 141.408C555.903 141.451 555.559 141.6 555.245 141.856C554.957 142.08 554.741 142.349 554.597 142.664C554.453 142.973 554.357 143.304 554.309 143.656C554.261 144.003 554.237 144.347 554.237 144.688V149H553.061ZM559.949 152.84L561.621 148.304L561.645 149.648L557.861 140.36H559.109L562.213 148.128H561.701L564.565 140.36H565.765L561.125 152.84H559.949ZM492.584 173.24C491.437 173.24 490.469 172.987 489.68 172.48C488.891 171.968 488.293 171.261 487.888 170.36C487.483 169.459 487.28 168.419 487.28 167.24C487.28 166.061 487.483 165.021 487.888 164.12C488.293 163.219 488.891 162.515 489.68 162.008C490.469 161.496 491.437 161.24 492.584 161.24C493.923 161.24 495.016 161.584 495.864 162.272C496.712 162.955 497.293 163.872 497.608 165.024L496.408 165.336C496.163 164.424 495.723 163.701 495.088 163.168C494.453 162.635 493.619 162.368 492.584 162.368C491.683 162.368 490.933 162.573 490.336 162.984C489.739 163.395 489.288 163.968 488.984 164.704C488.685 165.435 488.531 166.28 488.52 167.24C488.515 168.2 488.661 169.045 488.96 169.776C489.264 170.507 489.717 171.08 490.32 171.496C490.928 171.907 491.683 172.112 492.584 172.112C493.619 172.112 494.453 171.845 495.088 171.312C495.723 170.773 496.163 170.051 496.408 169.144L497.608 169.456C497.293 170.608 496.712 171.528 495.864 172.216C495.016 172.899 493.923 173.24 492.584 173.24ZM502.981 173.24C502.122 173.24 501.389 173.045 500.781 172.656C500.173 172.267 499.706 171.728 499.381 171.04C499.056 170.352 498.893 169.563 498.893 168.672C498.893 167.765 499.058 166.971 499.389 166.288C499.72 165.605 500.189 165.075 500.797 164.696C501.41 164.312 502.138 164.12 502.981 164.12C503.845 164.12 504.581 164.315 505.189 164.704C505.802 165.088 506.269 165.624 506.589 166.312C506.914 166.995 507.077 167.781 507.077 168.672C507.077 169.579 506.914 170.376 506.589 171.064C506.264 171.747 505.794 172.28 505.181 172.664C504.568 173.048 503.834 173.24 502.981 173.24ZM502.981 172.112C503.941 172.112 504.656 171.795 505.125 171.16C505.594 170.52 505.829 169.691 505.829 168.672C505.829 167.627 505.592 166.795 505.117 166.176C504.648 165.557 503.936 165.248 502.981 165.248C502.336 165.248 501.802 165.395 501.381 165.688C500.965 165.976 500.653 166.379 500.445 166.896C500.242 167.408 500.141 168 500.141 168.672C500.141 169.712 500.381 170.547 500.861 171.176C501.341 171.8 502.048 172.112 502.981 172.112ZM509.002 173V161.24H510.178V173H509.002ZM516.184 173.24C515.326 173.24 514.592 173.045 513.984 172.656C513.376 172.267 512.91 171.728 512.584 171.04C512.259 170.352 512.096 169.563 512.096 168.672C512.096 167.765 512.262 166.971 512.592 166.288C512.923 165.605 513.392 165.075 514 164.696C514.614 164.312 515.342 164.12 516.184 164.12C517.048 164.12 517.784 164.315 518.392 164.704C519.006 165.088 519.472 165.624 519.792 166.312C520.118 166.995 520.28 167.781 520.28 168.672C520.28 169.579 520.118 170.376 519.792 171.064C519.467 171.747 518.998 172.28 518.384 172.664C517.771 173.048 517.038 173.24 516.184 173.24ZM516.184 172.112C517.144 172.112 517.859 171.795 518.328 171.16C518.798 170.52 519.032 169.691 519.032 168.672C519.032 167.627 518.795 166.795 518.32 166.176C517.851 165.557 517.139 165.248 516.184 165.248C515.539 165.248 515.006 165.395 514.584 165.688C514.168 165.976 513.856 166.379 513.648 166.896C513.446 167.408 513.344 168 513.344 168.672C513.344 169.712 513.584 170.547 514.064 171.176C514.544 171.8 515.251 172.112 516.184 172.112ZM522.045 173V164.36H523.101V166.44L522.893 166.168C522.989 165.912 523.114 165.677 523.269 165.464C523.424 165.245 523.592 165.067 523.773 164.928C523.997 164.731 524.258 164.581 524.557 164.48C524.856 164.373 525.157 164.312 525.461 164.296C525.765 164.275 526.042 164.296 526.293 164.36V165.464C525.978 165.384 525.634 165.365 525.261 165.408C524.888 165.451 524.544 165.6 524.229 165.856C523.941 166.08 523.725 166.349 523.581 166.664C523.437 166.973 523.341 167.304 523.293 167.656C523.245 168.003 523.221 168.347 523.221 168.688V173H522.045Z" fill="white"/>
<rect x="629.2" width="154" height="244" rx="20" fill="#FF6C40"/>
<path d="M654.97 208.98L656.03 205.08H652.4L653 202.81H656.63L657.25 200.46H653.62L654.24 198.2H657.86L658.83 194.6H661.18L660.2 198.2H662.66L663.63 194.6H665.98L665 198.2H668.63L668.02 200.46H664.4L663.76 202.81H667.39L666.78 205.08H663.16L662.12 208.98H659.77L660.81 205.08H658.36L657.32 208.98H654.97ZM658.98 202.81H661.42L662.05 200.46H659.6L658.98 202.81ZM671.233 209V194.6H679.903V197.01H673.643V200.6H678.703V203H673.643V209H671.233ZM681.702 209V194.6H690.372V197.01H684.112V200.6H689.172V203H684.112V209H681.702ZM697.15 209.3C696.21 209.3 695.364 209.08 694.61 208.64C693.864 208.193 693.27 207.577 692.83 206.79C692.39 206.003 692.17 205.1 692.17 204.08V199.7C692.17 198.607 692.387 197.657 692.82 196.85C693.26 196.043 693.874 195.42 694.66 194.98C695.454 194.54 696.374 194.32 697.42 194.32C698.147 194.32 698.837 194.443 699.49 194.69C700.144 194.93 700.724 195.317 701.23 195.85L699.49 197.54C699.237 197.24 698.927 197.003 698.56 196.83C698.2 196.657 697.82 196.57 697.42 196.57C696.86 196.57 696.37 196.703 695.95 196.97C695.53 197.23 695.204 197.573 694.97 198C694.744 198.427 694.63 198.883 694.63 199.37V201.76L694.19 201.28C694.604 200.8 695.1 200.427 695.68 200.16C696.26 199.887 696.867 199.75 697.5 199.75C698.407 199.75 699.207 199.957 699.9 200.37C700.594 200.777 701.14 201.337 701.54 202.05C701.94 202.757 702.14 203.563 702.14 204.47C702.14 205.37 701.91 206.187 701.45 206.92C700.997 207.647 700.394 208.227 699.64 208.66C698.887 209.087 698.057 209.3 697.15 209.3ZM697.15 206.99C697.617 206.99 698.044 206.88 698.43 206.66C698.817 206.433 699.124 206.13 699.35 205.75C699.584 205.363 699.7 204.937 699.7 204.47C699.7 204.003 699.587 203.577 699.36 203.19C699.134 202.803 698.827 202.497 698.44 202.27C698.06 202.037 697.637 201.92 697.17 201.92C696.704 201.92 696.277 202.037 695.89 202.27C695.504 202.497 695.197 202.803 694.97 203.19C694.744 203.577 694.63 204.003 694.63 204.47C694.63 204.923 694.74 205.343 694.96 205.73C695.187 206.11 695.49 206.417 695.87 206.65C696.257 206.877 696.684 206.99 697.15 206.99ZM710.682 209.3C709.242 209.3 708.009 208.987 706.982 208.36C705.956 207.727 705.166 206.847 704.612 205.72C704.066 204.593 703.792 203.287 703.792 201.8C703.792 200.313 704.066 199.007 704.612 197.88C705.166 196.753 705.956 195.877 706.982 195.25C708.009 194.617 709.242 194.3 710.682 194.3C712.342 194.3 713.726 194.717 714.832 195.55C715.939 196.377 716.716 197.493 717.162 198.9L714.732 199.57C714.452 198.63 713.976 197.897 713.302 197.37C712.629 196.837 711.756 196.57 710.682 196.57C709.716 196.57 708.909 196.787 708.262 197.22C707.622 197.653 707.139 198.263 706.812 199.05C706.492 199.83 706.329 200.747 706.322 201.8C706.322 202.853 706.482 203.773 706.802 204.56C707.129 205.34 707.616 205.947 708.262 206.38C708.909 206.813 709.716 207.03 710.682 207.03C711.756 207.03 712.629 206.763 713.302 206.23C713.976 205.697 714.452 204.963 714.732 204.03L717.162 204.7C716.716 206.107 715.939 207.227 714.832 208.06C713.726 208.887 712.342 209.3 710.682 209.3ZM724.947 209V206.62H718.567V204.37L723.177 194.6H725.927L721.317 204.37H724.947V200.62H727.387V204.37H728.737V206.62H727.387V209H724.947ZM736.315 209.3C735.295 209.3 734.395 209.083 733.615 208.65C732.835 208.21 732.225 207.6 731.785 206.82C731.352 206.04 731.135 205.14 731.135 204.12V199.48C731.135 198.46 731.352 197.56 731.785 196.78C732.225 196 732.835 195.393 733.615 194.96C734.395 194.52 735.295 194.3 736.315 194.3C737.335 194.3 738.232 194.52 739.005 194.96C739.785 195.393 740.395 196 740.835 196.78C741.275 197.56 741.495 198.46 741.495 199.48V204.12C741.495 205.14 741.275 206.04 740.835 206.82C740.395 207.6 739.785 208.21 739.005 208.65C738.232 209.083 737.335 209.3 736.315 209.3ZM736.315 207.01C736.822 207.01 737.282 206.89 737.695 206.65C738.109 206.403 738.435 206.077 738.675 205.67C738.915 205.257 739.035 204.797 739.035 204.29V199.3C739.035 198.787 738.915 198.327 738.675 197.92C738.435 197.507 738.109 197.18 737.695 196.94C737.282 196.693 736.822 196.57 736.315 196.57C735.809 196.57 735.349 196.693 734.935 196.94C734.522 197.18 734.195 197.507 733.955 197.92C733.715 198.327 733.595 198.787 733.595 199.3V204.29C733.595 204.797 733.715 205.257 733.955 205.67C734.195 206.077 734.522 206.403 734.935 206.65C735.349 206.89 735.809 207.01 736.315 207.01Z" fill="white"/>
<path d="M656.32 149.24C655.515 149.24 654.789 149.107 654.144 148.84C653.504 148.568 652.973 148.184 652.552 147.688C652.136 147.192 651.864 146.603 651.736 145.92L652.936 145.72C653.128 146.467 653.533 147.053 654.152 147.48C654.771 147.901 655.509 148.112 656.368 148.112C656.933 148.112 657.44 148.024 657.888 147.848C658.336 147.667 658.688 147.411 658.944 147.08C659.2 146.749 659.328 146.357 659.328 145.904C659.328 145.605 659.275 145.352 659.168 145.144C659.061 144.931 658.92 144.755 658.744 144.616C658.568 144.477 658.376 144.363 658.168 144.272C657.96 144.176 657.757 144.099 657.56 144.04L654.64 143.168C654.288 143.067 653.963 142.939 653.664 142.784C653.365 142.624 653.104 142.435 652.88 142.216C652.661 141.992 652.491 141.731 652.368 141.432C652.245 141.133 652.184 140.792 652.184 140.408C652.184 139.757 652.355 139.195 652.696 138.72C653.037 138.245 653.504 137.88 654.096 137.624C654.688 137.368 655.363 137.243 656.12 137.248C656.888 137.248 657.573 137.384 658.176 137.656C658.784 137.928 659.285 138.317 659.68 138.824C660.075 139.325 660.336 139.92 660.464 140.608L659.232 140.832C659.152 140.331 658.968 139.896 658.68 139.528C658.392 139.16 658.024 138.877 657.576 138.68C657.133 138.477 656.645 138.373 656.112 138.368C655.595 138.368 655.133 138.456 654.728 138.632C654.328 138.803 654.011 139.037 653.776 139.336C653.541 139.635 653.424 139.976 653.424 140.36C653.424 140.749 653.531 141.061 653.744 141.296C653.963 141.531 654.229 141.715 654.544 141.848C654.864 141.981 655.173 142.091 655.472 142.176L657.728 142.84C657.963 142.904 658.237 142.997 658.552 143.12C658.872 143.237 659.181 143.408 659.48 143.632C659.784 143.851 660.035 144.139 660.232 144.496C660.429 144.853 660.528 145.307 660.528 145.856C660.528 146.389 660.421 146.867 660.208 147.288C660 147.709 659.704 148.064 659.32 148.352C658.941 148.64 658.496 148.859 657.984 149.008C657.477 149.163 656.923 149.24 656.32 149.24ZM665.835 149.24C664.993 149.24 664.262 149.053 663.643 148.68C663.03 148.307 662.553 147.781 662.211 147.104C661.87 146.427 661.699 145.632 661.699 144.72C661.699 143.776 661.867 142.96 662.203 142.272C662.539 141.584 663.011 141.053 663.619 140.68C664.233 140.307 664.955 140.12 665.787 140.12C666.641 140.12 667.369 140.317 667.971 140.712C668.574 141.101 669.03 141.661 669.339 142.392C669.649 143.123 669.79 143.995 669.763 145.008H668.563V144.592C668.542 143.472 668.299 142.627 667.835 142.056C667.377 141.485 666.705 141.2 665.819 141.2C664.891 141.2 664.179 141.501 663.683 142.104C663.193 142.707 662.947 143.565 662.947 144.68C662.947 145.768 663.193 146.613 663.683 147.216C664.179 147.813 664.881 148.112 665.787 148.112C666.406 148.112 666.945 147.971 667.403 147.688C667.867 147.4 668.233 146.987 668.499 146.448L669.595 146.872C669.254 147.624 668.75 148.208 668.083 148.624C667.422 149.035 666.673 149.24 665.835 149.24ZM662.531 145.008V144.024H669.131V145.008H662.531ZM675.123 149.24C674.253 149.24 673.517 149.045 672.915 148.656C672.312 148.267 671.853 147.731 671.539 147.048C671.229 146.36 671.069 145.571 671.059 144.68C671.069 143.773 671.235 142.979 671.555 142.296C671.875 141.608 672.336 141.075 672.939 140.696C673.541 140.312 674.272 140.12 675.131 140.12C676.005 140.12 676.765 140.333 677.411 140.76C678.061 141.187 678.507 141.771 678.747 142.512L677.595 142.88C677.392 142.363 677.069 141.963 676.627 141.68C676.189 141.392 675.688 141.248 675.123 141.248C674.488 141.248 673.963 141.395 673.547 141.688C673.131 141.976 672.821 142.379 672.619 142.896C672.416 143.413 672.312 144.008 672.307 144.68C672.317 145.715 672.557 146.547 673.027 147.176C673.496 147.8 674.195 148.112 675.123 148.112C675.709 148.112 676.208 147.979 676.619 147.712C677.035 147.44 677.349 147.045 677.563 146.528L678.747 146.88C678.427 147.648 677.957 148.235 677.339 148.64C676.72 149.04 675.981 149.24 675.123 149.24ZM683.772 149.24C682.913 149.24 682.18 149.045 681.572 148.656C680.964 148.267 680.497 147.728 680.172 147.04C679.846 146.352 679.684 145.563 679.684 144.672C679.684 143.765 679.849 142.971 680.18 142.288C680.51 141.605 680.98 141.075 681.588 140.696C682.201 140.312 682.929 140.12 683.772 140.12C684.636 140.12 685.372 140.315 685.98 140.704C686.593 141.088 687.06 141.624 687.38 142.312C687.705 142.995 687.868 143.781 687.868 144.672C687.868 145.579 687.705 146.376 687.38 147.064C687.054 147.747 686.585 148.28 685.972 148.664C685.358 149.048 684.625 149.24 683.772 149.24ZM683.772 148.112C684.732 148.112 685.446 147.795 685.916 147.16C686.385 146.52 686.62 145.691 686.62 144.672C686.62 143.627 686.382 142.795 685.908 142.176C685.438 141.557 684.726 141.248 683.772 141.248C683.126 141.248 682.593 141.395 682.172 141.688C681.756 141.976 681.444 142.379 681.236 142.896C681.033 143.408 680.932 144 680.932 144.672C680.932 145.712 681.172 146.547 681.652 147.176C682.132 147.8 682.838 148.112 683.772 148.112ZM695.873 149V144.592C695.873 144.112 695.827 143.672 695.737 143.272C695.646 142.867 695.499 142.515 695.297 142.216C695.099 141.912 694.841 141.677 694.521 141.512C694.206 141.347 693.822 141.264 693.369 141.264C692.953 141.264 692.585 141.336 692.265 141.48C691.95 141.624 691.683 141.832 691.465 142.104C691.251 142.371 691.089 142.696 690.977 143.08C690.865 143.464 690.809 143.901 690.809 144.392L689.977 144.208C689.977 143.323 690.131 142.579 690.441 141.976C690.75 141.373 691.177 140.917 691.721 140.608C692.265 140.299 692.889 140.144 693.593 140.144C694.11 140.144 694.561 140.224 694.945 140.384C695.334 140.544 695.662 140.76 695.929 141.032C696.201 141.304 696.419 141.616 696.585 141.968C696.75 142.315 696.87 142.685 696.945 143.08C697.019 143.469 697.057 143.859 697.057 144.248V149H695.873ZM689.625 149V140.36H690.689V142.488H690.809V149H689.625ZM702.438 149.24C701.632 149.24 700.944 149.04 700.374 148.64C699.803 148.235 699.366 147.688 699.062 147C698.758 146.312 698.606 145.536 698.606 144.672C698.606 143.813 698.755 143.04 699.054 142.352C699.358 141.664 699.792 141.12 700.358 140.72C700.923 140.32 701.6 140.12 702.39 140.12C703.2 140.12 703.883 140.317 704.438 140.712C704.992 141.107 705.411 141.648 705.694 142.336C705.982 143.019 706.126 143.797 706.126 144.672C706.126 145.531 705.984 146.307 705.702 147C705.419 147.688 705.003 148.235 704.454 148.64C703.904 149.04 703.232 149.24 702.438 149.24ZM702.558 148.144C703.171 148.144 703.678 147.995 704.078 147.696C704.478 147.397 704.776 146.987 704.974 146.464C705.171 145.936 705.27 145.339 705.27 144.672C705.27 143.995 705.171 143.397 704.974 142.88C704.776 142.357 704.478 141.949 704.078 141.656C703.683 141.363 703.184 141.216 702.582 141.216C701.963 141.216 701.451 141.368 701.046 141.672C700.64 141.976 700.339 142.389 700.142 142.912C699.95 143.435 699.854 144.021 699.854 144.672C699.854 145.328 699.952 145.92 700.15 146.448C700.352 146.971 700.654 147.384 701.054 147.688C701.454 147.992 701.955 148.144 702.558 148.144ZM705.27 149V142.496H705.142V137.48H706.326V149H705.27ZM711.042 149.24C710.391 149.24 709.845 149.123 709.402 148.888C708.965 148.653 708.637 148.341 708.418 147.952C708.199 147.563 708.09 147.139 708.09 146.68C708.09 146.211 708.183 145.811 708.37 145.48C708.562 145.144 708.821 144.869 709.146 144.656C709.477 144.443 709.858 144.28 710.29 144.168C710.727 144.061 711.21 143.968 711.738 143.888C712.271 143.803 712.791 143.731 713.298 143.672C713.81 143.608 714.258 143.547 714.642 143.488L714.226 143.744C714.242 142.891 714.077 142.259 713.73 141.848C713.383 141.437 712.781 141.232 711.922 141.232C711.33 141.232 710.829 141.365 710.418 141.632C710.013 141.899 709.727 142.32 709.562 142.896L708.418 142.56C708.615 141.787 709.013 141.187 709.61 140.76C710.207 140.333 710.983 140.12 711.938 140.12C712.727 140.12 713.397 140.269 713.946 140.568C714.501 140.861 714.893 141.288 715.122 141.848C715.229 142.099 715.298 142.379 715.33 142.688C715.362 142.997 715.378 143.312 715.378 143.632V149H714.33V146.832L714.634 146.96C714.341 147.701 713.885 148.267 713.266 148.656C712.647 149.045 711.906 149.24 711.042 149.24ZM711.178 148.224C711.727 148.224 712.207 148.125 712.618 147.928C713.029 147.731 713.359 147.461 713.61 147.12C713.861 146.773 714.023 146.384 714.098 145.952C714.162 145.675 714.197 145.371 714.202 145.04C714.207 144.704 714.21 144.453 714.21 144.288L714.658 144.52C714.258 144.573 713.823 144.627 713.354 144.68C712.89 144.733 712.431 144.795 711.978 144.864C711.53 144.933 711.125 145.016 710.762 145.112C710.517 145.181 710.279 145.28 710.05 145.408C709.821 145.531 709.631 145.696 709.482 145.904C709.338 146.112 709.266 146.371 709.266 146.68C709.266 146.931 709.327 147.173 709.45 147.408C709.578 147.643 709.781 147.837 710.058 147.992C710.341 148.147 710.714 148.224 711.178 148.224ZM717.461 149V140.36H718.517V142.44L718.309 142.168C718.405 141.912 718.53 141.677 718.685 141.464C718.839 141.245 719.007 141.067 719.189 140.928C719.413 140.731 719.674 140.581 719.973 140.48C720.271 140.373 720.573 140.312 720.877 140.296C721.181 140.275 721.458 140.296 721.709 140.36V141.464C721.394 141.384 721.05 141.365 720.677 141.408C720.303 141.451 719.959 141.6 719.645 141.856C719.357 142.08 719.141 142.349 718.997 142.664C718.853 142.973 718.757 143.304 718.709 143.656C718.661 144.003 718.637 144.347 718.637 144.688V149H717.461ZM724.349 152.84L726.021 148.304L726.045 149.648L722.261 140.36H723.509L726.613 148.128H726.101L728.965 140.36H730.165L725.525 152.84H724.349ZM656.984 173.24C655.837 173.24 654.869 172.987 654.08 172.48C653.291 171.968 652.693 171.261 652.288 170.36C651.883 169.459 651.68 168.419 651.68 167.24C651.68 166.061 651.883 165.021 652.288 164.12C652.693 163.219 653.291 162.515 654.08 162.008C654.869 161.496 655.837 161.24 656.984 161.24C658.323 161.24 659.416 161.584 660.264 162.272C661.112 162.955 661.693 163.872 662.008 165.024L660.808 165.336C660.563 164.424 660.123 163.701 659.488 163.168C658.853 162.635 658.019 162.368 656.984 162.368C656.083 162.368 655.333 162.573 654.736 162.984C654.139 163.395 653.688 163.968 653.384 164.704C653.085 165.435 652.931 166.28 652.92 167.24C652.915 168.2 653.061 169.045 653.36 169.776C653.664 170.507 654.117 171.08 654.72 171.496C655.328 171.907 656.083 172.112 656.984 172.112C658.019 172.112 658.853 171.845 659.488 171.312C660.123 170.773 660.563 170.051 660.808 169.144L662.008 169.456C661.693 170.608 661.112 171.528 660.264 172.216C659.416 172.899 658.323 173.24 656.984 173.24ZM667.381 173.24C666.522 173.24 665.789 173.045 665.181 172.656C664.573 172.267 664.106 171.728 663.781 171.04C663.456 170.352 663.293 169.563 663.293 168.672C663.293 167.765 663.458 166.971 663.789 166.288C664.12 165.605 664.589 165.075 665.197 164.696C665.81 164.312 666.538 164.12 667.381 164.12C668.245 164.12 668.981 164.315 669.589 164.704C670.202 165.088 670.669 165.624 670.989 166.312C671.314 166.995 671.477 167.781 671.477 168.672C671.477 169.579 671.314 170.376 670.989 171.064C670.664 171.747 670.194 172.28 669.581 172.664C668.968 173.048 668.234 173.24 667.381 173.24ZM667.381 172.112C668.341 172.112 669.056 171.795 669.525 171.16C669.994 170.52 670.229 169.691 670.229 168.672C670.229 167.627 669.992 166.795 669.517 166.176C669.048 165.557 668.336 165.248 667.381 165.248C666.736 165.248 666.202 165.395 665.781 165.688C665.365 165.976 665.053 166.379 664.845 166.896C664.642 167.408 664.541 168 664.541 168.672C664.541 169.712 664.781 170.547 665.261 171.176C665.741 171.8 666.448 172.112 667.381 172.112ZM673.402 173V161.24H674.578V173H673.402ZM680.584 173.24C679.726 173.24 678.992 173.045 678.384 172.656C677.776 172.267 677.31 171.728 676.984 171.04C676.659 170.352 676.496 169.563 676.496 168.672C676.496 167.765 676.662 166.971 676.992 166.288C677.323 165.605 677.792 165.075 678.4 164.696C679.014 164.312 679.742 164.12 680.584 164.12C681.448 164.12 682.184 164.315 682.792 164.704C683.406 165.088 683.872 165.624 684.192 166.312C684.518 166.995 684.68 167.781 684.68 168.672C684.68 169.579 684.518 170.376 684.192 171.064C683.867 171.747 683.398 172.28 682.784 172.664C682.171 173.048 681.438 173.24 680.584 173.24ZM680.584 172.112C681.544 172.112 682.259 171.795 682.728 171.16C683.198 170.52 683.432 169.691 683.432 168.672C683.432 167.627 683.195 166.795 682.72 166.176C682.251 165.557 681.539 165.248 680.584 165.248C679.939 165.248 679.406 165.395 678.984 165.688C678.568 165.976 678.256 166.379 678.048 166.896C677.846 167.408 677.744 168 677.744 168.672C677.744 169.712 677.984 170.547 678.464 171.176C678.944 171.8 679.651 172.112 680.584 172.112ZM686.445 173V164.36H687.501V166.44L687.293 166.168C687.389 165.912 687.514 165.677 687.669 165.464C687.824 165.245 687.992 165.067 688.173 164.928C688.397 164.731 688.658 164.581 688.957 164.48C689.256 164.373 689.557 164.312 689.861 164.296C690.165 164.275 690.442 164.296 690.693 164.36V165.464C690.378 165.384 690.034 165.365 689.661 165.408C689.288 165.451 688.944 165.6 688.629 165.856C688.341 166.08 688.125 166.349 687.981 166.664C687.837 166.973 687.741 167.304 687.693 167.656C687.645 168.003 687.621 168.347 687.621 168.688V173H686.445Z" fill="white"/>
<rect x="793.6" width="154" height="244" rx="20" fill="#F5CC51"/>
<path d="M821.37 208.98L822.43 205.08H818.8L819.4 202.81H823.03L823.65 200.46H820.02L820.64 198.2H824.26L825.23 194.6H827.58L826.6 198.2H829.06L830.03 194.6H832.38L831.4 198.2H835.03L834.42 200.46H830.8L830.16 202.81H833.79L833.18 205.08H829.56L828.52 208.98H826.17L827.21 205.08H824.76L823.72 208.98H821.37ZM825.38 202.81H827.82L828.45 200.46H826L825.38 202.81ZM837.633 209V194.6H846.303V197.01H840.043V200.6H845.103V203H840.043V209H837.633ZM852.372 209.3C851.638 209.3 850.955 209.15 850.322 208.85C849.688 208.543 849.142 208.123 848.682 207.59C848.228 207.057 847.902 206.437 847.702 205.73L850.022 205.11C850.115 205.497 850.285 205.83 850.532 206.11C850.785 206.39 851.078 206.607 851.412 206.76C851.752 206.913 852.102 206.99 852.462 206.99C852.928 206.99 853.355 206.877 853.742 206.65C854.128 206.423 854.435 206.12 854.662 205.74C854.888 205.353 855.002 204.927 855.002 204.46C855.002 203.993 854.885 203.57 854.652 203.19C854.425 202.803 854.118 202.5 853.732 202.28C853.345 202.053 852.922 201.94 852.462 201.94C851.908 201.94 851.448 202.04 851.082 202.24C850.722 202.44 850.445 202.653 850.252 202.88L848.192 202.22L848.632 194.6H856.452V196.86H849.922L850.822 196.01L850.502 201.31L850.062 200.77C850.435 200.43 850.868 200.177 851.362 200.01C851.855 199.843 852.332 199.76 852.792 199.76C853.692 199.76 854.488 199.967 855.182 200.38C855.882 200.787 856.428 201.343 856.822 202.05C857.222 202.757 857.422 203.56 857.422 204.46C857.422 205.36 857.188 206.177 856.722 206.91C856.255 207.637 855.638 208.217 854.872 208.65C854.112 209.083 853.278 209.3 852.372 209.3ZM865.91 209.3C864.47 209.3 863.237 208.987 862.21 208.36C861.184 207.727 860.394 206.847 859.84 205.72C859.294 204.593 859.02 203.287 859.02 201.8C859.02 200.313 859.294 199.007 859.84 197.88C860.394 196.753 861.184 195.877 862.21 195.25C863.237 194.617 864.47 194.3 865.91 194.3C867.57 194.3 868.954 194.717 870.06 195.55C871.167 196.377 871.944 197.493 872.39 198.9L869.96 199.57C869.68 198.63 869.204 197.897 868.53 197.37C867.857 196.837 866.984 196.57 865.91 196.57C864.944 196.57 864.137 196.787 863.49 197.22C862.85 197.653 862.367 198.263 862.04 199.05C861.72 199.83 861.557 200.747 861.55 201.8C861.55 202.853 861.71 203.773 862.03 204.56C862.357 205.34 862.844 205.947 863.49 206.38C864.137 206.813 864.944 207.03 865.91 207.03C866.984 207.03 867.857 206.763 868.53 206.23C869.204 205.697 869.68 204.963 869.96 204.03L872.39 204.7C871.944 206.107 871.167 207.227 870.06 208.06C868.954 208.887 867.57 209.3 865.91 209.3ZM880.676 209.3C879.236 209.3 878.003 208.987 876.976 208.36C875.949 207.727 875.159 206.847 874.606 205.72C874.059 204.593 873.786 203.287 873.786 201.8C873.786 200.313 874.059 199.007 874.606 197.88C875.159 196.753 875.949 195.877 876.976 195.25C878.003 194.617 879.236 194.3 880.676 194.3C882.336 194.3 883.719 194.717 884.826 195.55C885.933 196.377 886.709 197.493 887.156 198.9L884.726 199.57C884.446 198.63 883.969 197.897 883.296 197.37C882.623 196.837 881.749 196.57 880.676 196.57C879.709 196.57 878.903 196.787 878.256 197.22C877.616 197.653 877.133 198.263 876.806 199.05C876.486 199.83 876.323 200.747 876.316 201.8C876.316 202.853 876.476 203.773 876.796 204.56C877.123 205.34 877.609 205.947 878.256 206.38C878.903 206.813 879.709 207.03 880.676 207.03C881.749 207.03 882.623 206.763 883.296 206.23C883.969 205.697 884.446 204.963 884.726 204.03L887.156 204.7C886.709 206.107 885.933 207.227 884.826 208.06C883.719 208.887 882.336 209.3 880.676 209.3ZM893.622 209.3C892.888 209.3 892.205 209.15 891.572 208.85C890.938 208.543 890.392 208.123 889.932 207.59C889.478 207.057 889.152 206.437 888.952 205.73L891.272 205.11C891.365 205.497 891.535 205.83 891.782 206.11C892.035 206.39 892.328 206.607 892.662 206.76C893.002 206.913 893.352 206.99 893.712 206.99C894.178 206.99 894.605 206.877 894.992 206.65C895.378 206.423 895.685 206.12 895.912 205.74C896.138 205.353 896.252 204.927 896.252 204.46C896.252 203.993 896.135 203.57 895.902 203.19C895.675 202.803 895.368 202.5 894.982 202.28C894.595 202.053 894.172 201.94 893.712 201.94C893.158 201.94 892.698 202.04 892.332 202.24C891.972 202.44 891.695 202.653 891.502 202.88L889.442 202.22L889.882 194.6H897.702V196.86H891.172L892.072 196.01L891.752 201.31L891.312 200.77C891.685 200.43 892.118 200.177 892.612 200.01C893.105 199.843 893.582 199.76 894.042 199.76C894.942 199.76 895.738 199.967 896.432 200.38C897.132 200.787 897.678 201.343 898.072 202.05C898.472 202.757 898.672 203.56 898.672 204.46C898.672 205.36 898.438 206.177 897.972 206.91C897.505 207.637 896.888 208.217 896.122 208.65C895.362 209.083 894.528 209.3 893.622 209.3ZM903.57 209V197.23L900.87 198.88V196.22L903.57 194.6H906.03V209H903.57Z" fill="white"/>
<path d="M822.72 149.24C821.915 149.24 821.189 149.107 820.544 148.84C819.904 148.568 819.373 148.184 818.952 147.688C818.536 147.192 818.264 146.603 818.136 145.92L819.336 145.72C819.528 146.467 819.933 147.053 820.552 147.48C821.171 147.901 821.909 148.112 822.768 148.112C823.333 148.112 823.84 148.024 824.288 147.848C824.736 147.667 825.088 147.411 825.344 147.08C825.6 146.749 825.728 146.357 825.728 145.904C825.728 145.605 825.675 145.352 825.568 145.144C825.461 144.931 825.32 144.755 825.144 144.616C824.968 144.477 824.776 144.363 824.568 144.272C824.36 144.176 824.157 144.099 823.96 144.04L821.04 143.168C820.688 143.067 820.363 142.939 820.064 142.784C819.765 142.624 819.504 142.435 819.28 142.216C819.061 141.992 818.891 141.731 818.768 141.432C818.645 141.133 818.584 140.792 818.584 140.408C818.584 139.757 818.755 139.195 819.096 138.72C819.437 138.245 819.904 137.88 820.496 137.624C821.088 137.368 821.763 137.243 822.52 137.248C823.288 137.248 823.973 137.384 824.576 137.656C825.184 137.928 825.685 138.317 826.08 138.824C826.475 139.325 826.736 139.92 826.864 140.608L825.632 140.832C825.552 140.331 825.368 139.896 825.08 139.528C824.792 139.16 824.424 138.877 823.976 138.68C823.533 138.477 823.045 138.373 822.512 138.368C821.995 138.368 821.533 138.456 821.128 138.632C820.728 138.803 820.411 139.037 820.176 139.336C819.941 139.635 819.824 139.976 819.824 140.36C819.824 140.749 819.931 141.061 820.144 141.296C820.363 141.531 820.629 141.715 820.944 141.848C821.264 141.981 821.573 142.091 821.872 142.176L824.128 142.84C824.363 142.904 824.637 142.997 824.952 143.12C825.272 143.237 825.581 143.408 825.88 143.632C826.184 143.851 826.435 144.139 826.632 144.496C826.829 144.853 826.928 145.307 826.928 145.856C826.928 146.389 826.821 146.867 826.608 147.288C826.4 147.709 826.104 148.064 825.72 148.352C825.341 148.64 824.896 148.859 824.384 149.008C823.877 149.163 823.323 149.24 822.72 149.24ZM832.235 149.24C831.393 149.24 830.662 149.053 830.043 148.68C829.43 148.307 828.953 147.781 828.611 147.104C828.27 146.427 828.099 145.632 828.099 144.72C828.099 143.776 828.267 142.96 828.603 142.272C828.939 141.584 829.411 141.053 830.019 140.68C830.633 140.307 831.355 140.12 832.187 140.12C833.041 140.12 833.769 140.317 834.371 140.712C834.974 141.101 835.43 141.661 835.739 142.392C836.049 143.123 836.19 143.995 836.163 145.008H834.963V144.592C834.942 143.472 834.699 142.627 834.235 142.056C833.777 141.485 833.105 141.2 832.219 141.2C831.291 141.2 830.579 141.501 830.083 142.104C829.593 142.707 829.347 143.565 829.347 144.68C829.347 145.768 829.593 146.613 830.083 147.216C830.579 147.813 831.281 148.112 832.187 148.112C832.806 148.112 833.345 147.971 833.803 147.688C834.267 147.4 834.633 146.987 834.899 146.448L835.995 146.872C835.654 147.624 835.15 148.208 834.483 148.624C833.822 149.035 833.073 149.24 832.235 149.24ZM828.931 145.008V144.024H835.531V145.008H828.931ZM841.523 149.24C840.653 149.24 839.917 149.045 839.315 148.656C838.712 148.267 838.253 147.731 837.939 147.048C837.629 146.36 837.469 145.571 837.459 144.68C837.469 143.773 837.635 142.979 837.955 142.296C838.275 141.608 838.736 141.075 839.339 140.696C839.941 140.312 840.672 140.12 841.531 140.12C842.405 140.12 843.165 140.333 843.811 140.76C844.461 141.187 844.907 141.771 845.147 142.512L843.995 142.88C843.792 142.363 843.469 141.963 843.027 141.68C842.589 141.392 842.088 141.248 841.523 141.248C840.888 141.248 840.363 141.395 839.947 141.688C839.531 141.976 839.221 142.379 839.019 142.896C838.816 143.413 838.712 144.008 838.707 144.68C838.717 145.715 838.957 146.547 839.427 147.176C839.896 147.8 840.595 148.112 841.523 148.112C842.109 148.112 842.608 147.979 843.019 147.712C843.435 147.44 843.749 147.045 843.963 146.528L845.147 146.88C844.827 147.648 844.357 148.235 843.739 148.64C843.12 149.04 842.381 149.24 841.523 149.24ZM850.172 149.24C849.313 149.24 848.58 149.045 847.972 148.656C847.364 148.267 846.897 147.728 846.572 147.04C846.246 146.352 846.084 145.563 846.084 144.672C846.084 143.765 846.249 142.971 846.58 142.288C846.91 141.605 847.38 141.075 847.988 140.696C848.601 140.312 849.329 140.12 850.172 140.12C851.036 140.12 851.772 140.315 852.38 140.704C852.993 141.088 853.46 141.624 853.78 142.312C854.105 142.995 854.268 143.781 854.268 144.672C854.268 145.579 854.105 146.376 853.78 147.064C853.454 147.747 852.985 148.28 852.372 148.664C851.758 149.048 851.025 149.24 850.172 149.24ZM850.172 148.112C851.132 148.112 851.846 147.795 852.316 147.16C852.785 146.52 853.02 145.691 853.02 144.672C853.02 143.627 852.782 142.795 852.308 142.176C851.838 141.557 851.126 141.248 850.172 141.248C849.526 141.248 848.993 141.395 848.572 141.688C848.156 141.976 847.844 142.379 847.636 142.896C847.433 143.408 847.332 144 847.332 144.672C847.332 145.712 847.572 146.547 848.052 147.176C848.532 147.8 849.238 148.112 850.172 148.112ZM862.273 149V144.592C862.273 144.112 862.227 143.672 862.137 143.272C862.046 142.867 861.899 142.515 861.697 142.216C861.499 141.912 861.241 141.677 860.921 141.512C860.606 141.347 860.222 141.264 859.769 141.264C859.353 141.264 858.985 141.336 858.665 141.48C858.35 141.624 858.083 141.832 857.865 142.104C857.651 142.371 857.489 142.696 857.377 143.08C857.265 143.464 857.209 143.901 857.209 144.392L856.377 144.208C856.377 143.323 856.531 142.579 856.841 141.976C857.15 141.373 857.577 140.917 858.121 140.608C858.665 140.299 859.289 140.144 859.993 140.144C860.51 140.144 860.961 140.224 861.345 140.384C861.734 140.544 862.062 140.76 862.329 141.032C862.601 141.304 862.819 141.616 862.985 141.968C863.15 142.315 863.27 142.685 863.345 143.08C863.419 143.469 863.457 143.859 863.457 144.248V149H862.273ZM856.025 149V140.36H857.089V142.488H857.209V149H856.025ZM868.838 149.24C868.032 149.24 867.344 149.04 866.774 148.64C866.203 148.235 865.766 147.688 865.462 147C865.158 146.312 865.006 145.536 865.006 144.672C865.006 143.813 865.155 143.04 865.454 142.352C865.758 141.664 866.192 141.12 866.758 140.72C867.323 140.32 868 140.12 868.79 140.12C869.6 140.12 870.283 140.317 870.838 140.712C871.392 141.107 871.811 141.648 872.094 142.336C872.382 143.019 872.526 143.797 872.526 144.672C872.526 145.531 872.384 146.307 872.102 147C871.819 147.688 871.403 148.235 870.854 148.64C870.304 149.04 869.632 149.24 868.838 149.24ZM868.958 148.144C869.571 148.144 870.078 147.995 870.478 147.696C870.878 147.397 871.176 146.987 871.374 146.464C871.571 145.936 871.67 145.339 871.67 144.672C871.67 143.995 871.571 143.397 871.374 142.88C871.176 142.357 870.878 141.949 870.478 141.656C870.083 141.363 869.584 141.216 868.982 141.216C868.363 141.216 867.851 141.368 867.446 141.672C867.04 141.976 866.739 142.389 866.542 142.912C866.35 143.435 866.254 144.021 866.254 144.672C866.254 145.328 866.352 145.92 866.55 146.448C866.752 146.971 867.054 147.384 867.454 147.688C867.854 147.992 868.355 148.144 868.958 148.144ZM871.67 149V142.496H871.542V137.48H872.726V149H871.67ZM877.442 149.24C876.791 149.24 876.245 149.123 875.802 148.888C875.365 148.653 875.037 148.341 874.818 147.952C874.599 147.563 874.49 147.139 874.49 146.68C874.49 146.211 874.583 145.811 874.77 145.48C874.962 145.144 875.221 144.869 875.546 144.656C875.877 144.443 876.258 144.28 876.69 144.168C877.127 144.061 877.61 143.968 878.138 143.888C878.671 143.803 879.191 143.731 879.698 143.672C880.21 143.608 880.658 143.547 881.042 143.488L880.626 143.744C880.642 142.891 880.477 142.259 880.13 141.848C879.783 141.437 879.181 141.232 878.322 141.232C877.73 141.232 877.229 141.365 876.818 141.632C876.413 141.899 876.127 142.32 875.962 142.896L874.818 142.56C875.015 141.787 875.413 141.187 876.01 140.76C876.607 140.333 877.383 140.12 878.338 140.12C879.127 140.12 879.797 140.269 880.346 140.568C880.901 140.861 881.293 141.288 881.522 141.848C881.629 142.099 881.698 142.379 881.73 142.688C881.762 142.997 881.778 143.312 881.778 143.632V149H880.73V146.832L881.034 146.96C880.741 147.701 880.285 148.267 879.666 148.656C879.047 149.045 878.306 149.24 877.442 149.24ZM877.578 148.224C878.127 148.224 878.607 148.125 879.018 147.928C879.429 147.731 879.759 147.461 880.01 147.12C880.261 146.773 880.423 146.384 880.498 145.952C880.562 145.675 880.597 145.371 880.602 145.04C880.607 144.704 880.61 144.453 880.61 144.288L881.058 144.52C880.658 144.573 880.223 144.627 879.754 144.68C879.29 144.733 878.831 144.795 878.378 144.864C877.93 144.933 877.525 145.016 877.162 145.112C876.917 145.181 876.679 145.28 876.45 145.408C876.221 145.531 876.031 145.696 875.882 145.904C875.738 146.112 875.666 146.371 875.666 146.68C875.666 146.931 875.727 147.173 875.85 147.408C875.978 147.643 876.181 147.837 876.458 147.992C876.741 148.147 877.114 148.224 877.578 148.224ZM883.861 149V140.36H884.917V142.44L884.709 142.168C884.805 141.912 884.93 141.677 885.085 141.464C885.239 141.245 885.407 141.067 885.589 140.928C885.813 140.731 886.074 140.581 886.373 140.48C886.671 140.373 886.973 140.312 887.277 140.296C887.581 140.275 887.858 140.296 888.109 140.36V141.464C887.794 141.384 887.45 141.365 887.077 141.408C886.703 141.451 886.359 141.6 886.045 141.856C885.757 142.08 885.541 142.349 885.397 142.664C885.253 142.973 885.157 143.304 885.109 143.656C885.061 144.003 885.037 144.347 885.037 144.688V149H883.861ZM890.749 152.84L892.421 148.304L892.445 149.648L888.661 140.36H889.909L893.013 148.128H892.501L895.365 140.36H896.565L891.925 152.84H890.749ZM823.384 173.24C822.237 173.24 821.269 172.987 820.48 172.48C819.691 171.968 819.093 171.261 818.688 170.36C818.283 169.459 818.08 168.419 818.08 167.24C818.08 166.061 818.283 165.021 818.688 164.12C819.093 163.219 819.691 162.515 820.48 162.008C821.269 161.496 822.237 161.24 823.384 161.24C824.723 161.24 825.816 161.584 826.664 162.272C827.512 162.955 828.093 163.872 828.408 165.024L827.208 165.336C826.963 164.424 826.523 163.701 825.888 163.168C825.253 162.635 824.419 162.368 823.384 162.368C822.483 162.368 821.733 162.573 821.136 162.984C820.539 163.395 820.088 163.968 819.784 164.704C819.485 165.435 819.331 166.28 819.32 167.24C819.315 168.2 819.461 169.045 819.76 169.776C820.064 170.507 820.517 171.08 821.12 171.496C821.728 171.907 822.483 172.112 823.384 172.112C824.419 172.112 825.253 171.845 825.888 171.312C826.523 170.773 826.963 170.051 827.208 169.144L828.408 169.456C828.093 170.608 827.512 171.528 826.664 172.216C825.816 172.899 824.723 173.24 823.384 173.24ZM833.781 173.24C832.922 173.24 832.189 173.045 831.581 172.656C830.973 172.267 830.506 171.728 830.181 171.04C829.856 170.352 829.693 169.563 829.693 168.672C829.693 167.765 829.858 166.971 830.189 166.288C830.52 165.605 830.989 165.075 831.597 164.696C832.21 164.312 832.938 164.12 833.781 164.12C834.645 164.12 835.381 164.315 835.989 164.704C836.602 165.088 837.069 165.624 837.389 166.312C837.714 166.995 837.877 167.781 837.877 168.672C837.877 169.579 837.714 170.376 837.389 171.064C837.064 171.747 836.594 172.28 835.981 172.664C835.368 173.048 834.634 173.24 833.781 173.24ZM833.781 172.112C834.741 172.112 835.456 171.795 835.925 171.16C836.394 170.52 836.629 169.691 836.629 168.672C836.629 167.627 836.392 166.795 835.917 166.176C835.448 165.557 834.736 165.248 833.781 165.248C833.136 165.248 832.602 165.395 832.181 165.688C831.765 165.976 831.453 166.379 831.245 166.896C831.042 167.408 830.941 168 830.941 168.672C830.941 169.712 831.181 170.547 831.661 171.176C832.141 171.8 832.848 172.112 833.781 172.112ZM839.802 173V161.24H840.978V173H839.802ZM846.984 173.24C846.126 173.24 845.392 173.045 844.784 172.656C844.176 172.267 843.71 171.728 843.384 171.04C843.059 170.352 842.896 169.563 842.896 168.672C842.896 167.765 843.062 166.971 843.392 166.288C843.723 165.605 844.192 165.075 844.8 164.696C845.414 164.312 846.142 164.12 846.984 164.12C847.848 164.12 848.584 164.315 849.192 164.704C849.806 165.088 850.272 165.624 850.592 166.312C850.918 166.995 851.08 167.781 851.08 168.672C851.08 169.579 850.918 170.376 850.592 171.064C850.267 171.747 849.798 172.28 849.184 172.664C848.571 173.048 847.838 173.24 846.984 173.24ZM846.984 172.112C847.944 172.112 848.659 171.795 849.128 171.16C849.598 170.52 849.832 169.691 849.832 168.672C849.832 167.627 849.595 166.795 849.12 166.176C848.651 165.557 847.939 165.248 846.984 165.248C846.339 165.248 845.806 165.395 845.384 165.688C844.968 165.976 844.656 166.379 844.448 166.896C844.246 167.408 844.144 168 844.144 168.672C844.144 169.712 844.384 170.547 844.864 171.176C845.344 171.8 846.051 172.112 846.984 172.112ZM852.845 173V164.36H853.901V166.44L853.693 166.168C853.789 165.912 853.914 165.677 854.069 165.464C854.224 165.245 854.392 165.067 854.573 164.928C854.797 164.731 855.058 164.581 855.357 164.48C855.656 164.373 855.957 164.312 856.261 164.296C856.565 164.275 856.842 164.296 857.093 164.36V165.464C856.778 165.384 856.434 165.365 856.061 165.408C855.688 165.451 855.344 165.6 855.029 165.856C854.741 166.08 854.525 166.349 854.381 166.664C854.237 166.973 854.141 167.304 854.093 167.656C854.045 168.003 854.021 168.347 854.021 168.688V173H852.845Z" fill="white"/>
<rect x="958" width="154" height="244" rx="20" fill="#FFC0D5"/>
<path d="M984.77 207.98L985.83 204.08H982.2L982.8 201.81H986.43L987.05 199.46H983.42L984.04 197.2H987.66L988.63 193.6H990.98L990 197.2H992.46L993.43 193.6H995.78L994.8 197.2H998.43L997.82 199.46H994.2L993.56 201.81H997.19L996.58 204.08H992.96L991.92 207.98H989.57L990.61 204.08H988.16L987.12 207.98H984.77ZM988.78 201.81H991.22L991.85 199.46H989.4L988.78 201.81ZM1001.03 208V193.6H1009.7V196.01H1003.44V199.6H1008.5V202H1003.44V208H1001.03ZM1011.5 208V193.6H1020.17V196.01H1013.91V199.6H1018.97V202H1013.91V208H1011.5ZM1028.06 208.3C1026.62 208.3 1025.39 207.987 1024.36 207.36C1023.33 206.727 1022.54 205.847 1021.99 204.72C1021.44 203.593 1021.17 202.287 1021.17 200.8C1021.17 199.313 1021.44 198.007 1021.99 196.88C1022.54 195.753 1023.33 194.877 1024.36 194.25C1025.39 193.617 1026.62 193.3 1028.06 193.3C1029.72 193.3 1031.1 193.717 1032.21 194.55C1033.32 195.377 1034.09 196.493 1034.54 197.9L1032.11 198.57C1031.83 197.63 1031.35 196.897 1030.68 196.37C1030.01 195.837 1029.13 195.57 1028.06 195.57C1027.09 195.57 1026.29 195.787 1025.64 196.22C1025 196.653 1024.52 197.263 1024.19 198.05C1023.87 198.83 1023.71 199.747 1023.7 200.8C1023.7 201.853 1023.86 202.773 1024.18 203.56C1024.51 204.34 1024.99 204.947 1025.64 205.38C1026.29 205.813 1027.09 206.03 1028.06 206.03C1029.13 206.03 1030.01 205.763 1030.68 205.23C1031.35 204.697 1031.83 203.963 1032.11 203.03L1034.54 203.7C1034.09 205.107 1033.32 206.227 1032.21 207.06C1031.1 207.887 1029.72 208.3 1028.06 208.3ZM1041.92 208.3C1040.9 208.3 1040 208.083 1039.22 207.65C1038.44 207.21 1037.83 206.6 1037.39 205.82C1036.95 205.04 1036.74 204.14 1036.74 203.12V198.48C1036.74 197.46 1036.95 196.56 1037.39 195.78C1037.83 195 1038.44 194.393 1039.22 193.96C1040 193.52 1040.9 193.3 1041.92 193.3C1042.94 193.3 1043.83 193.52 1044.61 193.96C1045.39 194.393 1046 195 1046.44 195.78C1046.88 196.56 1047.1 197.46 1047.1 198.48V203.12C1047.1 204.14 1046.88 205.04 1046.44 205.82C1046 206.6 1045.39 207.21 1044.61 207.65C1043.83 208.083 1042.94 208.3 1041.92 208.3ZM1041.92 206.01C1042.42 206.01 1042.88 205.89 1043.3 205.65C1043.71 205.403 1044.04 205.077 1044.28 204.67C1044.52 204.257 1044.64 203.797 1044.64 203.29V198.3C1044.64 197.787 1044.52 197.327 1044.28 196.92C1044.04 196.507 1043.71 196.18 1043.3 195.94C1042.88 195.693 1042.42 195.57 1041.92 195.57C1041.41 195.57 1040.95 195.693 1040.54 195.94C1040.12 196.18 1039.8 196.507 1039.56 196.92C1039.32 197.327 1039.2 197.787 1039.2 198.3V203.29C1039.2 203.797 1039.32 204.257 1039.56 204.67C1039.8 205.077 1040.12 205.403 1040.54 205.65C1040.95 205.89 1041.41 206.01 1041.92 206.01ZM1049.9 208V193.6H1054.49C1054.61 193.6 1054.85 193.603 1055.2 193.61C1055.56 193.617 1055.91 193.64 1056.24 193.68C1057.38 193.827 1058.34 194.233 1059.13 194.9C1059.92 195.56 1060.52 196.403 1060.93 197.43C1061.34 198.457 1061.54 199.58 1061.54 200.8C1061.54 202.02 1061.34 203.143 1060.93 204.17C1060.52 205.197 1059.92 206.043 1059.13 206.71C1058.34 207.37 1057.38 207.773 1056.24 207.92C1055.91 207.96 1055.57 207.983 1055.21 207.99C1054.85 207.997 1054.61 208 1054.49 208H1049.9ZM1052.35 205.73H1054.49C1054.69 205.73 1054.94 205.723 1055.25 205.71C1055.56 205.697 1055.84 205.667 1056.08 205.62C1056.76 205.493 1057.31 205.19 1057.74 204.71C1058.17 204.23 1058.48 203.647 1058.68 202.96C1058.89 202.273 1058.99 201.553 1058.99 200.8C1058.99 200.02 1058.89 199.287 1058.68 198.6C1058.47 197.913 1058.15 197.337 1057.72 196.87C1057.29 196.403 1056.75 196.107 1056.08 195.98C1055.84 195.927 1055.56 195.897 1055.25 195.89C1054.94 195.877 1054.69 195.87 1054.49 195.87H1052.35V205.73ZM1068.17 208.3C1067.44 208.3 1066.76 208.15 1066.12 207.85C1065.49 207.543 1064.94 207.123 1064.48 206.59C1064.03 206.057 1063.7 205.437 1063.5 204.73L1065.82 204.11C1065.92 204.497 1066.09 204.83 1066.33 205.11C1066.59 205.39 1066.88 205.607 1067.21 205.76C1067.55 205.913 1067.9 205.99 1068.26 205.99C1068.73 205.99 1069.16 205.877 1069.54 205.65C1069.93 205.423 1070.24 205.12 1070.46 204.74C1070.69 204.353 1070.8 203.927 1070.8 203.46C1070.8 202.993 1070.69 202.57 1070.45 202.19C1070.23 201.803 1069.92 201.5 1069.53 201.28C1069.15 201.053 1068.72 200.94 1068.26 200.94C1067.71 200.94 1067.25 201.04 1066.88 201.24C1066.52 201.44 1066.25 201.653 1066.05 201.88L1063.99 201.22L1064.43 193.6H1072.25V195.86H1065.72L1066.62 195.01L1066.3 200.31L1065.86 199.77C1066.24 199.43 1066.67 199.177 1067.16 199.01C1067.66 198.843 1068.13 198.76 1068.59 198.76C1069.49 198.76 1070.29 198.967 1070.98 199.38C1071.68 199.787 1072.23 200.343 1072.62 201.05C1073.02 201.757 1073.22 202.56 1073.22 203.46C1073.22 204.36 1072.99 205.177 1072.52 205.91C1072.06 206.637 1071.44 207.217 1070.67 207.65C1069.91 208.083 1069.08 208.3 1068.17 208.3Z" fill="white"/>
<path d="M986.12 148.24C985.315 148.24 984.589 148.107 983.944 147.84C983.304 147.568 982.773 147.184 982.352 146.688C981.936 146.192 981.664 145.603 981.536 144.92L982.736 144.72C982.928 145.467 983.333 146.053 983.952 146.48C984.571 146.901 985.309 147.112 986.168 147.112C986.733 147.112 987.24 147.024 987.688 146.848C988.136 146.667 988.488 146.411 988.744 146.08C989 145.749 989.128 145.357 989.128 144.904C989.128 144.605 989.075 144.352 988.968 144.144C988.861 143.931 988.72 143.755 988.544 143.616C988.368 143.477 988.176 143.363 987.968 143.272C987.76 143.176 987.557 143.099 987.36 143.04L984.44 142.168C984.088 142.067 983.763 141.939 983.464 141.784C983.165 141.624 982.904 141.435 982.68 141.216C982.461 140.992 982.291 140.731 982.168 140.432C982.045 140.133 981.984 139.792 981.984 139.408C981.984 138.757 982.155 138.195 982.496 137.72C982.837 137.245 983.304 136.88 983.896 136.624C984.488 136.368 985.163 136.243 985.92 136.248C986.688 136.248 987.373 136.384 987.976 136.656C988.584 136.928 989.085 137.317 989.48 137.824C989.875 138.325 990.136 138.92 990.264 139.608L989.032 139.832C988.952 139.331 988.768 138.896 988.48 138.528C988.192 138.16 987.824 137.877 987.376 137.68C986.933 137.477 986.445 137.373 985.912 137.368C985.395 137.368 984.933 137.456 984.528 137.632C984.128 137.803 983.811 138.037 983.576 138.336C983.341 138.635 983.224 138.976 983.224 139.36C983.224 139.749 983.331 140.061 983.544 140.296C983.763 140.531 984.029 140.715 984.344 140.848C984.664 140.981 984.973 141.091 985.272 141.176L987.528 141.84C987.763 141.904 988.037 141.997 988.352 142.12C988.672 142.237 988.981 142.408 989.28 142.632C989.584 142.851 989.835 143.139 990.032 143.496C990.229 143.853 990.328 144.307 990.328 144.856C990.328 145.389 990.221 145.867 990.008 146.288C989.8 146.709 989.504 147.064 989.12 147.352C988.741 147.64 988.296 147.859 987.784 148.008C987.277 148.163 986.723 148.24 986.12 148.24ZM995.635 148.24C994.793 148.24 994.062 148.053 993.443 147.68C992.83 147.307 992.353 146.781 992.011 146.104C991.67 145.427 991.499 144.632 991.499 143.72C991.499 142.776 991.667 141.96 992.003 141.272C992.339 140.584 992.811 140.053 993.419 139.68C994.033 139.307 994.755 139.12 995.587 139.12C996.441 139.12 997.169 139.317 997.771 139.712C998.374 140.101 998.83 140.661 999.139 141.392C999.449 142.123 999.59 142.995 999.563 144.008H998.363V143.592C998.342 142.472 998.099 141.627 997.635 141.056C997.177 140.485 996.505 140.2 995.619 140.2C994.691 140.2 993.979 140.501 993.483 141.104C992.993 141.707 992.747 142.565 992.747 143.68C992.747 144.768 992.993 145.613 993.483 146.216C993.979 146.813 994.681 147.112 995.587 147.112C996.206 147.112 996.745 146.971 997.203 146.688C997.667 146.4 998.033 145.987 998.299 145.448L999.395 145.872C999.054 146.624 998.55 147.208 997.883 147.624C997.222 148.035 996.473 148.24 995.635 148.24ZM992.331 144.008V143.024H998.931V144.008H992.331ZM1004.92 148.24C1004.05 148.24 1003.32 148.045 1002.71 147.656C1002.11 147.267 1001.65 146.731 1001.34 146.048C1001.03 145.36 1000.87 144.571 1000.86 143.68C1000.87 142.773 1001.03 141.979 1001.35 141.296C1001.67 140.608 1002.14 140.075 1002.74 139.696C1003.34 139.312 1004.07 139.12 1004.93 139.12C1005.81 139.12 1006.57 139.333 1007.21 139.76C1007.86 140.187 1008.31 140.771 1008.55 141.512L1007.39 141.88C1007.19 141.363 1006.87 140.963 1006.43 140.68C1005.99 140.392 1005.49 140.248 1004.92 140.248C1004.29 140.248 1003.76 140.395 1003.35 140.688C1002.93 140.976 1002.62 141.379 1002.42 141.896C1002.22 142.413 1002.11 143.008 1002.11 143.68C1002.12 144.715 1002.36 145.547 1002.83 146.176C1003.3 146.8 1003.99 147.112 1004.92 147.112C1005.51 147.112 1006.01 146.979 1006.42 146.712C1006.83 146.44 1007.15 146.045 1007.36 145.528L1008.55 145.88C1008.23 146.648 1007.76 147.235 1007.14 147.64C1006.52 148.04 1005.78 148.24 1004.92 148.24ZM1013.57 148.24C1012.71 148.24 1011.98 148.045 1011.37 147.656C1010.76 147.267 1010.3 146.728 1009.97 146.04C1009.65 145.352 1009.48 144.563 1009.48 143.672C1009.48 142.765 1009.65 141.971 1009.98 141.288C1010.31 140.605 1010.78 140.075 1011.39 139.696C1012 139.312 1012.73 139.12 1013.57 139.12C1014.44 139.12 1015.17 139.315 1015.78 139.704C1016.39 140.088 1016.86 140.624 1017.18 141.312C1017.51 141.995 1017.67 142.781 1017.67 143.672C1017.67 144.579 1017.51 145.376 1017.18 146.064C1016.85 146.747 1016.39 147.28 1015.77 147.664C1015.16 148.048 1014.43 148.24 1013.57 148.24ZM1013.57 147.112C1014.53 147.112 1015.25 146.795 1015.72 146.16C1016.19 145.52 1016.42 144.691 1016.42 143.672C1016.42 142.627 1016.18 141.795 1015.71 141.176C1015.24 140.557 1014.53 140.248 1013.57 140.248C1012.93 140.248 1012.39 140.395 1011.97 140.688C1011.56 140.976 1011.24 141.379 1011.04 141.896C1010.83 142.408 1010.73 143 1010.73 143.672C1010.73 144.712 1010.97 145.547 1011.45 146.176C1011.93 146.8 1012.64 147.112 1013.57 147.112ZM1025.67 148V143.592C1025.67 143.112 1025.63 142.672 1025.54 142.272C1025.45 141.867 1025.3 141.515 1025.1 141.216C1024.9 140.912 1024.64 140.677 1024.32 140.512C1024.01 140.347 1023.62 140.264 1023.17 140.264C1022.75 140.264 1022.38 140.336 1022.06 140.48C1021.75 140.624 1021.48 140.832 1021.26 141.104C1021.05 141.371 1020.89 141.696 1020.78 142.08C1020.66 142.464 1020.61 142.901 1020.61 143.392L1019.78 143.208C1019.78 142.323 1019.93 141.579 1020.24 140.976C1020.55 140.373 1020.98 139.917 1021.52 139.608C1022.06 139.299 1022.69 139.144 1023.39 139.144C1023.91 139.144 1024.36 139.224 1024.74 139.384C1025.13 139.544 1025.46 139.76 1025.73 140.032C1026 140.304 1026.22 140.616 1026.38 140.968C1026.55 141.315 1026.67 141.685 1026.74 142.08C1026.82 142.469 1026.86 142.859 1026.86 143.248V148H1025.67ZM1019.42 148V139.36H1020.49V141.488H1020.61V148H1019.42ZM1032.24 148.24C1031.43 148.24 1030.74 148.04 1030.17 147.64C1029.6 147.235 1029.17 146.688 1028.86 146C1028.56 145.312 1028.41 144.536 1028.41 143.672C1028.41 142.813 1028.56 142.04 1028.85 141.352C1029.16 140.664 1029.59 140.12 1030.16 139.72C1030.72 139.32 1031.4 139.12 1032.19 139.12C1033 139.12 1033.68 139.317 1034.24 139.712C1034.79 140.107 1035.21 140.648 1035.49 141.336C1035.78 142.019 1035.93 142.797 1035.93 143.672C1035.93 144.531 1035.78 145.307 1035.5 146C1035.22 146.688 1034.8 147.235 1034.25 147.64C1033.7 148.04 1033.03 148.24 1032.24 148.24ZM1032.36 147.144C1032.97 147.144 1033.48 146.995 1033.88 146.696C1034.28 146.397 1034.58 145.987 1034.77 145.464C1034.97 144.936 1035.07 144.339 1035.07 143.672C1035.07 142.995 1034.97 142.397 1034.77 141.88C1034.58 141.357 1034.28 140.949 1033.88 140.656C1033.48 140.363 1032.98 140.216 1032.38 140.216C1031.76 140.216 1031.25 140.368 1030.85 140.672C1030.44 140.976 1030.14 141.389 1029.94 141.912C1029.75 142.435 1029.65 143.021 1029.65 143.672C1029.65 144.328 1029.75 144.92 1029.95 145.448C1030.15 145.971 1030.45 146.384 1030.85 146.688C1031.25 146.992 1031.76 147.144 1032.36 147.144ZM1035.07 148V141.496H1034.94V136.48H1036.13V148H1035.07ZM1040.84 148.24C1040.19 148.24 1039.64 148.123 1039.2 147.888C1038.76 147.653 1038.44 147.341 1038.22 146.952C1038 146.563 1037.89 146.139 1037.89 145.68C1037.89 145.211 1037.98 144.811 1038.17 144.48C1038.36 144.144 1038.62 143.869 1038.95 143.656C1039.28 143.443 1039.66 143.28 1040.09 143.168C1040.53 143.061 1041.01 142.968 1041.54 142.888C1042.07 142.803 1042.59 142.731 1043.1 142.672C1043.61 142.608 1044.06 142.547 1044.44 142.488L1044.03 142.744C1044.04 141.891 1043.88 141.259 1043.53 140.848C1043.18 140.437 1042.58 140.232 1041.72 140.232C1041.13 140.232 1040.63 140.365 1040.22 140.632C1039.81 140.899 1039.53 141.32 1039.36 141.896L1038.22 141.56C1038.42 140.787 1038.81 140.187 1039.41 139.76C1040.01 139.333 1040.78 139.12 1041.74 139.12C1042.53 139.12 1043.2 139.269 1043.75 139.568C1044.3 139.861 1044.69 140.288 1044.92 140.848C1045.03 141.099 1045.1 141.379 1045.13 141.688C1045.16 141.997 1045.18 142.312 1045.18 142.632V148H1044.13V145.832L1044.43 145.96C1044.14 146.701 1043.68 147.267 1043.07 147.656C1042.45 148.045 1041.71 148.24 1040.84 148.24ZM1040.98 147.224C1041.53 147.224 1042.01 147.125 1042.42 146.928C1042.83 146.731 1043.16 146.461 1043.41 146.12C1043.66 145.773 1043.82 145.384 1043.9 144.952C1043.96 144.675 1044 144.371 1044 144.04C1044.01 143.704 1044.01 143.453 1044.01 143.288L1044.46 143.52C1044.06 143.573 1043.62 143.627 1043.15 143.68C1042.69 143.733 1042.23 143.795 1041.78 143.864C1041.33 143.933 1040.92 144.016 1040.56 144.112C1040.32 144.181 1040.08 144.28 1039.85 144.408C1039.62 144.531 1039.43 144.696 1039.28 144.904C1039.14 145.112 1039.07 145.371 1039.07 145.68C1039.07 145.931 1039.13 146.173 1039.25 146.408C1039.38 146.643 1039.58 146.837 1039.86 146.992C1040.14 147.147 1040.51 147.224 1040.98 147.224ZM1047.26 148V139.36H1048.32V141.44L1048.11 141.168C1048.2 140.912 1048.33 140.677 1048.48 140.464C1048.64 140.245 1048.81 140.067 1048.99 139.928C1049.21 139.731 1049.47 139.581 1049.77 139.48C1050.07 139.373 1050.37 139.312 1050.68 139.296C1050.98 139.275 1051.26 139.296 1051.51 139.36V140.464C1051.19 140.384 1050.85 140.365 1050.48 140.408C1050.1 140.451 1049.76 140.6 1049.44 140.856C1049.16 141.08 1048.94 141.349 1048.8 141.664C1048.65 141.973 1048.56 142.304 1048.51 142.656C1048.46 143.003 1048.44 143.347 1048.44 143.688V148H1047.26ZM1054.15 151.84L1055.82 147.304L1055.84 148.648L1052.06 139.36H1053.31L1056.41 147.128H1055.9L1058.76 139.36H1059.96L1055.32 151.84H1054.15ZM986.784 172.24C985.637 172.24 984.669 171.987 983.88 171.48C983.091 170.968 982.493 170.261 982.088 169.36C981.683 168.459 981.48 167.419 981.48 166.24C981.48 165.061 981.683 164.021 982.088 163.12C982.493 162.219 983.091 161.515 983.88 161.008C984.669 160.496 985.637 160.24 986.784 160.24C988.123 160.24 989.216 160.584 990.064 161.272C990.912 161.955 991.493 162.872 991.808 164.024L990.608 164.336C990.363 163.424 989.923 162.701 989.288 162.168C988.653 161.635 987.819 161.368 986.784 161.368C985.883 161.368 985.133 161.573 984.536 161.984C983.939 162.395 983.488 162.968 983.184 163.704C982.885 164.435 982.731 165.28 982.72 166.24C982.715 167.2 982.861 168.045 983.16 168.776C983.464 169.507 983.917 170.08 984.52 170.496C985.128 170.907 985.883 171.112 986.784 171.112C987.819 171.112 988.653 170.845 989.288 170.312C989.923 169.773 990.363 169.051 990.608 168.144L991.808 168.456C991.493 169.608 990.912 170.528 990.064 171.216C989.216 171.899 988.123 172.24 986.784 172.24ZM997.181 172.24C996.323 172.24 995.589 172.045 994.981 171.656C994.373 171.267 993.907 170.728 993.581 170.04C993.256 169.352 993.093 168.563 993.093 167.672C993.093 166.765 993.259 165.971 993.589 165.288C993.92 164.605 994.389 164.075 994.997 163.696C995.611 163.312 996.339 163.12 997.181 163.12C998.045 163.12 998.781 163.315 999.389 163.704C1000 164.088 1000.47 164.624 1000.79 165.312C1001.11 165.995 1001.28 166.781 1001.28 167.672C1001.28 168.579 1001.11 169.376 1000.79 170.064C1000.46 170.747 999.995 171.28 999.381 171.664C998.768 172.048 998.035 172.24 997.181 172.24ZM997.181 171.112C998.141 171.112 998.856 170.795 999.325 170.16C999.795 169.52 1000.03 168.691 1000.03 167.672C1000.03 166.627 999.792 165.795 999.317 165.176C998.848 164.557 998.136 164.248 997.181 164.248C996.536 164.248 996.003 164.395 995.581 164.688C995.165 164.976 994.853 165.379 994.645 165.896C994.443 166.408 994.341 167 994.341 167.672C994.341 168.712 994.581 169.547 995.061 170.176C995.541 170.8 996.248 171.112 997.181 171.112ZM1003.2 172V160.24H1004.38V172H1003.2ZM1010.38 172.24C1009.53 172.24 1008.79 172.045 1008.18 171.656C1007.58 171.267 1007.11 170.728 1006.78 170.04C1006.46 169.352 1006.3 168.563 1006.3 167.672C1006.3 166.765 1006.46 165.971 1006.79 165.288C1007.12 164.605 1007.59 164.075 1008.2 163.696C1008.81 163.312 1009.54 163.12 1010.38 163.12C1011.25 163.12 1011.98 163.315 1012.59 163.704C1013.21 164.088 1013.67 164.624 1013.99 165.312C1014.32 165.995 1014.48 166.781 1014.48 167.672C1014.48 168.579 1014.32 169.376 1013.99 170.064C1013.67 170.747 1013.2 171.28 1012.58 171.664C1011.97 172.048 1011.24 172.24 1010.38 172.24ZM1010.38 171.112C1011.34 171.112 1012.06 170.795 1012.53 170.16C1013 169.52 1013.23 168.691 1013.23 167.672C1013.23 166.627 1012.99 165.795 1012.52 165.176C1012.05 164.557 1011.34 164.248 1010.38 164.248C1009.74 164.248 1009.21 164.395 1008.78 164.688C1008.37 164.976 1008.06 165.379 1007.85 165.896C1007.65 166.408 1007.54 167 1007.54 167.672C1007.54 168.712 1007.78 169.547 1008.26 170.176C1008.74 170.8 1009.45 171.112 1010.38 171.112ZM1016.25 172V163.36H1017.3V165.44L1017.09 165.168C1017.19 164.912 1017.31 164.677 1017.47 164.464C1017.62 164.245 1017.79 164.067 1017.97 163.928C1018.2 163.731 1018.46 163.581 1018.76 163.48C1019.06 163.373 1019.36 163.312 1019.66 163.296C1019.97 163.275 1020.24 163.296 1020.49 163.36V164.464C1020.18 164.384 1019.83 164.365 1019.46 164.408C1019.09 164.451 1018.74 164.6 1018.43 164.856C1018.14 165.08 1017.93 165.349 1017.78 165.664C1017.64 165.973 1017.54 166.304 1017.49 166.656C1017.45 167.003 1017.42 167.347 1017.42 167.688V172H1016.25Z" fill="white"/>
</svg>
