<svg width="1107" height="429" viewBox="0 0 1107 429" fill="none" xmlns="http://www.w3.org/2000/svg">
<path d="M70.1172 64.3945L29.5898 185H1.17188L54.2969 42.8125H72.4609L70.1172 64.3945ZM104.004 185L63.2812 64.3945L60.8398 42.8125H79.1016L132.52 185H104.004ZM102.148 132.168V153.359H25.8789V132.168H102.148ZM261.426 42.8125V185H234.473L174.023 86.3672V185H147.168V42.8125H174.023L234.668 141.543V42.8125H261.426ZM315.625 42.8125V185H288.77V42.8125H315.625ZM400.977 42.8125L343.945 112.148L311.328 147.012L306.543 120.938L329.199 91.543L368.066 42.8125H400.977ZM371.094 185L326.855 118.398L346.094 101.016L403.027 185H371.094ZM494.629 42.8125H521.484V137.246C521.484 148.118 519.141 157.266 514.453 164.688C509.766 172.044 503.385 177.611 495.312 181.387C487.24 185.098 478.06 186.953 467.773 186.953C457.357 186.953 448.079 185.098 439.941 181.387C431.803 177.611 425.423 172.044 420.801 164.688C416.178 157.266 413.867 148.118 413.867 137.246V42.8125H440.723V137.246C440.723 143.887 441.829 149.323 444.043 153.555C446.257 157.721 449.382 160.814 453.418 162.832C457.454 164.85 462.24 165.859 467.773 165.859C473.372 165.859 478.158 164.85 482.129 162.832C486.165 160.814 489.258 157.721 491.406 153.555C493.555 149.323 494.629 143.887 494.629 137.246V42.8125ZM621.387 148.086C621.387 145.352 620.964 142.91 620.117 140.762C619.336 138.548 617.871 136.562 615.723 134.805C613.639 132.982 610.677 131.224 606.836 129.531C603.06 127.773 598.177 125.951 592.188 124.062C585.547 121.979 579.362 119.635 573.633 117.031C567.904 114.427 562.858 111.4 558.496 107.949C554.199 104.499 550.846 100.527 548.438 96.0352C546.029 91.4779 544.824 86.2044 544.824 80.2148C544.824 74.3555 546.061 69.0169 548.535 64.1992C551.074 59.3815 554.655 55.2474 559.277 51.7969C563.9 48.2812 569.336 45.5794 575.586 43.6914C581.901 41.8034 588.867 40.8594 596.484 40.8594C607.031 40.8594 616.146 42.7799 623.828 46.6211C631.576 50.4622 637.565 55.6706 641.797 62.2461C646.029 68.8216 648.145 76.2109 648.145 84.4141H621.387C621.387 79.987 620.443 76.0807 618.555 72.6953C616.732 69.3099 613.932 66.6406 610.156 64.6875C606.445 62.7344 601.758 61.7578 596.094 61.7578C590.625 61.7578 586.068 62.5716 582.422 64.1992C578.841 65.8268 576.139 68.0404 574.316 70.8398C572.559 73.6393 571.68 76.7643 571.68 80.2148C571.68 82.819 572.298 85.1628 573.535 87.2461C574.772 89.2643 576.628 91.1849 579.102 93.0078C581.576 94.7656 584.635 96.4258 588.281 97.9883C591.992 99.4857 596.289 100.983 601.172 102.48C608.984 104.824 615.82 107.428 621.68 110.293C627.604 113.158 632.52 116.413 636.426 120.059C640.397 123.704 643.359 127.806 645.312 132.363C647.331 136.921 648.34 142.096 648.34 147.891C648.34 154.01 647.135 159.479 644.727 164.297C642.318 169.115 638.867 173.216 634.375 176.602C629.883 179.987 624.479 182.559 618.164 184.316C611.914 186.074 604.915 186.953 597.168 186.953C590.267 186.953 583.431 186.042 576.66 184.219C569.954 182.331 563.867 179.531 558.398 175.82C552.93 172.044 548.568 167.292 545.312 161.562C542.057 155.768 540.43 148.997 540.43 141.25H567.383C567.383 145.742 568.099 149.583 569.531 152.773C571.029 155.898 573.112 158.47 575.781 160.488C578.516 162.441 581.706 163.874 585.352 164.785C588.997 165.697 592.936 166.152 597.168 166.152C602.637 166.152 607.129 165.404 610.645 163.906C614.225 162.344 616.895 160.195 618.652 157.461C620.475 154.727 621.387 151.602 621.387 148.086ZM763.379 101.504V122.598H688.574V101.504H763.379ZM695.898 42.8125V185H669.043V42.8125H695.898ZM783.301 42.8125V185H756.445V42.8125H783.301Z" fill="black"/>
<mask id="path-2-outside-1_1141_6" maskUnits="userSpaceOnUse" x="3" y="229" width="1105" height="159" fill="black">
<rect fill="white" x="3" y="229" width="1105" height="159"/>
<path d="M124.512 306.465V361.836C122.428 364.505 119.141 367.402 114.648 370.527C110.221 373.652 104.427 376.354 97.2656 378.633C90.1042 380.846 81.3151 381.953 70.8984 381.953C61.849 381.953 53.5807 380.456 46.0938 377.461C38.6068 374.401 32.1615 369.941 26.7578 364.082C21.3542 358.223 17.1875 351.061 14.2578 342.598C11.3281 334.134 9.86328 324.466 9.86328 313.594V304.219C9.86328 293.346 11.2305 283.678 13.9648 275.215C16.7643 266.751 20.7357 259.59 25.8789 253.73C31.0872 247.871 37.3047 243.411 44.5312 240.352C51.8229 237.292 59.9609 235.762 68.9453 235.762C80.9896 235.762 90.8854 237.747 98.6328 241.719C106.445 245.69 112.435 251.159 116.602 258.125C120.768 265.026 123.372 272.969 124.414 281.953H98.2422C97.526 277.005 96.0938 272.676 93.9453 268.965C91.7969 265.189 88.737 262.259 84.7656 260.176C80.8594 258.027 75.7812 256.953 69.5312 256.953C64.2578 256.953 59.6029 257.995 55.5664 260.078C51.5299 262.161 48.1445 265.189 45.4102 269.16C42.6758 273.132 40.5924 278.047 39.1602 283.906C37.793 289.766 37.1094 296.471 37.1094 304.023V313.594C37.1094 321.211 37.8906 327.982 39.4531 333.906C41.0156 339.766 43.2617 344.714 46.1914 348.75C49.1862 352.721 52.8646 355.749 57.2266 357.832C61.6536 359.85 66.6667 360.859 72.2656 360.859C77.3438 360.859 81.543 360.436 84.8633 359.59C88.2487 358.678 90.9505 357.604 92.9688 356.367C94.987 355.13 96.5495 353.926 97.6562 352.754V326.094H69.4336V306.465H124.512ZM206.445 259.395L165.918 380H137.5L190.625 237.812H208.789L206.445 259.395ZM240.332 380L199.609 259.395L197.168 237.812H215.43L268.848 380H240.332ZM238.477 327.168V348.359H162.207V327.168H238.477ZM377.832 296.504V317.598H303.027V296.504H377.832ZM310.352 237.812V380H283.496V237.812H310.352ZM397.754 237.812V380H370.898V237.812H397.754ZM483.398 259.395L442.871 380H414.453L467.578 237.812H485.742L483.398 259.395ZM517.285 380L476.562 259.395L474.121 237.812H492.383L545.801 380H517.285ZM515.43 327.168V348.359H439.16V327.168H515.43ZM560.449 237.812H612.109C622.917 237.812 632.194 239.44 639.941 242.695C647.689 245.951 653.646 250.768 657.812 257.148C661.979 263.529 664.062 271.374 664.062 280.684C664.062 288.04 662.76 294.421 660.156 299.824C657.552 305.228 653.874 309.753 649.121 313.398C644.434 317.044 638.9 319.909 632.52 321.992L624.121 326.289H578.516L578.32 305.098H612.402C617.936 305.098 622.526 304.121 626.172 302.168C629.818 300.215 632.552 297.513 634.375 294.062C636.263 290.612 637.207 286.673 637.207 282.246C637.207 277.493 636.296 273.392 634.473 269.941C632.65 266.426 629.883 263.724 626.172 261.836C622.461 259.948 617.773 259.004 612.109 259.004H587.305V380H560.449V237.812ZM640.723 380L607.812 316.328L636.23 316.23L669.531 378.633V380H640.723ZM722.559 352.754L750.879 237.812H766.211L767.188 262.031L736.914 380H720.703L722.559 352.754ZM704.688 237.812L727.93 352.363V380H710.254L678.027 237.812H704.688ZM796.582 351.875L819.434 237.812H846.191L813.965 380H796.289L796.582 351.875ZM773.535 237.812L801.855 353.145L803.516 380H787.305L757.129 261.934L758.301 237.812H773.535ZM915.43 259.395L874.902 380H846.484L899.609 237.812H917.773L915.43 259.395ZM949.316 380L908.594 259.395L906.152 237.812H924.414L977.832 380H949.316ZM947.461 327.168V348.359H871.191V327.168H947.461ZM992.48 237.812H1044.14C1054.95 237.812 1064.23 239.44 1071.97 242.695C1079.72 245.951 1085.68 250.768 1089.84 257.148C1094.01 263.529 1096.09 271.374 1096.09 280.684C1096.09 288.04 1094.79 294.421 1092.19 299.824C1089.58 305.228 1085.9 309.753 1081.15 313.398C1076.46 317.044 1070.93 319.909 1064.55 321.992L1056.15 326.289H1010.55L1010.35 305.098H1044.43C1049.97 305.098 1054.56 304.121 1058.2 302.168C1061.85 300.215 1064.58 297.513 1066.41 294.062C1068.29 290.612 1069.24 286.673 1069.24 282.246C1069.24 277.493 1068.33 273.392 1066.5 269.941C1064.68 266.426 1061.91 263.724 1058.2 261.836C1054.49 259.948 1049.8 259.004 1044.14 259.004H1019.34V380H992.48V237.812ZM1072.75 380L1039.84 316.328L1068.26 316.23L1101.56 378.633V380H1072.75Z"/>
</mask>
<path d="M124.512 306.465V361.836C122.428 364.505 119.141 367.402 114.648 370.527C110.221 373.652 104.427 376.354 97.2656 378.633C90.1042 380.846 81.3151 381.953 70.8984 381.953C61.849 381.953 53.5807 380.456 46.0938 377.461C38.6068 374.401 32.1615 369.941 26.7578 364.082C21.3542 358.223 17.1875 351.061 14.2578 342.598C11.3281 334.134 9.86328 324.466 9.86328 313.594V304.219C9.86328 293.346 11.2305 283.678 13.9648 275.215C16.7643 266.751 20.7357 259.59 25.8789 253.73C31.0872 247.871 37.3047 243.411 44.5312 240.352C51.8229 237.292 59.9609 235.762 68.9453 235.762C80.9896 235.762 90.8854 237.747 98.6328 241.719C106.445 245.69 112.435 251.159 116.602 258.125C120.768 265.026 123.372 272.969 124.414 281.953H98.2422C97.526 277.005 96.0938 272.676 93.9453 268.965C91.7969 265.189 88.737 262.259 84.7656 260.176C80.8594 258.027 75.7812 256.953 69.5312 256.953C64.2578 256.953 59.6029 257.995 55.5664 260.078C51.5299 262.161 48.1445 265.189 45.4102 269.16C42.6758 273.132 40.5924 278.047 39.1602 283.906C37.793 289.766 37.1094 296.471 37.1094 304.023V313.594C37.1094 321.211 37.8906 327.982 39.4531 333.906C41.0156 339.766 43.2617 344.714 46.1914 348.75C49.1862 352.721 52.8646 355.749 57.2266 357.832C61.6536 359.85 66.6667 360.859 72.2656 360.859C77.3438 360.859 81.543 360.436 84.8633 359.59C88.2487 358.678 90.9505 357.604 92.9688 356.367C94.987 355.13 96.5495 353.926 97.6562 352.754V326.094H69.4336V306.465H124.512ZM206.445 259.395L165.918 380H137.5L190.625 237.812H208.789L206.445 259.395ZM240.332 380L199.609 259.395L197.168 237.812H215.43L268.848 380H240.332ZM238.477 327.168V348.359H162.207V327.168H238.477ZM377.832 296.504V317.598H303.027V296.504H377.832ZM310.352 237.812V380H283.496V237.812H310.352ZM397.754 237.812V380H370.898V237.812H397.754ZM483.398 259.395L442.871 380H414.453L467.578 237.812H485.742L483.398 259.395ZM517.285 380L476.562 259.395L474.121 237.812H492.383L545.801 380H517.285ZM515.43 327.168V348.359H439.16V327.168H515.43ZM560.449 237.812H612.109C622.917 237.812 632.194 239.44 639.941 242.695C647.689 245.951 653.646 250.768 657.812 257.148C661.979 263.529 664.062 271.374 664.062 280.684C664.062 288.04 662.76 294.421 660.156 299.824C657.552 305.228 653.874 309.753 649.121 313.398C644.434 317.044 638.9 319.909 632.52 321.992L624.121 326.289H578.516L578.32 305.098H612.402C617.936 305.098 622.526 304.121 626.172 302.168C629.818 300.215 632.552 297.513 634.375 294.062C636.263 290.612 637.207 286.673 637.207 282.246C637.207 277.493 636.296 273.392 634.473 269.941C632.65 266.426 629.883 263.724 626.172 261.836C622.461 259.948 617.773 259.004 612.109 259.004H587.305V380H560.449V237.812ZM640.723 380L607.812 316.328L636.23 316.23L669.531 378.633V380H640.723ZM722.559 352.754L750.879 237.812H766.211L767.188 262.031L736.914 380H720.703L722.559 352.754ZM704.688 237.812L727.93 352.363V380H710.254L678.027 237.812H704.688ZM796.582 351.875L819.434 237.812H846.191L813.965 380H796.289L796.582 351.875ZM773.535 237.812L801.855 353.145L803.516 380H787.305L757.129 261.934L758.301 237.812H773.535ZM915.43 259.395L874.902 380H846.484L899.609 237.812H917.773L915.43 259.395ZM949.316 380L908.594 259.395L906.152 237.812H924.414L977.832 380H949.316ZM947.461 327.168V348.359H871.191V327.168H947.461ZM992.48 237.812H1044.14C1054.95 237.812 1064.23 239.44 1071.97 242.695C1079.72 245.951 1085.68 250.768 1089.84 257.148C1094.01 263.529 1096.09 271.374 1096.09 280.684C1096.09 288.04 1094.79 294.421 1092.19 299.824C1089.58 305.228 1085.9 309.753 1081.15 313.398C1076.46 317.044 1070.93 319.909 1064.55 321.992L1056.15 326.289H1010.55L1010.35 305.098H1044.43C1049.97 305.098 1054.56 304.121 1058.2 302.168C1061.85 300.215 1064.58 297.513 1066.41 294.062C1068.29 290.612 1069.24 286.673 1069.24 282.246C1069.24 277.493 1068.33 273.392 1066.5 269.941C1064.68 266.426 1061.91 263.724 1058.2 261.836C1054.49 259.948 1049.8 259.004 1044.14 259.004H1019.34V380H992.48V237.812ZM1072.75 380L1039.84 316.328L1068.26 316.23L1101.56 378.633V380H1072.75Z" fill="white"/>
<path d="M124.512 306.465H130.512V300.465H124.512V306.465ZM124.512 361.836L129.242 365.528L130.512 363.9V361.836H124.512ZM114.648 370.527L111.222 365.602L111.205 365.614L111.188 365.626L114.648 370.527ZM97.2656 378.633L99.0375 384.365L99.0612 384.358L99.0848 384.35L97.2656 378.633ZM46.0938 377.461L43.8238 383.015L43.8446 383.023L43.8654 383.032L46.0938 377.461ZM26.7578 364.082L31.1685 360.014L26.7578 364.082ZM13.9648 275.215L8.26838 273.331L8.26183 273.35L8.25542 273.37L13.9648 275.215ZM25.8789 253.73L21.3945 249.744L21.382 249.758L21.3697 249.772L25.8789 253.73ZM44.5312 240.352L42.2095 234.819L42.2007 234.823L42.1918 234.826L44.5312 240.352ZM98.6328 241.719L95.8958 247.058L95.9049 247.063L95.9139 247.067L98.6328 241.719ZM116.602 258.125L111.452 261.205L111.459 261.216L111.465 261.226L116.602 258.125ZM124.414 281.953V287.953H131.15L130.374 281.262L124.414 281.953ZM98.2422 281.953L92.3041 282.813L93.0481 287.953H98.2422V281.953ZM93.9453 268.965L88.7303 271.932L88.7415 271.952L88.7528 271.971L93.9453 268.965ZM84.7656 260.176L81.8741 265.433L81.9259 265.462L81.9783 265.489L84.7656 260.176ZM39.1602 283.906L33.3318 282.482L33.3243 282.512L33.3171 282.543L39.1602 283.906ZM39.4531 333.906L33.6515 335.436L33.6536 335.444L33.6557 335.452L39.4531 333.906ZM46.1914 348.75L41.3356 352.274L41.3678 352.319L41.4008 352.363L46.1914 348.75ZM57.2266 357.832L54.6407 363.246L54.689 363.269L54.7377 363.291L57.2266 357.832ZM84.8633 359.59L86.3453 365.404L86.3843 365.394L86.4231 365.384L84.8633 359.59ZM97.6562 352.754L102.018 356.874L103.656 355.139V352.754H97.6562ZM97.6562 326.094H103.656V320.094H97.6562V326.094ZM69.4336 326.094H63.4336V332.094H69.4336V326.094ZM69.4336 306.465V300.465H63.4336V306.465H69.4336ZM118.512 306.465V361.836H130.512V306.465H118.512ZM119.782 358.144C118.225 360.139 115.485 362.637 111.222 365.602L118.075 375.453C122.797 372.168 126.632 368.871 129.242 365.528L119.782 358.144ZM111.188 365.626C107.415 368.289 102.231 370.756 95.4464 372.915L99.0848 384.35C106.623 381.952 113.027 379.016 118.109 375.429L111.188 365.626ZM95.4938 372.9C89.081 374.883 80.9298 375.953 70.8984 375.953V387.953C81.7004 387.953 91.1273 386.81 99.0375 384.365L95.4938 372.9ZM70.8984 375.953C62.5193 375.953 55.0189 374.569 48.3221 371.89L43.8654 383.032C52.1426 386.343 61.1786 387.953 70.8984 387.953V375.953ZM48.3637 371.907C41.6782 369.175 35.9671 365.218 31.1685 360.014L22.3471 368.15C28.3558 374.665 35.5354 379.628 43.8238 383.015L48.3637 371.907ZM31.1685 360.014C26.3905 354.833 22.6206 348.414 19.9277 340.635L8.5879 344.56C11.7544 353.708 16.3179 361.612 22.3471 368.15L31.1685 360.014ZM19.9277 340.635C17.2576 332.921 15.8633 323.936 15.8633 313.594H3.86328C3.86328 324.996 5.39865 335.347 8.5879 344.56L19.9277 340.635ZM15.8633 313.594V304.219H3.86328V313.594H15.8633ZM15.8633 304.219C15.8633 293.839 17.1697 284.812 19.6743 277.059L8.25542 273.37C5.29123 282.545 3.86328 292.854 3.86328 304.219H15.8633ZM19.6613 277.099C22.2441 269.291 25.8465 262.863 30.3882 257.689L21.3697 249.772C15.6249 256.317 11.2845 264.212 8.26838 273.331L19.6613 277.099ZM30.3634 257.717C34.9792 252.524 40.4637 248.59 46.8707 245.877L42.1918 234.826C34.1457 238.233 27.1953 243.218 21.3945 249.744L30.3634 257.717ZM46.853 245.884C53.316 243.172 60.6502 241.762 68.9453 241.762V229.762C59.2717 229.762 50.3298 231.411 42.2095 234.819L46.853 245.884ZM68.9453 241.762C80.3828 241.762 89.2568 243.655 95.8958 247.058L101.37 236.379C92.5141 231.84 81.5964 229.762 68.9453 229.762V241.762ZM95.9139 247.067C102.802 250.569 107.912 255.286 111.452 261.205L121.751 255.045C116.958 247.031 110.088 240.811 101.352 236.37L95.9139 247.067ZM111.465 261.226C115.137 267.307 117.499 274.408 118.454 282.644L130.374 281.262C129.246 271.529 126.4 262.745 121.738 255.024L111.465 261.226ZM124.414 275.953H98.2422V287.953H124.414V275.953ZM104.18 281.094C103.373 275.513 101.727 270.431 99.1379 265.959L88.7528 271.971C90.4602 274.92 91.6795 278.498 92.3041 282.813L104.18 281.094ZM99.1603 265.998C96.4248 261.19 92.5067 257.461 87.5529 254.862L81.9783 265.489C84.9672 267.057 87.1689 269.188 88.7303 271.932L99.1603 265.998ZM87.6571 254.918C82.5802 252.126 76.4079 250.953 69.5312 250.953V262.953C75.1546 262.953 79.1385 263.929 81.8741 265.433L87.6571 254.918ZM69.5312 250.953C63.4548 250.953 57.8292 252.158 52.8145 254.746L58.3183 265.41C61.3765 263.831 65.0609 262.953 69.5312 262.953V250.953ZM52.8145 254.746C47.8464 257.311 43.7273 261.024 40.4683 265.758L50.352 272.563C52.5618 269.353 55.2135 267.012 58.3183 265.41L52.8145 254.746ZM40.4683 265.758C37.2316 270.458 34.8953 276.085 33.3318 282.482L44.9886 285.331C46.2896 280.008 48.12 275.805 50.352 272.563L40.4683 265.758ZM33.3171 282.543C31.8231 288.946 31.1094 296.123 31.1094 304.023H43.1094C43.1094 296.82 43.7628 290.586 45.0032 285.27L33.3171 282.543ZM31.1094 304.023V313.594H43.1094V304.023H31.1094ZM31.1094 313.594C31.1094 321.608 31.93 328.909 33.6515 335.436L45.2547 332.376C43.8513 327.055 43.1094 320.814 43.1094 313.594H31.1094ZM33.6557 335.452C35.3682 341.874 37.891 347.529 41.3356 352.274L51.0472 345.226C48.6324 341.899 46.663 337.657 45.2505 332.36L33.6557 335.452ZM41.4008 352.363C44.9579 357.08 49.3842 360.736 54.6407 363.246L59.8124 352.418C56.345 350.762 53.4145 348.363 50.982 345.137L41.4008 352.363ZM54.7377 363.291C60.0556 365.716 65.9369 366.859 72.2656 366.859V354.859C67.3964 354.859 63.2517 353.985 59.7154 352.373L54.7377 363.291ZM72.2656 366.859C77.6281 366.859 82.3688 366.418 86.3453 365.404L83.3813 353.776C80.7171 354.455 77.0594 354.859 72.2656 354.859V366.859ZM86.4231 365.384C90.1238 364.387 93.4217 363.127 96.1041 361.483L89.8334 351.252C88.4794 352.081 86.3736 352.97 83.3034 353.796L86.4231 365.384ZM96.1041 361.483C98.3835 360.086 100.422 358.564 102.018 356.874L93.2942 348.634C92.677 349.288 91.5905 350.175 89.8334 351.252L96.1041 361.483ZM103.656 352.754V326.094H91.6562V352.754H103.656ZM97.6562 320.094H69.4336V332.094H97.6562V320.094ZM75.4336 326.094V306.465H63.4336V326.094H75.4336ZM69.4336 312.465H124.512V300.465H69.4336V312.465ZM206.445 259.395L212.133 261.306L212.34 260.689L212.41 260.042L206.445 259.395ZM165.918 380V386H170.231L171.605 381.911L165.918 380ZM137.5 380L131.879 377.9L128.853 386H137.5V380ZM190.625 237.812V231.812H186.462L185.004 235.713L190.625 237.812ZM208.789 237.812L214.754 238.46L215.476 231.812H208.789V237.812ZM240.332 380L234.647 381.919L236.025 386H240.332V380ZM199.609 259.395L193.647 260.069L193.719 260.706L193.925 261.314L199.609 259.395ZM197.168 237.812V231.812H190.451L191.206 238.487L197.168 237.812ZM215.43 237.812L221.046 235.702L219.585 231.812H215.43V237.812ZM268.848 380V386H277.511L274.464 377.89L268.848 380ZM238.477 327.168H244.477V321.168H238.477V327.168ZM238.477 348.359V354.359H244.477V348.359H238.477ZM162.207 348.359H156.207V354.359H162.207V348.359ZM162.207 327.168V321.168H156.207V327.168H162.207ZM200.758 257.483L160.23 378.089L171.605 381.911L212.133 261.306L200.758 257.483ZM165.918 374H137.5V386H165.918V374ZM143.121 382.1L196.246 239.912L185.004 235.713L131.879 377.9L143.121 382.1ZM190.625 243.812H208.789V231.812H190.625V243.812ZM202.824 237.165L200.48 258.747L212.41 260.042L214.754 238.46L202.824 237.165ZM246.017 378.081L205.294 257.475L193.925 261.314L234.647 381.919L246.017 378.081ZM205.571 258.72L203.13 237.138L191.206 238.487L193.647 260.069L205.571 258.72ZM197.168 243.812H215.43V231.812H197.168V243.812ZM209.813 239.923L263.231 382.11L274.464 377.89L221.046 235.702L209.813 239.923ZM268.848 374H240.332V386H268.848V374ZM232.477 327.168V348.359H244.477V327.168H232.477ZM238.477 342.359H162.207V354.359H238.477V342.359ZM168.207 348.359V327.168H156.207V348.359H168.207ZM162.207 333.168H238.477V321.168H162.207V333.168ZM377.832 296.504H383.832V290.504H377.832V296.504ZM377.832 317.598V323.598H383.832V317.598H377.832ZM303.027 317.598H297.027V323.598H303.027V317.598ZM303.027 296.504V290.504H297.027V296.504H303.027ZM310.352 237.812H316.352V231.812H310.352V237.812ZM310.352 380V386H316.352V380H310.352ZM283.496 380H277.496V386H283.496V380ZM283.496 237.812V231.812H277.496V237.812H283.496ZM397.754 237.812H403.754V231.812H397.754V237.812ZM397.754 380V386H403.754V380H397.754ZM370.898 380H364.898V386H370.898V380ZM370.898 237.812V231.812H364.898V237.812H370.898ZM371.832 296.504V317.598H383.832V296.504H371.832ZM377.832 311.598H303.027V323.598H377.832V311.598ZM309.027 317.598V296.504H297.027V317.598H309.027ZM303.027 302.504H377.832V290.504H303.027V302.504ZM304.352 237.812V380H316.352V237.812H304.352ZM310.352 374H283.496V386H310.352V374ZM289.496 380V237.812H277.496V380H289.496ZM283.496 243.812H310.352V231.812H283.496V243.812ZM391.754 237.812V380H403.754V237.812H391.754ZM397.754 374H370.898V386H397.754V374ZM376.898 380V237.812H364.898V380H376.898ZM370.898 243.812H397.754V231.812H370.898V243.812ZM483.398 259.395L489.086 261.306L489.293 260.689L489.363 260.042L483.398 259.395ZM442.871 380V386H447.185L448.559 381.911L442.871 380ZM414.453 380L408.833 377.9L405.806 386H414.453V380ZM467.578 237.812V231.812H463.415L461.958 235.713L467.578 237.812ZM485.742 237.812L491.707 238.46L492.429 231.812H485.742V237.812ZM517.285 380L511.6 381.919L512.978 386H517.285V380ZM476.562 259.395L470.601 260.069L470.673 260.706L470.878 261.314L476.562 259.395ZM474.121 237.812V231.812H467.404L468.159 238.487L474.121 237.812ZM492.383 237.812L498 235.702L496.538 231.812H492.383V237.812ZM545.801 380V386H554.464L551.417 377.89L545.801 380ZM515.43 327.168H521.43V321.168H515.43V327.168ZM515.43 348.359V354.359H521.43V348.359H515.43ZM439.16 348.359H433.16V354.359H439.16V348.359ZM439.16 327.168V321.168H433.16V327.168H439.16ZM477.711 257.483L437.184 378.089L448.559 381.911L489.086 261.306L477.711 257.483ZM442.871 374H414.453V386H442.871V374ZM420.074 382.1L473.199 239.912L461.958 235.713L408.833 377.9L420.074 382.1ZM467.578 243.812H485.742V231.812H467.578V243.812ZM479.777 237.165L477.434 258.747L489.363 260.042L491.707 238.46L479.777 237.165ZM522.97 378.081L482.247 257.475L470.878 261.314L511.6 381.919L522.97 378.081ZM482.524 258.72L480.083 237.138L468.159 238.487L470.601 260.069L482.524 258.72ZM474.121 243.812H492.383V231.812H474.121V243.812ZM486.766 239.923L540.184 382.11L551.417 377.89L498 235.702L486.766 239.923ZM545.801 374H517.285V386H545.801V374ZM509.43 327.168V348.359H521.43V327.168H509.43ZM515.43 342.359H439.16V354.359H515.43V342.359ZM445.16 348.359V327.168H433.16V348.359H445.16ZM439.16 333.168H515.43V321.168H439.16V333.168ZM560.449 237.812V231.812H554.449V237.812H560.449ZM639.941 242.695L642.266 237.164L639.941 242.695ZM657.812 257.148L662.836 253.868L657.812 257.148ZM649.121 313.398L645.469 308.638L645.453 308.65L645.437 308.662L649.121 313.398ZM632.52 321.992L630.657 316.289L630.208 316.435L629.787 316.651L632.52 321.992ZM624.121 326.289V332.289H625.567L626.854 331.631L624.121 326.289ZM578.516 326.289L572.516 326.344L572.571 332.289H578.516V326.289ZM578.32 305.098V299.098H572.265L572.321 305.153L578.32 305.098ZM634.375 294.062L629.111 291.182L629.09 291.221L629.07 291.26L634.375 294.062ZM634.473 269.941L629.146 272.703L629.157 272.724L629.167 272.744L634.473 269.941ZM587.305 259.004V253.004H581.305V259.004H587.305ZM587.305 380V386H593.305V380H587.305ZM560.449 380H554.449V386H560.449V380ZM640.723 380L635.393 382.755L637.07 386H640.723V380ZM607.812 316.328L607.792 310.328L597.975 310.362L602.482 319.083L607.812 316.328ZM636.23 316.23L641.524 313.406L639.823 310.218L636.21 310.231L636.23 316.23ZM669.531 378.633H675.531V377.132L674.825 375.808L669.531 378.633ZM669.531 380V386H675.531V380H669.531ZM560.449 243.812H612.109V231.812H560.449V243.812ZM612.109 243.812C622.337 243.812 630.784 245.356 637.617 248.227L642.266 237.164C633.605 233.525 623.496 231.812 612.109 231.812V243.812ZM637.617 248.227C644.379 251.068 649.344 255.154 652.789 260.429L662.836 253.868C657.948 246.382 650.999 240.833 642.266 237.164L637.617 248.227ZM652.789 260.429C656.19 265.637 658.062 272.279 658.062 280.684H670.062C670.062 270.469 667.769 261.421 662.836 253.868L652.789 260.429ZM658.062 280.684C658.062 287.339 656.885 292.791 654.751 297.219L665.561 302.429C668.636 296.05 670.062 288.742 670.062 280.684H658.062ZM654.751 297.219C652.554 301.778 649.476 305.564 645.469 308.638L652.773 318.159C658.272 313.941 662.55 308.677 665.561 302.429L654.751 297.219ZM645.437 308.662C641.363 311.831 636.464 314.392 630.657 316.289L634.382 327.696C641.336 325.425 647.504 322.257 652.805 318.135L645.437 308.662ZM629.787 316.651L621.388 320.948L626.854 331.631L635.252 327.334L629.787 316.651ZM624.121 320.289H578.516V332.289H624.121V320.289ZM584.515 326.234L584.32 305.042L572.321 305.153L572.516 326.344L584.515 326.234ZM578.32 311.098H612.402V299.098H578.32V311.098ZM612.402 311.098C618.604 311.098 624.243 310.008 629.005 307.457L623.339 296.879C620.809 298.234 617.268 299.098 612.402 299.098V311.098ZM629.005 307.457C633.638 304.975 637.265 301.437 639.68 296.865L629.07 291.26C627.839 293.589 625.998 295.455 623.339 296.879L629.005 307.457ZM639.639 296.943C642.068 292.503 643.207 287.551 643.207 282.246H631.207C631.207 285.795 630.458 288.721 629.111 291.182L639.639 296.943ZM643.207 282.246C643.207 276.727 642.146 271.622 639.778 267.139L629.167 272.744C630.445 275.162 631.207 278.26 631.207 282.246H643.207ZM639.799 267.18C637.368 262.492 633.66 258.914 628.893 256.488L623.451 267.184C626.106 268.534 627.931 270.36 629.146 272.703L639.799 267.18ZM628.893 256.488C624.091 254.045 618.395 253.004 612.109 253.004V265.004C617.152 265.004 620.831 265.85 623.451 267.184L628.893 256.488ZM612.109 253.004H587.305V265.004H612.109V253.004ZM581.305 259.004V380H593.305V259.004H581.305ZM587.305 374H560.449V386H587.305V374ZM566.449 380V237.812H554.449V380H566.449ZM646.053 377.245L613.143 313.573L602.482 319.083L635.393 382.755L646.053 377.245ZM607.833 322.328L636.251 322.23L636.21 310.231L607.792 310.328L607.833 322.328ZM630.937 319.055L664.238 381.458L674.825 375.808L641.524 313.406L630.937 319.055ZM663.531 378.633V380H675.531V378.633H663.531ZM669.531 374H640.723V386H669.531V374ZM722.559 352.754L716.733 351.318L716.608 351.825L716.572 352.346L722.559 352.754ZM750.879 237.812V231.812H746.178L745.053 236.377L750.879 237.812ZM766.211 237.812L772.206 237.571L771.974 231.812H766.211V237.812ZM767.188 262.031L772.999 263.523L773.218 262.67L773.183 261.79L767.188 262.031ZM736.914 380V386H741.569L742.726 381.491L736.914 380ZM720.703 380L714.717 379.592L714.281 386H720.703V380ZM704.688 237.812L710.568 236.619L709.592 231.812H704.688V237.812ZM727.93 352.363H733.93V351.761L733.81 351.17L727.93 352.363ZM727.93 380V386H733.93V380H727.93ZM710.254 380L704.402 381.326L705.462 386H710.254V380ZM678.027 237.812V231.812H670.515L672.176 239.139L678.027 237.812ZM796.582 351.875L790.699 350.696L790.588 351.249L790.582 351.813L796.582 351.875ZM819.434 237.812V231.812H814.516L813.55 236.634L819.434 237.812ZM846.191 237.812L852.043 239.139L853.703 231.812H846.191V237.812ZM813.965 380V386H818.757L819.816 381.326L813.965 380ZM796.289 380L790.289 379.938L790.226 386H796.289V380ZM773.535 237.812L779.362 236.382L778.24 231.812H773.535V237.812ZM801.855 353.145L807.844 352.774L807.811 352.237L807.682 351.714L801.855 353.145ZM803.516 380V386H809.898L809.504 379.63L803.516 380ZM787.305 380L781.492 381.486L782.645 386H787.305V380ZM757.129 261.934L751.136 261.642L751.092 262.544L751.316 263.419L757.129 261.934ZM758.301 237.812V231.812H752.585L752.308 237.521L758.301 237.812ZM728.384 354.189L756.705 239.248L745.053 236.377L716.733 351.318L728.384 354.189ZM750.879 243.812H766.211V231.812H750.879V243.812ZM760.216 238.054L761.192 262.273L773.183 261.79L772.206 237.571L760.216 238.054ZM761.376 260.54L731.102 378.509L742.726 381.491L772.999 263.523L761.376 260.54ZM736.914 374H720.703V386H736.914V374ZM726.689 380.408L728.545 353.162L716.572 352.346L714.717 379.592L726.689 380.408ZM698.807 239.006L722.05 353.556L733.81 351.17L710.568 236.619L698.807 239.006ZM721.93 352.363V380H733.93V352.363H721.93ZM727.93 374H710.254V386H727.93V374ZM716.105 378.674L683.879 236.486L672.176 239.139L704.402 381.326L716.105 378.674ZM678.027 243.812H704.688V231.812H678.027V243.812ZM802.465 353.054L825.317 238.991L813.55 236.634L790.699 350.696L802.465 353.054ZM819.434 243.812H846.191V231.812H819.434V243.812ZM840.34 236.486L808.113 378.674L819.816 381.326L852.043 239.139L840.34 236.486ZM813.965 374H796.289V386H813.965V374ZM802.289 380.062L802.582 351.937L790.582 351.813L790.289 379.938L802.289 380.062ZM767.708 239.243L796.029 354.575L807.682 351.714L779.362 236.382L767.708 239.243ZM795.867 353.515L797.527 380.37L809.504 379.63L807.844 352.774L795.867 353.515ZM803.516 374H787.305V386H803.516V374ZM793.118 378.514L762.942 260.448L751.316 263.419L781.492 381.486L793.118 378.514ZM763.122 262.225L764.294 238.104L752.308 237.521L751.136 261.642L763.122 262.225ZM758.301 243.812H773.535V231.812H758.301V243.812ZM915.43 259.395L921.117 261.306L921.324 260.689L921.395 260.042L915.43 259.395ZM874.902 380V386H879.216L880.59 381.911L874.902 380ZM846.484 380L840.864 377.9L837.838 386H846.484V380ZM899.609 237.812V231.812H895.446L893.989 235.713L899.609 237.812ZM917.773 237.812L923.738 238.46L924.46 231.812H917.773V237.812ZM949.316 380L943.632 381.919L945.01 386H949.316V380ZM908.594 259.395L902.632 260.069L902.704 260.706L902.909 261.314L908.594 259.395ZM906.152 237.812V231.812H899.435L900.19 238.487L906.152 237.812ZM924.414 237.812L930.031 235.702L928.569 231.812H924.414V237.812ZM977.832 380V386H986.496L983.449 377.89L977.832 380ZM947.461 327.168H953.461V321.168H947.461V327.168ZM947.461 348.359V354.359H953.461V348.359H947.461ZM871.191 348.359H865.191V354.359H871.191V348.359ZM871.191 327.168V321.168H865.191V327.168H871.191ZM909.742 257.483L869.215 378.089L880.59 381.911L921.117 261.306L909.742 257.483ZM874.902 374H846.484V386H874.902V374ZM852.105 382.1L905.23 239.912L893.989 235.713L840.864 377.9L852.105 382.1ZM899.609 243.812H917.773V231.812H899.609V243.812ZM911.809 237.165L909.465 258.747L921.395 260.042L923.738 238.46L911.809 237.165ZM955.001 378.081L914.278 257.475L902.909 261.314L943.632 381.919L955.001 378.081ZM914.556 258.72L912.114 237.138L900.19 238.487L902.632 260.069L914.556 258.72ZM906.152 243.812H924.414V231.812H906.152V243.812ZM918.797 239.923L972.215 382.11L983.449 377.89L930.031 235.702L918.797 239.923ZM977.832 374H949.316V386H977.832V374ZM941.461 327.168V348.359H953.461V327.168H941.461ZM947.461 342.359H871.191V354.359H947.461V342.359ZM877.191 348.359V327.168H865.191V348.359H877.191ZM871.191 333.168H947.461V321.168H871.191V333.168ZM992.48 237.812V231.812H986.48V237.812H992.48ZM1071.97 242.695L1074.3 237.164L1071.97 242.695ZM1089.84 257.148L1094.87 253.868L1089.84 257.148ZM1081.15 313.398L1077.5 308.638L1077.48 308.65L1077.47 308.662L1081.15 313.398ZM1064.55 321.992L1062.69 316.289L1062.24 316.435L1061.82 316.651L1064.55 321.992ZM1056.15 326.289V332.289H1057.6L1058.89 331.631L1056.15 326.289ZM1010.55 326.289L1004.55 326.344L1004.6 332.289H1010.55V326.289ZM1010.35 305.098V299.098H1004.3L1004.35 305.153L1010.35 305.098ZM1066.41 294.062L1061.14 291.182L1061.12 291.221L1061.1 291.26L1066.41 294.062ZM1066.5 269.941L1061.18 272.703L1061.19 272.724L1061.2 272.744L1066.5 269.941ZM1019.34 259.004V253.004H1013.34V259.004H1019.34ZM1019.34 380V386H1025.34V380H1019.34ZM992.48 380H986.48V386H992.48V380ZM1072.75 380L1067.42 382.755L1069.1 386H1072.75V380ZM1039.84 316.328L1039.82 310.328L1030.01 310.362L1034.51 319.083L1039.84 316.328ZM1068.26 316.23L1073.56 313.406L1071.85 310.218L1068.24 310.231L1068.26 316.23ZM1101.56 378.633H1107.56V377.132L1106.86 375.808L1101.56 378.633ZM1101.56 380V386H1107.56V380H1101.56ZM992.48 243.812H1044.14V231.812H992.48V243.812ZM1044.14 243.812C1054.37 243.812 1062.81 245.356 1069.65 248.227L1074.3 237.164C1065.64 233.525 1055.53 231.812 1044.14 231.812V243.812ZM1069.65 248.227C1076.41 251.068 1081.38 255.154 1084.82 260.429L1094.87 253.868C1089.98 246.382 1083.03 240.833 1074.3 237.164L1069.65 248.227ZM1084.82 260.429C1088.22 265.637 1090.09 272.279 1090.09 280.684H1102.09C1102.09 270.469 1099.8 261.421 1094.87 253.868L1084.82 260.429ZM1090.09 280.684C1090.09 287.339 1088.92 292.791 1086.78 297.219L1097.59 302.429C1100.67 296.05 1102.09 288.742 1102.09 280.684H1090.09ZM1086.78 297.219C1084.59 301.778 1081.51 305.564 1077.5 308.638L1084.8 318.159C1090.3 313.941 1094.58 308.677 1097.59 302.429L1086.78 297.219ZM1077.47 308.662C1073.39 311.831 1068.5 314.392 1062.69 316.289L1066.41 327.696C1073.37 325.425 1079.54 322.257 1084.84 318.135L1077.47 308.662ZM1061.82 316.651L1053.42 320.948L1058.89 331.631L1067.28 327.334L1061.82 316.651ZM1056.15 320.289H1010.55V332.289H1056.15V320.289ZM1016.55 326.234L1016.35 305.042L1004.35 305.153L1004.55 326.344L1016.55 326.234ZM1010.35 311.098H1044.43V299.098H1010.35V311.098ZM1044.43 311.098C1050.64 311.098 1056.27 310.008 1061.04 307.457L1055.37 296.879C1052.84 298.234 1049.3 299.098 1044.43 299.098V311.098ZM1061.04 307.457C1065.67 304.975 1069.3 301.437 1071.71 296.865L1061.1 291.26C1059.87 293.589 1058.03 295.455 1055.37 296.879L1061.04 307.457ZM1071.67 296.943C1074.1 292.503 1075.24 287.551 1075.24 282.246H1063.24C1063.24 285.795 1062.49 288.721 1061.14 291.182L1071.67 296.943ZM1075.24 282.246C1075.24 276.727 1074.18 271.622 1071.81 267.139L1061.2 272.744C1062.48 275.162 1063.24 278.26 1063.24 282.246H1075.24ZM1071.83 267.18C1069.4 262.492 1065.69 258.914 1060.92 256.488L1055.48 267.184C1058.14 268.534 1059.96 270.36 1061.18 272.703L1071.83 267.18ZM1060.92 256.488C1056.12 254.045 1050.43 253.004 1044.14 253.004V265.004C1049.18 265.004 1052.86 265.85 1055.48 267.184L1060.92 256.488ZM1044.14 253.004H1019.34V265.004H1044.14V253.004ZM1013.34 259.004V380H1025.34V259.004H1013.34ZM1019.34 374H992.48V386H1019.34V374ZM998.48 380V237.812H986.48V380H998.48ZM1078.08 377.245L1045.17 313.573L1034.51 319.083L1067.42 382.755L1078.08 377.245ZM1039.86 322.328L1068.28 322.23L1068.24 310.231L1039.82 310.328L1039.86 322.328ZM1062.97 319.055L1096.27 381.458L1106.86 375.808L1073.56 313.406L1062.97 319.055ZM1095.56 378.633V380H1107.56V378.633H1095.56ZM1101.56 374H1072.75V386H1101.56V374Z" fill="black" mask="url(#path-2-outside-1_1141_6)"/>
<rect x="810" y="150" width="101" height="35" fill="black"/>
</svg>
